<svg width="61" height="62" viewBox="0 0 61 62" fill="none" xmlns="http://www.w3.org/2000/svg">
<path d="M59.6687 18.5632C59.1408 19.2348 58.1719 20.4952 57.8568 20.8944C57.4475 21.413 57.1798 22.0906 56.9742 22.5018C56.7056 23.0389 56.3589 23.6121 56.104 24.0733C55.8799 24.4787 55.6569 24.9421 55.4031 25.4508C55.1682 25.9215 55.0521 26.4171 54.9553 26.9012C54.862 27.3677 54.6416 27.795 54.5202 28.3512C54.3648 29.0626 54.543 29.8502 54.6645 30.3698C54.8099 30.9918 55.0753 31.7111 55.2443 32.1469C55.4409 32.6541 55.5829 33.1368 55.6196 33.6455C55.6548 34.1357 55.7526 34.6119 55.8248 35.1681C56.026 36.7189 55.9455 39.2531 56.0304 40.3957C56.2914 43.9101 55.8745 44.6892 55.6808 45.6341C55.5452 46.2962 55.4147 47.0113 55.2939 47.8337C55.1463 48.8393 54.9796 49.5495 54.8708 50.1677C54.7806 50.6806 54.5691 51.1464 54.4237 51.6906C54.2729 52.2551 53.8686 52.6939 53.6264 53.1534C53.3531 53.6716 52.8779 54.0472 52.4907 54.3869C52.062 54.763 51.4522 55.1596 50.8597 55.5951C50.4339 55.9081 50.0018 56.1995 49.554 56.5019C49 56.8761 48.5993 57.1423 48.212 57.3726C47.7853 57.6262 47.3186 57.9879 46.9067 58.291C46.5103 58.5827 45.8928 58.8103 45.1916 59.2813C44.6293 59.6589 43.0979 59.9691 41.9162 60.129C41.277 60.2155 40.7439 60.2374 39.3204 60.2741C38.8584 60.31 38.5669 60.3346 38.2536 60.3466C38.0839 60.3586 37.8925 60.3825 37.5502 60.4071" stroke="black" stroke-width="2" stroke-linecap="round"/>
<path d="M37.8403 59.8995C37.6481 59.9234 37.118 59.972 36.2481 59.7193C35.7133 59.5639 35.2324 59.3687 34.736 59.0909C34.0697 58.718 33.6602 58.5231 33.249 58.2809C32.7339 57.9774 32.2113 57.6296 31.75 57.3501C31.2801 57.0652 30.568 56.6144 29.8413 56.094C29.3003 55.7066 28.7289 55.3075 28.2212 54.9696C27.764 54.6652 26.9927 53.7904 26.2875 52.9401C25.7624 52.307 25.3204 51.9252 24.9332 51.4404C24.6216 51.0504 24.1601 50.7881 23.4842 50.1362C22.8409 49.5156 22.3718 49.0723 21.4783 48.1669C20.8349 47.5148 20.0512 46.9924 19.6875 46.6298C19.262 46.2056 18.7458 45.8568 18.2737 45.4213C17.8885 45.066 17.3926 44.7443 16.956 44.4539C16.3723 44.0655 15.7478 43.3664 15.3486 43.1242C14.8686 42.833 14.0842 42.0176 13.367 41.3605C12.5794 40.639 12.0247 39.9827 11.7342 39.5954C11.4349 39.1964 10.8905 38.6788 10.5134 38.2175C10.2075 37.8434 9.92159 37.372 9.64312 36.9727C9.36112 36.5685 9.1964 36.0913 9.05027 35.5952C8.89396 35.0646 8.90487 34.2333 9.10937 33.6488C9.26495 33.2041 9.7722 32.7075 10.3292 32.2948C10.5292 32.1466 10.765 32.1005 11.0061 32.0882C11.5446 32.0606 11.9971 32.5581 12.3361 32.9207C12.7235 33.335 13.1574 33.5255 13.8576 33.9236C14.4078 34.2365 14.7529 34.5408 15.1401 34.8066C15.5392 35.0805 15.9132 35.3864 16.3603 35.7486C17.1251 36.3683 17.9872 37.2907 18.6091 37.8644C19.1485 38.3619 19.7814 39.1327 20.2401 39.532C20.7827 40.0043 21.2071 40.2452 21.6063 40.5356C22.1345 40.9199 22.7779 41.3809 23.2018 41.7079C23.6642 42.0647 24.0354 42.3729 24.4226 42.6267C24.5186 42.6896 24.6156 42.7355 24.7247 42.7482C24.9522 42.7747 25.2682 42.5687 25.5583 42.2315C25.8479 41.8949 25.6091 41.4323 25.5007 41.2032C25.2925 40.7631 24.8853 40.4178 24.6424 40.0305C24.4063 39.6543 24.1355 39.2575 23.5201 38.6295C23.068 38.168 22.6372 37.9275 22.25 37.637C21.8627 37.3466 21.4769 37.1051 21.0418 36.7914C20.3579 36.2985 19.9061 35.8737 19.4942 35.5339C19.1094 35.2166 18.8169 34.8338 17.9611 33.9048C17.5474 33.4556 17.1272 32.8772 16.3769 32.0548C15.9479 31.5845 15.5303 31.0874 15.2152 30.5551C14.911 30.0413 14.515 29.4194 14.1879 29.0075C13.7896 28.5059 13.2575 28.0169 12.9069 27.6898C12.5432 27.3506 12.2422 26.9291 11.8557 26.5781C11.3299 26.1006 11.0094 25.6963 10.6468 25.321C10.296 24.9579 9.99411 24.3924 9.77583 23.9192C9.55292 23.436 9.48503 21.4568 9.55718 20.233C9.58624 19.7402 9.75045 19.4103 9.87083 19.2293C10.228 18.6926 11.3444 19.0941 11.8278 19.2275C12.548 19.4263 13.3735 19.6017 13.9551 19.7352C14.3938 19.8358 14.8965 20.2051 15.4179 20.5804C15.8248 20.8732 16.299 21.3161 16.7838 21.7527C17.1548 22.0867 17.484 22.765 17.8117 23.3717C18.242 24.1679 18.6689 25.4715 19.008 26.1753C19.4124 27.0148 19.7799 27.6485 20.1081 28.1464C20.4296 28.6342 20.9635 29.1714 21.4127 29.7411C22.1549 30.6821 22.8968 31.3949 23.4676 31.9776C23.9885 32.5095 24.6866 33.1615 25.1598 33.5251C25.6294 33.8861 26.0413 34.1535 26.513 34.4679C27.1891 34.9184 27.7092 35.0006 28.5545 35.0013C29.1147 35.0018 29.3786 34.6873 29.5357 34.543C30.0567 34.0641 29.5498 32.9729 29.3442 32.549C29.1142 32.0747 28.7289 31.6676 28.4018 31.2556C28.0656 30.8323 27.57 30.2665 27.1088 29.7331C26.7051 29.2663 26.2632 28.8393 25.84 28.3313C25.3301 27.7191 24.9578 27.3164 24.5586 26.8925C24.147 26.4554 23.7729 26.1561 23.4222 25.7924C23.0444 25.4004 22.7576 24.9711 22.395 24.5719C21.9515 24.0836 21.3812 23.4496 21.0769 22.9764C20.7919 22.533 20.5095 22.1428 19.7857 21.3824C19.2945 20.8664 18.6269 20.2355 18.0083 19.7493C17.3526 19.2339 17.0285 18.8794 16.3048 18.119C15.8246 17.6146 15.5056 17.2115 15.2754 16.8242C15.0317 16.4144 14.7558 16.0511 14.5019 15.6519C14.2204 15.2091 14.0306 14.7458 13.7767 14.2382C13.5708 13.8262 13.3779 13.4404 13.136 12.8606C12.9323 12.3723 12.8456 11.8697 12.809 11.3856C12.7719 10.8956 12.7238 10.4193 12.9406 9.92323C13.2115 9.30344 13.858 9.11391 14.2699 8.84631C14.651 8.59871 15.1633 8.50764 15.6474 8.43476C16.1354 8.36128 16.6616 8.72375 17.5195 9.10992C18.0382 9.34339 18.3789 9.71437 18.8259 10.197C19.5067 10.9319 19.9018 11.3577 20.1567 11.7449C20.5922 12.4066 20.9185 13.5086 21.0273 14.0046C21.1827 14.7132 21.6422 15.5624 21.9573 16.1679C22.2571 16.744 22.5371 17.2318 23.0201 17.9921C23.3897 18.5739 23.7453 19.0926 24.1206 19.5165C24.4789 19.9212 24.7127 20.3501 25.0873 20.8335C25.569 21.455 26.0413 21.9934 26.381 22.4655C26.7898 23.0336 27.4192 23.8543 27.9032 24.351C28.3397 24.7989 28.8928 25.2568 29.5465 25.7289C30.0437 26.088 31.1829 26.7768 32.3378 27.3729C32.8537 27.6392 33.2933 27.869 33.7893 28.0024C33.9228 28.0383 34.0663 28.0865 34.1762 28.0633C34.2861 28.0401 34.3579 27.9444 34.3948 27.8233C34.5513 27.3109 34.5043 26.6173 34.372 26.0226C34.2513 25.4804 34.0228 24.8043 33.6475 23.9928C33.4202 23.5013 33.0075 23.1581 32.6203 22.6747C32.0167 21.9213 31.2671 21.1754 30.8918 20.8008C30.4892 20.3991 30.011 19.8715 29.5864 19.4951C29.2117 19.1629 28.9464 18.6619 28.6433 18.2746C28.3729 17.9292 28.1966 17.5015 27.8942 17.1143C27.5725 16.7024 27.2538 16.3412 26.855 15.8938C26.5397 15.5401 26.3111 15.1084 25.8281 14.5888C25.3889 14.1163 25.0782 13.6101 24.7998 13.0778C24.5515 12.6033 24.2326 11.8232 23.9777 11.2405C23.7586 10.7396 23.5307 10.3221 23.2649 9.79051C22.9932 9.24716 22.9258 8.75131 22.9371 8.13489C22.9481 7.52972 23.3349 7.13122 23.5771 6.74396C23.8672 6.28008 24.398 6.01876 25.0982 5.68009C25.2655 5.59918 25.3886 5.55899 25.5699 5.53433C26.8841 5.3556 28.0486 7.36908 28.4834 7.81653C28.8956 8.2408 29.3525 8.74551 29.7289 9.27889C30.0544 9.74015 30.2967 10.1248 30.527 10.5121C30.774 10.9276 31.0219 11.3577 31.2402 11.7689C31.5453 12.3435 31.7718 13.001 31.9774 13.4248C32.2721 14.0324 32.642 14.7414 32.9078 15.2737C33.1479 15.7545 33.8952 16.4312 34.4184 16.846C34.8538 17.1912 35.3238 17.7873 35.7118 18.1992C36.025 18.5317 36.2434 18.9722 36.5458 19.3595C36.8675 19.7714 37.234 20.1804 37.7297 20.7127C38.1446 21.1583 38.6119 21.6076 38.9991 22.0304C39.1894 22.2381 39.6975 22.765 40.5413 23.6451C42.2064 25.3818 43.1081 26.2242 43.9888 27.093C44.4983 27.5955 44.9211 27.7964 45.5009 27.9781C46.0197 28.1407 46.9473 28.1358 47.5565 27.9796C48.0647 27.8492 48.402 27.1713 48.645 26.7474C48.8943 26.3125 48.8633 25.6977 48.9354 25.1524C49.0356 24.3955 49.0562 23.4728 49.153 22.9888C49.2544 22.4816 49.3462 21.9499 49.5032 21.4056C49.6393 20.934 49.9249 20.3559 50.2281 19.87C50.4839 19.4601 50.9156 18.9766 51.5922 18.312C52.1139 17.7994 52.6792 17.5015 53.1764 17.2586C53.7367 16.9848 54.2993 16.8721 54.8683 16.7506C55.7311 16.5664 57.0551 16.6299 57.636 16.6774C58.169 16.7981 58.5548 17.0867 59.1226 17.462C59.2568 17.5472 59.3525 17.619 59.5962 17.838" stroke="black" stroke-width="2" stroke-linecap="round"/>
<path d="M33.344 6.87433C33.5122 6.92219 34.616 7.498 35.421 8.08106C36.1557 8.61328 36.4362 9.21672 36.8837 9.65256C37.4566 10.2107 37.9592 10.9572 38.2623 11.4532C38.5543 11.931 38.709 12.4076 39.0596 12.9276C39.5341 13.6311 39.8215 14.3178 40.0151 14.705C40.214 15.1029 40.2812 15.6463 40.39 16.1431C40.4263 16.2526 40.4741 16.3483 40.5227 16.4455C40.5713 16.5427 40.6192 16.6384 40.6685 16.737" stroke="black" stroke-width="2" stroke-linecap="round"/>
<path d="M34.0692 1.00024C34.2375 1.07204 34.7669 1.45712 36.6959 2.78351C38.084 3.73794 38.4915 4.09249 38.89 4.45545C39.4659 4.97999 39.7243 5.39784 40.2675 5.97764C40.7079 6.44777 41.0775 6.8961 41.5725 7.42767C42.5355 8.46197 43.0588 9.19063 43.5555 9.78529C44.0947 10.4308 44.5338 11.607 44.8253 12.3351C45.1032 13.0291 45.4287 13.8304 45.6717 14.4991C45.8743 15.0567 45.9378 15.6463 46.0466 16.167C46.2039 16.7356 46.3004 17.3143 46.3852 17.8709C46.3976 18.0402 46.3976 18.2556 46.3976 18.4775" stroke="black" stroke-width="2" stroke-linecap="round"/>
<path d="M5.56897 38.7105C5.73722 38.7584 6.36234 39.5256 6.74053 40.1834C7.05602 40.7321 7.33265 41.2226 8.12819 42.3923C8.58409 43.0627 9.16885 43.7361 10.6515 45.2435C11.3277 45.9308 11.7796 46.2511 12.2625 46.6496C13.206 47.1946 13.7615 47.46 14.1357 47.6653C14.2945 47.7508 14.3903 47.7987 14.5614 47.9205" stroke="black" stroke-width="2" stroke-linecap="round"/>
<path d="M1.00024 38.638C1.07204 38.8541 1.36139 39.5285 2.21749 41.3985C2.67712 42.4024 2.95683 42.8659 3.41588 43.5305C3.81576 44.1095 4.28539 44.9675 5.09435 45.8867C5.65677 46.5258 6.1709 47.0227 6.69123 47.6043C7.04023 47.9944 7.4284 48.3295 7.81565 48.6203C8.29634 48.9813 8.63658 49.5131 10.0116 50.4192C10.6314 50.8277 11.1022 51.1346 11.5863 51.4725C12.0551 51.7998 12.4323 52.0527 13.2166 52.4755C13.872 52.8288 14.2453 53.0926 14.6927 53.2261C15.2359 53.4552 15.8653 53.6975 16.1667 53.8059C16.3244 53.8664 16.4919 53.9382 16.9546 54.0847" stroke="black" stroke-width="2" stroke-linecap="round"/>
<path d="M46.2556 35.2593C46.011 35.4095 45.165 36.1421 44.3221 37.0022C43.747 37.589 43.1559 38.7192 42.821 40.0931C42.0548 43.2365 43.0987 44.6437 43.3608 45.6086C43.4345 45.7987 43.5123 45.946 43.664 46.2754C43.8156 46.6048 44.0388 47.1119 44.6141 47.9658" stroke="black" stroke-linecap="round"/>
</svg>
