<svg width="61" height="62" viewBox="0 0 61 62" fill="none" xmlns="http://www.w3.org/2000/svg">
<path d="M59.6687 18.5632C59.1408 19.2348 58.1719 20.4952 57.8568 20.8944C57.4475 21.413 57.1798 22.0906 56.9742 22.5018C56.7056 23.0389 56.3589 23.6121 56.104 24.0733C55.8799 24.4787 55.6569 24.9421 55.4031 25.4508C55.1682 25.9215 55.0521 26.4171 54.9553 26.9012C54.862 27.3677 54.6416 27.795 54.5202 28.3512C54.3648 29.0626 54.543 29.8502 54.6645 30.3698C54.8099 30.9918 55.0753 31.7111 55.2443 32.1469C55.4409 32.6541 55.5829 33.1368 55.6196 33.6455C55.6548 34.1357 55.7526 34.6119 55.8248 35.1681C56.026 36.7189 55.9455 39.2531 56.0304 40.3957C56.2914 43.9101 55.8745 44.6892 55.6808 45.6341C55.5452 46.2962 55.4147 47.0113 55.2939 47.8337C55.1463 48.8393 54.9796 49.5495 54.8708 50.1677C54.7806 50.6806 54.5691 51.1464 54.4237 51.6906C54.2729 52.2551 53.8686 52.6939 53.6264 53.1534C53.3531 53.6716 52.8779 54.0472 52.4907 54.3869C52.062 54.763 51.4522 55.1596 50.8597 55.5951C50.4339 55.9081 50.0018 56.1995 49.554 56.5019C49 56.8761 48.5993 57.1423 48.212 57.3726C47.7853 57.6262 47.3186 57.9879 46.9067 58.291C46.5103 58.5827 45.8928 58.8103 45.1916 59.2813C44.6293 59.6589 43.0979 59.9691 41.9162 60.129C41.277 60.2155 40.7439 60.2374 39.3204 60.2741C38.8584 60.31 38.5669 60.3346 38.2536 60.3466C38.0839 60.3586 37.8925 60.3825 37.5502 60.4071" stroke="black" stroke-width="2" stroke-linecap="round"/>
<path d="M37.8403 59.8995C37.6481 59.9234 37.118 59.972 36.2481 59.7193C35.7133 59.5639 35.2324 59.3687 34.736 59.0909C34.0697 58.718 33.6602 58.5231 33.249 58.2809C32.7339 57.9774 32.2113 57.6296 31.75 57.3501C31.2801 57.0652 30.568 56.6144 29.8413 56.094C29.3003 55.7066 28.7289 55.3075 28.2212 54.9696C27.764 54.6652 26.9927 53.7904 26.2875 52.9401C25.7624 52.307 25.3204 51.9252 24.9332 51.4404C24.6216 51.0504 24.1601 50.7881 23.4842 50.1362C22.8409 49.5156 22.3718 49.0723 21.4783 48.1669C20.8349 47.5148 20.0512 46.9924 19.6875 46.6298C19.262 46.2056 18.7458 45.8568 18.2737 45.4213C17.8885 45.066 17.3926 44.7443 16.956 44.4539C16.3723 44.0655 15.7478 43.3664 15.3486 43.1242C14.8686 42.833 14.0842 42.0176 13.367 41.3605C12.5794 40.639 12.0247 39.9827 11.7342 39.5954C11.4349 39.1964 10.8905 38.6788 10.5134 38.2175C10.2075 37.8434 9.92159 37.372 9.64312 36.9727C9.36112 36.5685 9.1964 36.0913 9.05027 35.5952C8.89396 35.0646 8.90487 34.2333 9.10937 33.6488C9.26495 33.2041 9.7722 32.7075 10.3292 32.2948C10.5292 32.1466 10.765 32.1005 11.0061 32.0882C11.5446 32.0606 11.9971 32.5581 12.3361 32.9207C12.7235 33.335 13.1574 33.5255 13.8576 33.9236C14.4078 34.2365 14.7529 34.5408 15.1401 34.8066C15.5392 35.0805 15.9132 35.3864 16.3603 35.7486C17.1251 36.3683 17.9872 37.2907 18.6091 37.8644C19.1485 38.3619 19.7814 39.1327 20.2401 39.532C20.7827 40.0043 21.2071 40.2452 21.6063 40.5356C22.1345 40.9199 22.7779 41.3809 23.2018 41.7079C23.6642 42.0647 24.0354 42.3729 24.4226 42.6267C24.5186 42.6896 24.6156 42.7355 24.7247 42.7482C24.9522 42.7747 25.2682 42.5687 25.5583 42.2315C25.8479 41.8949 25.6091 41.4323 25.5007 41.2032C25.2925 40.7631 24.8853 40.4178 24.6424 40.0305C24.4063 39.6543 24.1355 39.2575 23.5201 38.6295C23.068 38.168 22.6372 37.9275 22.25 37.637C21.8627 37.3466 21.4769 37.1051 21.0418 36.7914C20.3579 36.2985 19.9061 35.8737 19.4942 35.5339C19.1094 35.2166 18.8169 34.8338 17.9611 33.9048C17.5474 33.4556 17.1272 32.8772 16.3769 32.0548C15.9479 31.5845 15.5303 31.0874 15.2152 30.5551C14.911 30.0413 14.515 29.4194 14.1879 29.0075C13.7896 28.5059 13.2575 28.0169 12.9069 27.6898C12.5432 27.3506 12.2422 26.9291 11.8557 26.5781C11.3299 26.1006 11.0094 25.6963 10.6468 25.321C10.296 24.9579 9.99411 24.3924 9.77583 23.9192C9.55292 23.436 9.48503 21.4568 9.55718 20.233C9.58624 19.7402 9.75045 19.4103 9.87083 19.2293C10.228 18.6926 11.3444 19.0941 11.8278 19.2275C12.548 19.4263 13.3735 19.6017 13.9551 19.7352C14.3938 19.8358 14.8965 20.2051 15.4179 20.5804C15.8248 20.8732 16.299 21.3161 16.7838 21.7527C17.1548 22.0867 17.484 22.765 17.8117 23.3717C18.242 24.1679 18.6689 25.4715 19.008 26.1753C19.4124 27.0148 19.7799 27.6485 20.1081 28.1464C20.4296 28.6342 20.9635 29.1714 21.4127 29.7411C22.1549 30.6821 22.8968 31.3949 23.4676 31.9776C23.9885 32.5095 24.6866 33.1615 25.1598 33.5251C25.6294 33.8861 26.0413 34.1535 26.513 34.4679C27.1891 34.9184 27.7092 35.0006 28.5545 35.0013C29.1147 35.0018 29.3786 34.6873 29.5357 34.543C30.0567 34.0641 29.5498 32.9729 29.3442 32.549C29.1142 32.0747 28.7289 31.6676 28.4018 31.2556C28.0656 30.8323 27.57 30.2665 27.1088 29.7331C26.7051 29.2663 26.2632 28.8393 25.84 28.3313C25.3301 27.7191 24.9578 27.3164 24.5586 26.8925C24.147 26.4554 23.7729 26.1561 23.4222 25.7924C23.0444 25.4004 22.7576 24.9711 22.395 24.5719C21.9515 24.0836 21.3812 23.4496 21.0769 22.9764C20.7919 22.533 20.5095 22.1428 19.7857 21.3824C19.2945 20.8664 18.6269 20.2355 18.0083 19.7493C17.3526 19.2339 17.0285 18.8794 16.3048 18.119C15.8246 17.6146 15.5056 17.2115 15.2754 16.8242C15.0317 16.4144 14.7558 16.0511 14.5019 15.6519C14.2204 15.2091 14.0306 14.7458 13.7767 14.2382C13.5708 13.8262 13.3779 13.4404 13.136 12.8606C12.9323 12.3723 12.8456 11.8697 12.809 11.3856C12.7719 10.8956 12.7238 10.4193 12.9406 9.92323C13.2115 9.30344 13.858 9.11391 14.2699 8.84631C14.651 8.59871 15.1633 8.50764 15.6474 8.43476C16.1354 8.36128 16.6616 8.72375 17.5195 9.10992C18.0382 9.34339 18.3789 9.71437 18.8259 10.197C19.5067 10.9319 19.9018 11.3577 20.1567 11.7449C20.5922 12.4066 20.9185 13.5086 21.0273 14.0046C21.1827 14.7132 21.6422 15.5624 21.9573 16.1679C22.2571 16.744 22.5371 17.2318 23.0201 17.9921C23.3897 18.5739 23.7453 19.0926 24.1206 19.5165C24.4789 19.9212 24.7127 20.3501 25.0873 20.8335C25.569 21.455 26.0413 21.9934 26.381 22.4655C26.7898 23.0336 27.4192 23.8543 27.9032 24.351C28.3397 24.7989 28.8928 25.2568 29.5465 25.7289C30.0437 26.088 31.1829 26.7768 32.3378 27.3729C32.8537 27.6392 33.2933 27.869 33.7893 28.0024C33.9228 28.0383 34.0663 28.0865 34.1762 28.0633C34.2861 28.0401 34.3579 27.9444 34.3948 27.8233C34.5513 27.3109 34.5043 26.6173 34.372 26.0226C34.2513 25.4804 34.0228 24.8043 33.6475 23.9928C33.4202 23.5013 33.0075 23.1581 32.6203 22.6747C32.0167 21.9213 31.2671 21.1754 30.8918 20.8008C30.4892 20.3991 30.011 19.8715 29.5864 19.4951C29.2117 19.1629 28.9464 18.6619 28.6433 18.2746C28.3729 17.9292 28.1966 17.5015 27.8942 17.1143C27.5725 16.7024 27.2538 16.3412 26.855 15.8938C26.5397 15.5401 26.3111 15.1084 25.8281 14.5888C25.3889 14.1163 25.0782 13.6101 24.7998 13.0778C24.5515 12.6033 24.2326 11.8232 23.9777 11.2405C23.7586 10.7396 23.5307 10.3221 23.2649 9.79051C22.9932 9.24716 22.9258 8.75131 22.9371 8.13489C22.9481 7.52972 23.3349 7.13122 23.5771 6.74396C23.8672 6.28008 24.398 6.01876 25.0982 5.68009C25.2655 5.59918 25.3886 5.55899 25.5699 5.53433C26.8841 5.3556 28.0486 7.36908 28.4834 7.81653C28.8956 8.2408 29.3525 8.74551 29.7289 9.27889C30.0544 9.74015 30.2967 10.1248 30.527 10.5121C30.774 10.9276 31.0219 11.3577 31.2402 11.7689C31.5453 12.3435 31.7718 13.001 31.9774 13.4248C32.2721 14.0324 32.642 14.7414 32.9078 15.2737C33.1479 15.7545 33.8952 16.4312 34.4184 16.846C34.8538 17.1912 35.3238 17.7873 35.7118 18.1992C36.025 18.5317 36.2434 18.9722 36.5458 19.3595C36.8675 19.7714 37.234 20.1804 37.7297 20.7127C38.1446 21.1583 38.6119 21.6076 38.9991 22.0304C39.1894 22.2381 39.6975 22.765 40.5413 23.6451C42.2064 25.3818 43.1081 26.2242 43.9888 27.093C44.4983 27.5955 44.9211 27.7964 45.5009 27.9781C46.0197 28.1407 46.9473 28.1358 47.5565 27.9796C48.0647 27.8492 48.402 27.1713 48.645 26.7474C48.8943 26.3125 48.8633 25.6977 48.9354 25.1524C49.0356 24.3955 49.0562 23.4728 49.153 22.9888C49.2544 22.4816 49.3462 21.9499 49.5032 21.4056C49.6393 20.934 49.9249 20.3559 50.2281 19.87C50.4839 19.4601 50.9156 18.9766 51.5922 18.312C52.1139 17.7994 52.6792 17.5015 53.1764 17.2586C53.7367 16.9848 54.2993 16.8721 54.8683 16.7506C55.7311 16.5664 57.0551 16.6299 57.636 16.6774C58.169 16.7981 58.5548 17.0867 59.1226 17.462C59.2568 17.5472 59.3525 17.619 59.5962 17.838" stroke="black" stroke-width="2" stroke-linecap="round"/>
<path d="M33.344 6.87433C33.5122 6.92219 34.616 7.498 35.421 8.08106C36.1557 8.61328 36.4362 9.21672 36.8837 9.65256C37.4566 10.2107 37.9592 10.9572 38.2623 11.4532C38.5543 11.931 38.709 12.4076 39.0596 12.9276C39.5341 13.6311 39.8215 14.3178 40.0151 14.705C40.214 15.1029 40.2812 15.6463 40.39 16.1431C40.4263 16.2526 40.4741 16.3483 40.5227 16.4455C40.5713 16.5427 40.6192 16.6384 40.6685 16.737" stroke="black" stroke-width="2" stroke-linecap="round"/>
<path d="M34.0692 1.00024C34.2375 1.07204 34.7669 1.45712 36.6959 2.78351C38.084 3.73794 38.4915 4.09249 38.89 4.45545C39.4659 4.97999 39.7243 5.39784 40.2675 5.97764C40.7079 6.44777 41.0775 6.8961 41.5725 7.42767C42.5355 8.46197 43.0588 9.19063 43.5555 9.78529C44.0947 10.4308 44.5338 11.607 44.8253 12.3351C45.1032 13.0291 45.4287 13.8304 45.6717 14.4991C45.8743 15.0567 45.9378 15.6463 46.0466 16.167C46.2039 16.7356 46.3004 17.3143 46.3852 17.8709C46.3976 18.0402 46.3976 18.2556 46.3976 18.4775" stroke="black" stroke-width="2" stroke-linecap="round"/>
<path d="M5.56897 38.7105C5.73722 38.7584 6.36234 39.5256 6.74053 40.1834C7.05602 40.7321 7.33265 41.2226 8.12819 42.3923C8.58409 43.0627 9.16885 43.7361 10.6515 45.2435C11.3277 45.9308 11.7796 46.2511 12.2625 46.6496C13.206 47.1946 13.7615 47.46 14.1357 47.6653C14.2945 47.7508 14.3903 47.7987 14.5614 47.9205" stroke="black" stroke-width="2" stroke-linecap="round"/>
<path d="M1.00024 38.638C1.07204 38.8541 1.36139 39.5285 2.21749 41.3985C2.67712 42.4024 2.95683 42.8659 3.41588 43.5305C3.81576 44.1095 4.28539 44.9675 5.09435 45.8867C5.65677 46.5258 6.1709 47.0227 6.69123 47.6043C7.04023 47.9944 7.4284 48.3295 7.81565 48.6203C8.29634 48.9813 8.63658 49.5131 10.0116 50.4192C10.6314 50.8277 11.1022 51.1346 11.5863 51.4725C12.0551 51.7998 12.4323 52.0527 13.2166 52.4755C13.872 52.8288 14.2453 53.0926 14.6927 53.2261C15.2359 53.4552 15.8653 53.6975 16.1667 53.8059C16.3244 53.8664 16.4919 53.9382 16.9546 54.0847" stroke="black" stroke-width="2" stroke-linecap="round"/>
<path d="M40.451 35.3746C40.451 35.4225 40.451 36.8113 40.4151 39.0576C40.3796 41.2784 39.2457 42.8877 38.568 43.6035C38.2872 43.9 37.8425 43.9798 37.4204 44.0404C36.6497 44.151 35.9345 43.259 35.4004 42.4486C34.7005 41.3867 35.1803 39.8984 35.5422 39.1725C35.9163 38.422 37.205 38.1086 38.5604 37.7928C39.929 37.4739 41.3155 37.9114 42.2368 38.4662C43.1915 39.041 43.1096 40.3974 43.0382 41.7633C42.9764 42.9448 41.9058 43.9508 40.9742 44.7032C40.1569 45.3634 38.9092 45.2373 37.7119 44.9008C36.4289 44.5402 35.933 43.2836 35.5451 42.2078C35.1831 41.204 35.4225 40.2378 35.6756 39.5467C35.8874 38.9682 37.324 38.7367 38.9952 38.662C39.4855 38.64 39.8208 38.8788 40.1464 39.0837C40.9705 39.6021 41.3923 40.8586 41.5867 41.9337C41.7053 42.5899 41.4431 43.1807 41.165 43.6771C40.9071 44.1374 41.7535 42.3409 43.7282 40.4358C45.3345 38.8861 46.7341 38.2761 47.0721 38.1913C47.3094 38.1317 47.5565 38.3472 47.8339 38.5278C48.1336 38.7229 48.3303 39.2153 48.4637 39.5906C48.6054 39.9891 48.1628 38.4002 48.162 37.5894C48.1615 36.9949 48.5 36.7293 48.5848 36.5364C48.6243 36.4466 48.55 36.3435 48.4775 36.2703C48.1797 35.9695 47.6812 35.9069 46.3552 35.9182C45.5995 35.9246 45.1416 36.1477 45.0085 36.292C44.6312 36.7012 45.188 37.3791 45.3334 37.8385C45.5032 38.3749 46.2947 39.7867 46.9521 40.8477C47.2269 41.2913 47.3157 41.7781 47.4126 42.3344C47.5292 43.0048 47.5333 43.7362 47.6181 44.292C47.6474 44.4835 47.6305 44.7485 47.6544 44.7765C48.0415 45.2281 47.872 43.7398 47.9561 43.6183C47.9904 43.5688 48.112 43.7362 48.1613 43.8816C48.3557 44.4547 47.922 45.4476 47.6918 46.2504C47.5048 46.9023 46.8589 47.2664 46.5318 47.6171C46.1235 48.0548 45.6014 48.6429 45.2507 49.1396C44.9616 49.5492 44.7065 49.8053 44.6093 49.9381C44.5733 49.9872 44.7036 50.0468 44.8127 50.0595C45.3631 50.1235 45.9364 49.6625 46.2997 49.4203C46.3855 49.3631 46.4208 49.252 46.3617 49.2506C45.8095 49.237 45.5535 49.8293 45.1061 50.1553C44.7009 50.4505 44.2728 50.7952 43.8609 51.0501C43.467 51.2939 43.04 51.5451 42.3634 52.0763C42.073 52.3042 41.7818 52.3682 41.5287 52.3805C40.9688 52.4078 40.5018 52.1514 39.7904 52.0665C38.1669 51.8729 37.5778 51.8381 36.9001 51.3913C36.2425 50.9579 35.5965 50.582 35.074 50.2303C34.602 49.9126 34.2404 49.59 33.8532 49.2876C33.4017 48.935 33.0076 48.5022 32.6203 48.2839C32.5232 48.2353 32.4274 48.1874 32.3303 48.1269C32.2331 48.0663 32.1374 47.9945 31.8212 47.7755" stroke="black" stroke-width="15" stroke-linecap="round"/>
<path d="M25.3669 46.9778C25.1754 46.8095 24.4038 46.328 23.7616 45.9397C23.1317 45.5587 22.7344 45.2141 22.2025 44.792C21.5285 44.2573 21.0186 44.0059 20.2209 43.4867C19.6967 43.1455 18.8691 42.6295 16.5162 40.8807C15.6184 40.2134 14.8312 39.6562 14.1408 38.8345C13.6162 38.2102 13.1618 37.746 12.8101 37.3461C12.4817 36.9726 12.0972 36.5857 11.6624 35.9812C11.1538 35.2741 10.9115 34.4572 10.8633 34.3477C10.7983 34.2003 10.8143 34.8169 10.7907 35.0588C10.7822 35.1466 10.6236 35.1092 10.526 35.0251C10.3112 34.8397 10.2109 34.434 10.1261 34.0598C10.0909 33.9044 10.1609 33.8053 10.2454 33.7799C10.4421 33.7208 10.6685 33.9235 10.8854 33.9126C11.3017 33.8917 11.4177 33.3201 11.6109 33.3437C12.0585 33.3983 11.8289 34.2607 11.9862 34.744C12.2027 35.4089 13.0095 36.0708 13.4965 36.618C13.9567 37.1351 14.4628 37.5009 15.4878 38.2119C15.9159 38.5088 16.1801 38.7337 16.2533 38.8189C16.8901 39.5598 14.3729 36.709 13.6814 36.222C12.9931 35.7373 12.1726 35.0642 11.4938 34.6509C11.0863 34.4027 10.8876 34.0221 10.815 33.781C10.7452 33.5489 10.8382 33.3208 10.9227 33.2476C11.2895 32.9296 10.8876 34.3564 10.7186 34.6973C10.6587 34.8181 10.4771 34.1693 10.3321 33.8771C9.84964 32.905 10.3553 35.685 10.4274 36.3391C10.4462 36.5095 10.4756 36.7003 10.488 36.7151C11.0663 37.4125 10.0898 34.5537 10.0771 34.4685C9.96624 33.7238 11.9884 37.3646 12.2662 37.9625C12.485 38.4335 11.7825 36.9729 11.4082 36.404C11.321 36.2713 11.2748 36.1506 11.2143 36.0411C10.893 35.4601 13.082 38.9709 13.7474 39.757C14.2448 40.3447 12.702 37.1673 12.3873 36.2971C12.2805 36.0017 12.0754 35.6241 12.1683 35.9414C12.5692 37.3118 13.206 38.683 13.388 39.1308C13.5803 39.6039 12.5091 38.1333 12.0733 37.4683C11.5217 36.6267 10.9361 36.1491 10.8393 36.0639C10.3974 35.6749 11.7767 38.0738 12.3702 39.1032C12.4911 39.3128 11.4003 37.775 10.6381 36.6992C10.3977 36.3599 10.5699 36.3652 11.649 37.1912C12.7281 38.0172 14.7384 39.6446 15.8577 40.5308C16.977 41.417 17.1446 41.5127 17.171 41.5022C17.3198 41.4431 16.8588 41.0812 16.1035 39.9658C14.2721 37.2613 13.0856 35.5436 13.3746 35.6995C14.5101 36.3121 15.4012 38.3378 15.7823 39.0485C16.02 39.4917 14.3526 37.3196 13.1505 35.4406C12.8936 35.039 12.7731 34.8438 12.7006 34.6389C12.6632 34.5334 12.6759 34.4101 12.7477 34.3963C12.974 34.3529 13.5657 35.0555 14.5059 36.1277C16.2274 38.0908 16.2047 38.5162 16.2174 38.6014C16.3003 39.1582 15.362 37.5052 14.2768 36.0222C13.8961 35.502 13.3155 34.9511 13.0918 34.715C12.9844 34.6017 13.5657 35.3442 14.4581 36.5143C15.253 37.5566 16.5593 38.7511 17.8763 39.9354C18.3494 40.3608 18.4514 40.4017 18.3332 40.211C17.3761 38.6667 15.9683 37.7953 15.1325 37.3102C14.9256 37.1901 14.7108 37.0455 14.6357 37.0313C14.532 37.0118 15.4962 38.0499 17.1834 39.6293C18.0561 40.4463 19.062 41.1849 19.1606 41.1845C20.2262 41.1806 17.3679 39.4132 16.6942 38.8962C14.8199 37.4577 14.6586 37.0194 14.6579 36.8982C14.6567 36.7062 16.1452 38.023 18.0532 39.8219C18.8277 40.552 19.1476 40.9746 19.2484 41.0884C18.6269 40.1196 16.9147 37.7293 16.9618 37.4392C17.8466 38.1304 20.479 40.5235 23.4088 43.1342" stroke="black" stroke-linecap="round"/>
<path d="M13.0386 37.9128C13.2547 37.9367 13.7377 38.0811 14.1369 38.3588C14.6717 38.7309 15.1155 39.1689 15.5746 39.4586C16.2985 39.9154 16.711 40.1595 17.0982 40.4379C17.4978 40.7253 18.3035 41.1008 19.1756 41.5373C19.8373 41.8686 20.1919 42.2625 20.6274 42.6251C21.0093 42.9431 21.3522 43.2778 21.6913 43.6404C22.2047 44.1895 22.923 44.7282 23.5753 45.151C24.2799 45.6077 24.7367 45.7442 24.9307 45.841C25.7761 46.2629 22.1355 44.0567 21.1996 43.7271C20.6646 43.5387 20.028 43.2807 19.4345 43.0142C19.3045 42.9559 19.181 42.9413 19.239 43.0008C19.7838 43.5592 21.126 44.4077 22.1496 45.2112C23.244 46.0702 25.0972 47.4579 25.6189 47.8709C26.1695 48.3067 26.6215 48.6196 27.0454 48.8745C27.6055 49.2113 28.5056 49.2984 29.2199 49.0819C29.9068 48.8738 30.2722 48.5747 30.9365 47.7788C31.1699 47.4991 31.1685 47.1729 31.1087 46.7396C31.0198 46.0956 30.1837 44.692 29.217 43.0487C28.8163 42.3675 28.7754 42.1443 28.7993 41.8912C28.8524 41.3301 29.1365 40.9122 29.3309 40.4169C29.5747 39.7955 29.3802 39.2689 29.1873 38.8088C29.0075 38.3799 28.391 38.3726 27.9791 38.1916C27.5365 37.9972 27.1335 37.7446 26.7938 37.647C26.792 37.6465 26.9116 37.6706 27.0211 37.7188C27.7184 38.0259 27.6629 39.6736 27.6158 40.4488C27.6083 40.5712 27.4004 40.5003 27.2905 40.4278C27.1807 40.3553 27.1089 40.2595 27.0719 40.1145C27.0349 39.9695 27.0349 39.778 27.0708 39.6315C27.1067 39.485 27.1785 39.3893 27.2753 39.3759C27.7785 39.3062 28.4331 39.6286 28.9911 39.6294C29.5425 39.6301 30.629 39.2443 31.9242 38.9897C34.1347 38.5553 34.7684 37.9868 35.5164 37.2873C35.9294 36.9012 37.369 36.0345 39.4931 34.8271C42.1147 33.732 43.1807 33.3694 43.4947 33.1403C43.6173 33.0308 43.6651 32.9351 43.7144 32.8364" stroke="black" stroke-width="5" stroke-linecap="round"/>
<path d="M55.6076 19.4928C55.5604 19.6124 55.2218 19.9032 55.1485 19.9399C54.7288 20.1497 55.9441 19.4696 56.2236 19.2759C56.3568 19.1837 55.8505 19.1063 55.6094 19.1298C54.996 19.1898 54.7635 19.9265 54.4364 20.2651C54.1263 20.5862 53.6757 20.7967 53.4563 21.1354C53.4146 21.1998 53.5988 21.2565 53.7083 21.2452C53.9285 21.2226 54.1079 21.0164 54.2051 20.9435C54.5325 20.6979 53.506 21.6423 53.2278 22.0654C52.8132 22.6964 52.5385 23.068 52.4167 23.3962C52.2185 23.93 53.1898 22.2978 53.2144 22.1169C53.2264 22.0294 53.0955 21.9599 52.9744 21.9588C52.7004 21.9564 52.466 22.2232 52.333 22.4643C52.0065 23.0558 52.2963 24.0108 52.1393 24.5068C51.9717 25.0364 51.9337 25.5337 51.8971 27.6429C51.8829 28.462 51.7887 28.9421 51.6799 29.4142C51.4747 29.8138 51.3528 30.1278 51.3293 30.3211C51.2818 30.3947 51.1621 30.4186 50.8938 30.4433" stroke="black" stroke-width="5" stroke-linecap="round"/>
<path d="M50.3137 29.6456C50.2897 29.6456 50.2658 29.6456 50.1936 29.6575C50.1215 29.6695 50.0018 29.6934 49.806 29.7181" stroke="black" stroke-width="5" stroke-linecap="round"/>
<path d="M12.2606 23.0858C12.4528 23.1337 12.7914 23.3027 12.9125 23.3277C13.5139 23.4519 12.6 22.0009 12.3222 21.5763C12.2564 21.4757 12.1417 21.4193 12.1402 21.502C12.1343 21.8375 12.357 22.1902 12.3335 22.3595C12.324 22.4276 12.1663 22.3853 12.0688 22.3251C11.649 22.0661 11.5847 21.5636 11.4995 21.4668C11.2407 21.1728 12.4506 22.0198 13.5377 22.9132C14.1572 23.4225 14.6755 23.7603 15.0754 24.0638C15.4899 24.3783 15.6915 24.8488 15.8616 25.0787C16.1718 25.4981 14.7292 24.4666 14.1845 24.1504C13.5289 23.7698 13.0837 23.7146 12.8426 23.6664C12.7211 23.6421 12.6014 23.6181 12.6953 23.7733C13.33 24.8221 13.8778 25.1381 14.2777 25.4297C14.6443 25.6969 14.8466 25.9373 14.8713 26.0584C14.938 26.386 14.2926 25.5051 14.2302 25.0935C14.216 25 14.4333 24.996 14.5551 25.0076C15.0344 25.0533 15.5689 25.6458 16.1023 26.1179C16.5723 26.5339 17.0208 26.8554 17.3841 27.218C17.7308 27.564 17.9403 28.0636 18.134 28.511C18.3103 28.9185 18.5205 29.2964 18.6666 29.6239C18.8662 30.0711 17.7982 29.2036 17.4831 28.8163C17.1564 28.4149 16.8786 28.0904 16.7934 28.0175C16.4606 27.7329 17.4806 28.7163 17.8312 29.1035C18.1591 29.4657 18.5437 29.8041 19.1837 30.4919C19.7816 31.1346 20.0898 31.7128 20.8513 32.4742C21.4691 33.0921 21.9521 33.5751 22.3394 34.0106C22.6921 34.4072 23.1124 34.8079 23.4877 35.135C23.939 35.5283 24.5135 36.1133 24.9621 36.4404C25.1976 36.6121 25.4099 36.7674 25.4951 36.8519C25.7772 37.1316 24.5672 36.5281 24.0349 35.9722C23.6315 35.551 22.6382 34.6716 21.9558 34.098C21.4829 33.7005 21.0137 33.4097 20.5416 33.1429C20.0403 32.8595 19.5633 32.3466 19.2116 31.9586C18.9118 31.6279 18.4509 31.4271 18.0636 31.1366C17.6935 30.859 17.5313 30.4364 17.3497 30.0372C17.1537 29.6065 17.4095 29.0832 17.4932 28.7206C17.6168 28.186 18.519 28.8381 18.9911 29.0557C19.4653 29.2742 19.6562 29.8041 19.9586 30.1794C20.2594 30.5527 20.6468 30.844 21.1062 31.2668C21.6043 31.7252 22.0972 32.1494 22.5446 32.5C22.6538 32.5856 22.7498 32.657 22.7274 32.6581C21.791 32.7034 20.8455 30.6569 20.336 29.9411C20.0296 29.5106 19.4444 28.5089 18.8976 27.7409C18.5764 27.2897 18.2319 26.9062 18.2192 26.7731C18.1794 26.3562 18.9556 27.3384 19.2812 27.8094C19.8799 28.6754 20.261 29.0789 20.5989 29.4781C20.9622 29.9498 21.2037 30.3842 21.5536 30.7715C21.6628 30.8687 21.7824 30.9644 22.0508 31.208" stroke="black" stroke-width="4" stroke-linecap="round"/>
<path d="M15.3064 10.83C15.4268 10.9257 15.6675 11.3115 15.8739 11.7107C16.0883 12.1257 16.152 12.4486 16.2245 12.5099C16.3799 12.6412 16.2252 11.9917 16.2488 11.7622C16.2588 11.6645 16.4159 11.6523 16.5255 11.6639C16.9523 11.7092 17.2151 12.0135 17.2884 12.1585C17.3128 12.2069 17.1223 12.2078 17.1082 12.2198C17.0231 12.2918 17.4087 12.3761 17.5415 12.5929C17.6908 12.837 17.7235 13.1252 17.7358 13.3544C17.7417 13.4643 17.6763 13.5596 17.5919 13.6089C17.1851 13.8464 16.7097 13.4893 16.5284 13.5248C16.4443 13.5413 16.4667 13.7278 16.5026 13.8616C16.574 14.1276 16.78 14.3102 16.9729 14.4429C17.1554 14.5684 17.408 14.6249 17.7333 14.5535C18.2257 14.4453 18.4958 14.0448 18.7612 14.1049C18.8852 14.1331 18.9788 14.1891 19.0401 14.2855C19.1767 14.5005 19.1499 14.7932 19.1021 14.9984C19.0046 15.4163 18.3058 15.5176 17.8464 15.6645C17.3539 15.8219 16.8554 15.3994 16.6252 15.3026C16.341 15.1831 17.3108 15.6148 17.8185 16.0739C18.1825 16.4031 18.6641 16.6779 19.0277 17.0652C19.416 17.4786 19.8012 17.7657 20.212 18.153C20.5753 18.4955 20.8643 18.9261 21.2033 19.3253C21.597 19.7889 21.9521 20.111 22.3154 20.4736C22.6952 20.8527 23.0646 21.3917 23.367 21.779C23.6886 22.1909 24.0552 22.5999 24.3703 23.0238C24.7085 23.4788 25.0705 23.9299 25.4457 24.5579C25.7183 25.014 26.0379 25.3803 26.3283 25.7676C26.6276 26.1666 26.9806 26.5406 27.283 26.9279C27.6047 27.3398 27.9234 27.7488 28.286 28.2209C28.6053 28.6367 28.9619 29.0542 29.3016 29.4661C29.7477 30.0069 30.8198 31.0572 31.4043 31.5093C31.4949 31.5794 31.5972 31.6417 31.5987 31.6188C31.6292 31.1383 30.8285 30.7033 30.38 30.3269C29.9441 29.9612 29.5464 29.5908 29.2193 29.1187C28.9164 28.6815 28.5311 28.2855 28.3237 27.9334C28.0553 27.4778 29.8524 28.7133 30.5573 29.2844C31.3817 29.9524 32.2224 30.3349 32.8301 30.6993C33.4353 31.0622 33.9657 31.1108 34.4977 31.2678C34.6638 31.3169 34.8824 31.3284 35.0173 31.2929C35.1522 31.2573 35.2 31.1616 35.2007 31.0525C35.2038 30.5871 34.6706 30.435 34.4411 30.3026C34.0421 30.0725 34.2834 29.5408 34.1982 29.444C33.934 29.1438 36.0354 29.5401 37.0239 29.3718C37.813 29.2375 38.3169 28.7191 38.813 28.4773C39.2989 28.2404 39.7673 28.2347 40.5868 28.4751C42.4286 29.0154 42.9582 28.9584 43.4303 29.1165C43.5397 29.1532 43.6355 29.2007 43.613 29.2014C43.5906 29.2021 43.447 29.1543 43.3132 29.1057C43.1794 29.0571 43.0597 29.0092 42.9364 28.9599" stroke="black" stroke-width="4" stroke-linecap="round"/>
<path d="M24.4438 8.58189C24.7325 8.62975 25.1197 8.77479 25.2648 8.72766C25.3666 8.69457 25.3141 8.39334 25.3619 8.24612C25.4098 8.09891 25.5055 8.05105 25.6027 8.08622C26.0775 8.25806 26.135 8.84586 26.1963 9.42566C26.2245 9.69237 26.2568 10.1019 26.185 10.5251C26.1593 10.6767 25.9697 10.6371 25.8359 10.6008C25.7021 10.5646 25.5824 10.5167 25.5806 10.504C25.5306 10.1539 26.3033 11.1404 26.6426 11.7836C26.9063 12.2833 26.4991 10.5907 26.5821 10.1063C26.6381 9.77959 27.2467 10.0801 27.4759 10.1886C27.6966 10.293 27.8276 10.4906 27.9241 10.6835C28.0205 10.8764 28.0698 11.4537 27.998 12.1669C27.9735 12.411 27.7827 12.3776 27.6608 12.3413C27.539 12.3051 27.4433 12.2572 27.394 12.3043C27.0609 12.6226 27.7304 13.197 28.0082 13.5723C28.2862 13.9479 28.8168 14.0441 29.2889 14.2979C29.8075 14.5767 30.4369 14.9143 30.7038 15.2523C31.0226 15.656 31.236 15.9535 31.2248 16.1348C31.2195 16.2201 30.9982 16.1965 30.8042 16.0888C29.914 15.5946 29.8118 14.6765 29.6537 14.1677C29.4936 13.6526 29.1837 13.1767 28.9644 12.969C27.8347 11.899 30.244 16.3154 30.6066 16.9431C31.0079 17.6378 31.2346 18.1995 31.4895 18.7448C31.7532 19.309 31.9366 19.7963 32.2024 20.1836C32.2711 20.2838 32.3471 20.3765 32.2644 20.1626C31.62 18.4952 31.0199 17.5772 30.8985 17.0685C30.8414 16.8293 30.682 16.4648 30.5243 16.1261C30.4819 16.0352 30.6298 16.0746 30.7632 16.1711C31.3114 16.5673 31.764 17.3756 32.1541 17.9475C32.4895 18.4389 32.9026 18.9015 33.2416 19.3253C33.6215 19.8003 33.9425 20.1589 34.2569 20.5582C34.675 21.0891 35.2464 21.7283 35.5506 22.2142C35.8214 22.6466 36.1188 23.0119 36.1558 23.2055C36.2381 23.6362 35.0129 22.175 34.5854 21.4919C34.4613 21.2936 34.0919 20.9132 33.7166 20.49C33.6091 20.3688 33.7481 20.378 33.9294 20.5099C34.8694 21.1942 35.1753 21.9719 35.7185 22.5517C36.1714 23.0351 36.6721 23.6384 37.1573 24.1838C37.63 24.7152 38.0268 25.1382 38.4869 25.7306C38.8111 26.148 39.1871 26.5885 39.599 27.2293C39.9003 27.698 40.8754 28.4218 41.3769 28.899C42.1119 29.5985 39.3351 27.1963 39.3224 27.0393C39.276 26.4653 40.71 26.9773 41.2543 27.2304C41.398 27.2972 41.5077 27.4109 41.4737 27.4363C40.5671 28.1114 38.8303 26.1331 38.1885 25.7343C37.7508 25.4622 37.4017 25.2861 37.2327 25.2734C36.7791 25.2393 37.1102 26.226 37.2309 26.6981C37.2791 26.8076 37.3509 26.9033 37.3999 27.0124C37.4488 27.1216 37.4727 27.2412 37.5699 27.3645" stroke="black" stroke-width="4" stroke-linecap="round"/>
</svg>
