<svg xmlns="http://www.w3.org/2000/svg" width="1637" height="1166" fill="none" viewBox="0 0 1637 1166"><path stroke="#1e1e1e" stroke-linecap="round" stroke-width="71" d="M202.669 197.412c-.423 3.824-2.13 15.758-4.696 31.17-1.907 11.448-1.72 35.801-1.932 65.296-.081 11.288-.635 15.097.629 79.098 1.264 64 4.228 188.075 5.967 253.686s2.162 68.999 2.38 76.037c.547 17.618.642 31.073 1.284 46.991 1.511 37.486.641 64.502 1.283 71.944 2.262 26.242 1.501 41.692 2.778 57.963 1.29 21.764 2.137 50.046 2.785 68.216.211 4.106.635 6.647 2.354 10.548"/><path stroke="#1e1e1e" stroke-linecap="round" stroke-width="71" d="M218.068 188.43c3.824-2.541 12.37-10.241 50.616-24.093 24.574-8.9 70.802-13.814 149.194-18.594s188.492-6.05 319.105-5.858c130.612.193 278.397 1.887 356.227 2.971s81.22 1.508 89.1 1.726c20.16.558 36.63.642 58.07 1.495 48.94 1.947 83.37 1.713 88.28 2.566 12.69 2.21 29.65 16.15 41.5 31.824 8.6 11.39 12.61 25.44 26.07 83.204 9.35 40.105 3.68 50.463 6.02 60.53 2.02 8.68 3.21 21.551 4.29 45.503.64 14.199 4.46 44.752 6.42 74.85 1.5 23.168 2.35 34.242 4.48 56.673 2.01 21.16 1.72 40.807 3.85 75.64 3.08 50.311 1.72 63.179 3.85 83.499 1.41 13.472 1.72 24.618 2.79 38.721 1.48 19.664 1.5 46.054.43 64.18-.47 8.067-4.03 34.05-10.86 69.307-6.38 32.93-19.26 49.153-28.67 60.734-6.14 7.544-13.27 13.263-19.9 20.115-3.68 3.806-18.09 12.781-39.86 26.235-34.17 21.11-64.69 24.683-78.17 27.461-7.38 1.522-35.1 5.319-72.3 11.517-16.13 2.687-25 4.953-36.32 6.237-8.31.942-15.65.859-80.29 1.924-60.82 1.003-178.547 1.489-241.098 2.137-62.55.648-66.361 1.071-108.342 3.619s-122.015 7.205-164.515 9.817c-50.646 3.11-60.876 4.32-83.287 4.97-11.869.34-22.065 1.91-86.451 2.14-20.81.07-32.703-3.2-44.906-5.34-12.619-2.21-20.75-5.563-30.38-7.487-9.831-1.965-28.353-5.339-49.584-10.472-14.379-1.719-24.606-5.132-35.321-6.217-2.579-.212-5.12-.635-12.87-2.354"/><path stroke="#1e1e1e" stroke-linecap="round" stroke-width="71" d="M225.767 352.682c4.26 2.553 20.403 17.836 32.055 28.635 3.763 3.487 11.934 12.787 23.047 24.111 6.296 6.417 23.021 24.94 48.871 51.862 15.683 16.333 29.405 29.193 52.387 50.7 14.913 13.955 38.228 32.093 55.724 46.985 29.357 24.986 50.027 43.584 64.989 55.339 11.647 9.149 23.97 21.596 37.9 32.76 19.141 15.342 26.749 22.251 34.037 28.892 6.627 6.038 17.914 15.148 28.013 22.245 7.7 5.41 18.132 16.412 31.612 28.192 29.7 25.954 43.803 41.653 54.582 53.074 8.193 8.681 30.771-9.137 69.377-32.812 21.235-13.023 37.053-26.755 66.426-47.409 18.988-13.351 47.158-31.24 76.165-50.995s58.226-40.505 75.608-53.523c22.612-16.936 29.38-24.169 49.32-40.922 17.62-14.802 49.58-43.43 67.43-58.893 25.01-21.662 35.79-28.706 44.58-36.411 10.57-9.264 29.25-26.48 41.05-36.989 13.87-12.343 22.9-20.314 35.28-32.716 8.26-8.259 17.98-12.851 34.63-25.44 15.63-11.807 29.08-25.857 39.39-33.825 10.93-8.445 24.36-20.724 32.93-27.795 10.72-10.92 14.99-15.206 18.41-17.125 1.72-1.071 3.41-2.341 9-7.5"/></svg>