<svg width="1637" height="1166" viewBox="0 0 1637 1166" fill="none" xmlns="http://www.w3.org/2000/svg">
<path d="M202.669 197.412C202.246 201.236 200.539 213.17 197.973 228.582C196.066 240.03 196.253 264.383 196.041 293.878C195.96 305.166 195.406 308.975 196.67 372.976C197.934 436.976 200.898 561.051 202.637 626.662C204.376 692.273 204.799 695.661 205.017 702.699C205.564 720.317 205.659 733.772 206.301 749.69C207.812 787.176 206.942 814.192 207.584 821.634C209.846 847.876 209.085 863.326 210.362 879.597C211.652 901.361 212.499 929.643 213.147 947.813C213.358 951.919 213.782 954.46 215.501 958.361" stroke="#1E1E1E" stroke-width="71" stroke-linecap="round"/>
<path d="M218.068 188.43C221.892 185.889 230.438 178.189 268.684 164.337C293.258 155.437 339.486 150.523 417.878 145.743C496.27 140.963 606.37 139.693 736.983 139.885C867.595 140.078 1015.38 141.772 1093.21 142.856C1171.04 143.94 1174.43 144.364 1182.31 144.582C1202.47 145.14 1218.94 145.224 1240.38 146.077C1289.32 148.024 1323.75 147.79 1328.66 148.643C1341.35 150.853 1358.31 164.793 1370.16 180.467C1378.76 191.857 1382.77 205.907 1396.23 263.671C1405.58 303.776 1399.91 314.134 1402.25 324.201C1404.27 332.881 1405.46 345.752 1406.54 369.704C1407.18 383.903 1411 414.456 1412.96 444.554C1414.46 467.722 1415.31 478.796 1417.44 501.227C1419.45 522.387 1419.16 542.034 1421.29 576.867C1424.37 627.178 1423.01 640.046 1425.14 660.366C1426.55 673.838 1426.86 684.984 1427.93 699.087C1429.41 718.751 1429.43 745.141 1428.36 763.267C1427.89 771.334 1424.33 797.317 1417.5 832.574C1411.12 865.504 1398.24 881.727 1388.83 893.308C1382.69 900.852 1375.56 906.571 1368.93 913.423C1365.25 917.229 1350.84 926.204 1329.07 939.658C1294.9 960.768 1264.38 964.341 1250.9 967.119C1243.52 968.641 1215.8 972.438 1178.6 978.636C1162.47 981.323 1153.6 983.589 1142.28 984.873C1133.97 985.815 1126.63 985.732 1061.99 986.797C1001.17 987.8 883.443 988.286 820.892 988.934C758.342 989.582 754.531 990.005 712.55 992.553C670.569 995.1 590.535 999.758 548.035 1002.37C497.389 1005.48 487.159 1006.69 464.748 1007.34C452.879 1007.68 442.683 1009.25 378.297 1009.48C357.487 1009.55 345.594 1006.28 333.391 1004.14C320.772 1001.93 312.641 998.577 303.011 996.653C293.18 994.688 274.658 991.314 253.427 986.181C239.048 984.462 228.821 981.049 218.106 979.964C215.527 979.752 212.986 979.329 205.236 977.61" stroke="#1E1E1E" stroke-width="71" stroke-linecap="round"/>
<path d="M225.767 352.682C230.027 355.235 246.17 370.518 257.822 381.317C261.585 384.804 269.756 394.104 280.869 405.428C287.165 411.845 303.89 430.368 329.74 457.29C345.423 473.623 359.145 486.483 382.127 507.99C397.04 521.945 420.355 540.083 437.851 554.975C467.208 579.961 487.878 598.559 502.84 610.314C514.487 619.463 526.81 631.91 540.74 643.074C559.881 658.416 567.489 665.325 574.777 671.966C581.404 678.004 592.691 687.114 602.79 694.211C610.49 699.621 620.922 710.623 634.402 722.403C664.102 748.357 678.205 764.056 688.984 775.477C697.177 784.158 719.755 766.34 758.361 742.665C779.596 729.642 795.414 715.91 824.787 695.256C843.775 681.905 871.945 664.016 900.952 644.261C929.96 624.506 959.178 603.756 976.56 590.738C999.172 573.802 1005.94 566.569 1025.88 549.816C1043.5 535.014 1075.46 506.386 1093.31 490.923C1118.32 469.261 1129.1 462.217 1137.89 454.512C1148.46 445.248 1167.14 428.032 1178.94 417.523C1192.81 405.18 1201.84 397.209 1214.22 384.807C1222.48 376.548 1232.2 371.956 1248.85 359.367C1264.48 347.56 1277.93 333.51 1288.24 325.542C1299.17 317.097 1312.6 304.818 1321.17 297.747C1331.89 286.827 1336.16 282.541 1339.58 280.622C1341.3 279.551 1342.99 278.281 1348.58 273.122" stroke="#1E1E1E" stroke-width="71" stroke-linecap="round"/>
</svg>
