<svg width="5158" height="2771" viewBox="0 0 5158 2771" fill="none" xmlns="http://www.w3.org/2000/svg" overflow="visible">
<g transform="rotate(2, 2579, 1385.5)">
<rect x="377.425" y="105" width="4411" height="2504" rx="1" fill="#EDD8C2"/>
<rect x="377.925" y="105.5" width="4410" height="2503" rx="0.5" stroke="#EDD8C2" stroke-opacity="0.87"/>
<path d="M378.425 865L224.925 939.5V2486L378.425 2603.5" stroke="#EDD8C2" stroke-opacity="0.87"/>
<path d="M426.302 1573.41C426.302 1574 426.302 1574.59 426.302 1605.4C426.302 1636.21 426.302 1697.22 421.216 1706.9C416.129 1716.59 405.955 1673.11 398.926 1602.95C391.897 1532.79 388.321 1437.27 386.8 1383.69C385.03 1321.36 387.437 1309.33 390.001 1305.2C391.086 1303.45 394.241 1304.82 413.855 1393.43C433.469 1482.04 470.088 1658.45 480.665 1678.25C491.242 1698.05 474.667 1555.89 459.306 1457.2C443.944 1358.51 430.297 1307.6 420.901 1266.32C411.505 1225.04 406.773 1194.94 403.497 1176.71C400.222 1158.47 398.546 1153.02 394.643 1142.03" stroke="#EDD8C2" stroke-opacity="0.87" stroke-width="182" stroke-linecap="round"/>
<path d="M483.841 986.946C483.738 986.946 483.635 986.946 474.627 986.745C465.62 986.543 447.712 986.141 424.372 982.805C401.033 979.47 372.806 973.213 341.674 966.006" stroke="#EDD8C2" stroke-opacity="0.87" stroke-width="45" stroke-linecap="round"/>
<path d="M403.361 890.32C394.171 890.32 371.127 891.95 341.972 904.159C323.401 911.937 313.965 920.241 301.878 925.941C289.755 931.658 279.5 934.644 268.305 938.528C258.402 942.673 250.396 947.435 243.732 950.787C240.495 952.248 237.554 953.221 230.492 956.127" stroke="#EDD8C2" stroke-opacity="0.87" stroke-width="45" stroke-linecap="round"/>
<path d="M224.39 963.556C224.39 963.459 224.39 963.362 224.527 1043.95C224.664 1124.53 224.938 1285.8 224.628 1377.4C224.318 1469 223.416 1486.03 223.228 1497.23C222.743 1526.23 223.625 1555.19 222.358 1581.75C221.705 1595.44 217.987 1653.84 219.265 1691.26C219.928 1710.66 226.83 1750.92 226.325 1797.02C226.061 1821.2 230.107 1864.23 232.164 1889.79C234.77 1922.16 239.71 1939.47 244.383 1956.73C246.993 1966.37 246.192 2005.8 246.236 2067.19C246.264 2105.27 250.993 2126.88 250.794 2145.9C250.346 2188.81 243.326 2207.46 238.469 2263.67C236.778 2302.33 234.865 2372 233.757 2412.14C232.648 2452.28 232.404 2460.77 232.151 2469.53" stroke="#EDD8C2" stroke-opacity="0.87" stroke-width="45" stroke-linecap="round"/>
<path d="M240.43 2481.74C244.318 2481.74 257.12 2484.33 284.62 2504.33C331.798 2538.64 342.74 2555.59 353.341 2564.3C365.354 2573.84 375.186 2582.2 383.744 2588.98C385.741 2590.63 387.597 2592.27 391.871 2594.7" stroke="#EDD8C2" stroke-opacity="0.87" stroke-width="45" stroke-linecap="round"/>
<path d="M349.295 952.707C348.571 952.538 350.655 951.606 354.554 950.179C358.228 948.425 361.874 946.712 365.454 945.059C367.601 941.955 369.174 939.732 369.999 938.784C373.447 934.824 377.336 931.14 378.467 927.65C378.959 926.134 374.576 925.427 371.452 925.643C340.7 927.762 299.338 965.918 280.127 983.029C278.495 984.619 277.252 985.575 277.476 985.378C278.304 984.65 279.19 983.865 280.127 983.029C299.338 965.918 340.7 927.762 371.452 925.643C374.576 925.427 378.959 926.134 378.467 927.65C377.336 931.14 373.447 934.824 369.999 938.784C369.174 939.732 367.601 941.955 365.454 945.059C394.964 931.432 420.037 921.885 419.861 927.551C419.835 928.419 417.006 929.61 411.028 931.596C397.264 936.167 377.663 942.337 364.231 946.83C363.278 948.214 362.235 949.731 361.114 951.355C340.822 980.753 295.01 1045.18 292.344 988.22C292.241 986.017 302.471 976.685 310.709 972.295C322.548 965.987 335.99 959.148 349.295 952.707Z" fill="#EDD8C2"/>
<path d="M377.228 950.26C372.856 950.26 359.26 951.316 351.651 952.513C337.795 954.692 384.917 940.268 411.028 931.596C417.006 929.61 419.835 928.419 419.861 927.551C420.145 918.394 354.472 948.977 310.709 972.295C302.471 976.685 292.241 986.017 292.344 988.22C295.586 1057.49 362.626 947.255 369.999 938.784C373.447 934.824 377.336 931.14 378.467 927.65C378.959 926.134 374.576 925.427 371.452 925.643C339.199 927.866 295.275 969.729 277.476 985.378C277.008 985.79 282.965 981.149 285.474 976.222C287.34 972.556 272.464 971.307 260.48 969.889C257.985 969.593 255.561 970.481 255.478 973.493C255.238 982.166 264.646 1006.75 272.822 1094.6C279.18 1162.92 278.991 1280.23 280.5 1341.81C282.01 1403.39 282.403 1405.88 282.665 1403.65C282.927 1401.42 283.046 1394.39 291.938 1343.42C300.829 1292.45 318.49 1197.75 328.109 1147.26C337.729 1096.77 338.773 1093.35 340.512 1090.02C342.251 1086.7 344.655 1083.56 347.131 1080.33" stroke="#EDD8C2" stroke-opacity="0.87" stroke-width="45" stroke-linecap="round"/>
<path d="M367.651 959.202C367.081 963.763 359.754 999.883 346.8 1049.77C340.809 1072.84 335.36 1091.18 329.634 1121.86C323.908 1152.53 317.907 1194.93 314.736 1230.19C311.565 1265.45 311.407 1292.27 311.326 1256.28C311.245 1220.28 311.245 1120.65 311.063 1067.98C310.881 1015.31 310.517 1012.62 309.049 1011.03C307.581 1009.44 305.019 1009.04 302.494 1009.35C299.968 1009.66 297.555 1010.71 295.6 1012.35C286.205 1020.28 287.353 1038.12 280.591 1077.58C276.003 1104.35 270.691 1153.18 267.548 1205.74C264.405 1258.3 264.492 1313.25 265.669 1415.41C266.846 1517.56 269.111 1665.25 271.039 1748.45C272.968 1831.64 274.492 1845.86 275.335 1869.1C277.331 1924.14 275.808 1961.7 274.576 1970.69C271.95 1989.85 271.15 2017.34 269.945 2042.51C269.625 2049.19 269.365 2056.18 267.612 2086.88C265.859 2117.57 262.715 2171.77 260.931 2209.04C259.147 2246.3 258.819 2265 260.123 2294.84C261.428 2324.68 264.375 2365.09 265.997 2390.23C267.619 2415.37 267.825 2424.01 269.277 2439.99" stroke="#EDD8C2" stroke-opacity="0.87" stroke-width="83" stroke-linecap="round"/>
<path d="M269.277 2439.99C274.753 2439.99 292.523 2442.87 304.251 2449.3C324.319 2460.31 352.597 2482.38 368.837 2496.12C375.663 2501.9 381.016 2514.59 386.789 2523.84C390.412 2529.65 379.577 2506.56 371.167 2446.6C363.449 2391.57 352.288 2286.12 346.368 2178.23C340.448 2070.35 341.018 1963.1 344.013 1886.56C347.008 1810.02 352.41 1767.44 355.2 1743.9C358.363 1717.22 357.648 1698.01 356.229 1670.28C354.054 1627.8 333.037 1597.43 330.776 1595.46C330.023 1594.81 329.171 1598.28 325.852 1712.56C322.532 1826.84 316.54 2052.7 313.964 2181.21C311.387 2309.71 312.409 2334.01 313.107 2347.81C315.237 2369.44 317.404 2377.73 318.884 2383.82C319.68 2386.97 320.569 2390.25 323.116 2396.21" stroke="#EDD8C2" stroke-opacity="0.87" stroke-width="83" stroke-linecap="round"/>
<path d="M397.155 945.682C394.878 946.115 392.562 946.559 390.219 947.011C387.87 952.096 384.79 960.031 380.693 970.693C373.575 989.211 363.401 1015.93 353.101 1042.96C353.807 1048.09 353.907 1066.28 354.208 1128.13C354.608 1210.15 354.818 1370.2 354.21 1458.59C353.602 1546.98 352.169 1558.86 351.13 1566.31C350.091 1573.76 349.487 1576.42 348.336 1572.29C347.184 1568.17 345.503 1557.17 341.472 1491.13C337.441 1425.09 331.112 1304.35 334.192 1311.7C337.273 1319.06 349.955 1458.17 352.882 1462.85C355.809 1467.52 348.595 1333.53 344.575 1263.45C340.555 1193.37 339.946 1191.25 338.32 1188.89C332.183 1179.99 325.006 1170.18 318.362 1161.66C317.752 1165.07 317.161 1168.44 316.596 1171.75C315.059 1189.99 313.593 1206.91 312.47 1219.3C309.394 1253.22 309.068 1251.02 308.893 1244.05C308.717 1237.07 308.702 1225.37 312.125 1200.42C313.274 1192.04 314.811 1182.2 316.596 1171.75C316.906 1168.07 317.218 1164.35 317.531 1160.59C315.215 1157.64 312.974 1154.86 310.875 1152.35C307.191 1161.2 306.216 1162.53 305.393 1162.91C303.632 1163.73 302.887 1157.5 303.861 1144.41C304.283 1138.73 305.029 1131.75 306.155 1123.5C312.827 1074.62 323.79 1042.98 325.311 1041.71C326.055 1041.09 326.407 1045.87 323.804 1081.63C322.877 1094.37 321.563 1111.19 320.116 1129.1C321.215 1126.27 322.403 1123.21 323.686 1119.88C325.834 1114.32 328.235 1108.07 330.814 1101.34C341.038 1059.18 349.804 1041.31 352.19 1041.04C352.577 1041 352.871 1041.29 353.101 1042.96C363.401 1015.93 373.575 989.211 380.693 970.693C384.79 960.031 387.87 952.096 390.219 947.011C394.096 938.618 395.979 937.99 397.155 945.682C404.346 944.313 411.152 943.052 417.239 941.981C445.466 937.018 456.905 936.438 463.666 937.261C470.427 938.083 472.164 940.326 473.022 947.32C473.88 954.314 473.806 965.992 466.947 994.901C460.088 1023.81 446.446 1069.59 436.591 1098.83C422.728 1139.96 414.057 1152.66 411.274 1155.61C409.869 1157.1 407.777 1157.81 406.431 1157.06C405.086 1156.31 404.369 1153.87 403.182 1115.42C401.995 1076.96 400.358 1002.57 398.664 965.958C398.232 956.632 397.8 949.904 397.155 945.682Z" fill="#EDD8C2"/>
<path d="M349.692 966.697C349.383 966.697 325.758 966.697 294.083 966.432C285.87 966.364 293.633 965.637 319.476 960.828C345.319 956.018 389.011 946.945 417.239 941.981C445.466 937.018 456.905 936.438 463.666 937.261C470.427 938.083 472.164 940.326 473.022 947.32C473.88 954.314 473.806 965.992 466.947 994.901C460.088 1023.81 446.446 1069.59 436.591 1098.83C422.728 1139.96 414.057 1152.66 411.274 1155.61C409.869 1157.1 407.777 1157.81 406.431 1157.06C405.086 1156.31 404.369 1153.87 403.182 1115.42C401.995 1076.96 400.358 1002.57 398.664 965.958C396.969 929.346 395.267 932.772 380.693 970.693C366.118 1008.61 338.723 1080.93 323.686 1119.88C308.649 1158.84 306.799 1162.25 305.393 1162.91C302.868 1164.09 302.432 1150.77 306.155 1123.5C312.827 1074.62 323.79 1042.98 325.311 1041.71C326.055 1041.09 326.407 1045.87 323.804 1081.63C321.201 1117.4 315.545 1185.38 312.47 1219.3C309.394 1253.22 309.068 1251.02 308.893 1244.05C308.717 1237.07 308.702 1225.37 312.125 1200.42C315.547 1175.46 322.409 1137.59 329.031 1108.88C340.006 1061.3 349.667 1041.32 352.19 1041.04C353.763 1040.87 353.809 1046.11 354.208 1128.13C354.608 1210.15 354.818 1370.2 354.21 1458.59C353.602 1546.98 352.169 1558.86 351.13 1566.31C350.091 1573.76 349.487 1576.42 348.336 1572.29C347.184 1568.17 345.503 1557.17 341.472 1491.13C337.441 1425.09 331.112 1304.35 334.192 1311.7C337.273 1319.06 349.955 1458.17 352.882 1462.85C355.809 1467.52 348.595 1333.53 344.575 1263.45C340.555 1193.37 339.946 1191.25 338.32 1188.89C322.822 1166.41 300.686 1138.13 297.272 1139.49C295.597 1140.16 295.404 1142.97 290.075 1169.05C284.746 1195.12 274.637 1244.93 270.423 1335.88C266.209 1426.83 268.198 1557.41 270.049 1639.59C271.901 1721.77 273.556 1751.58 275.905 1782.57" stroke="#EDD8C2" stroke-opacity="0.87" stroke-width="83" stroke-linecap="round"/>
<path d="M331.869 2236.9C331.803 2198.94 331.77 2147.71 331.763 2093.78C317.042 2034.09 301.379 1970.99 291.597 1929.46C275.434 1860.84 275.324 1851.36 276.693 1840.34C278.062 1829.33 280.847 1817.14 282.778 1808.13C287.69 1785.22 276.928 1731.65 297.654 1722.17C298.984 1721.56 300.959 1722.23 311.888 1731.42C364.487 1775.64 377.787 1776.56 386.226 1783.94C387.957 1785.45 388.466 1788.23 392.154 1874.42C395.842 1960.61 402.507 2125.23 399.541 2118.79C396.575 2112.35 384.349 1940.07 378.154 1851.58C371.959 1763.1 371.799 1758.56 365.124 1856.42C360.241 1928.02 352.079 2051.28 345.462 2149.55C349.888 2167.67 353.971 2184.54 357.467 2199.27C374.964 2272.99 376.771 2289.07 377.735 2299.04C378.699 2309.01 378.765 2312.37 379.11 2335.58C379.456 2358.8 380.081 2401.77 379.449 2423.31C378.817 2444.84 376.91 2443.64 361.604 2409.8C346.299 2375.96 317.653 2309.52 301.672 2271.21C285.691 2232.89 283.244 2224.71 282.226 2222.41C281.208 2220.11 281.693 2223.94 287.419 2247.87C289.94 2258.4 293.476 2272.82 297.056 2287.06C303.073 2305.14 313.345 2347.31 308.934 2332.24C306.227 2322.99 301.605 2305.16 297.056 2287.06C295.892 2283.57 294.887 2280.97 294.179 2279.86C292.989 2278.01 291.305 2281.94 294.09 2302.75C296.876 2323.57 303.523 2361.8 308.733 2387.31C316.372 2424.72 324.722 2443.59 332.234 2456.86C345.073 2479.55 359.35 2485.34 360.127 2487.94C361.405 2492.2 338.56 2487.39 308.228 2479.44C299.962 2477.27 291.14 2474.87 282.099 2472.36C266.225 2467.95 261.787 2466.07 260.599 2465.21C259.524 2464.43 267.222 2465.21 282.309 2470.27C291.985 2473.52 300.589 2476.58 308.228 2479.44C338.56 2487.39 361.405 2492.2 360.127 2487.94C359.35 2485.34 345.073 2479.55 332.234 2456.86C324.722 2443.59 316.372 2424.72 308.733 2387.31C303.523 2361.8 296.876 2323.57 294.09 2302.75C291.305 2281.94 292.989 2278.01 294.179 2279.86C294.887 2280.97 295.892 2283.57 297.056 2287.06C293.476 2272.82 289.94 2258.4 287.419 2247.87C281.693 2223.94 281.208 2220.11 282.226 2222.41C283.244 2224.71 285.691 2232.89 301.672 2271.21C317.653 2309.52 346.299 2375.96 361.604 2409.8C376.91 2443.64 378.817 2444.84 379.449 2423.31C380.081 2401.77 379.456 2358.8 379.11 2335.58C378.765 2312.37 378.699 2309.01 377.735 2299.04C376.771 2289.07 374.964 2272.99 357.467 2199.27C353.971 2184.54 349.888 2167.67 345.462 2149.55C343.035 2185.58 340.817 2218.26 339.044 2243.79C332.439 2338.93 332.04 2334.97 331.869 2236.9Z" fill="#EDD8C2"/>
<path d="M332.349 1766.38C332.17 1766.2 331.992 1766.03 331.872 1859.18C331.753 1952.34 331.698 2138.84 331.869 2236.9C332.04 2334.97 332.439 2338.93 339.044 2243.79C345.65 2148.65 358.45 1954.28 365.124 1856.42C371.799 1758.56 371.959 1763.1 378.154 1851.58C384.349 1940.07 396.575 2112.35 399.541 2118.79C402.507 2125.23 395.842 1960.61 392.154 1874.42C388.466 1788.23 387.957 1785.45 386.226 1783.94C377.787 1776.56 364.487 1775.64 311.888 1731.42C300.959 1722.23 298.984 1721.56 297.654 1722.17C276.928 1731.65 287.69 1785.22 282.778 1808.13C280.847 1817.14 278.062 1829.33 276.693 1840.34C275.324 1851.36 275.434 1860.84 291.597 1929.46C307.759 1998.08 339.97 2125.56 357.467 2199.27C374.964 2272.99 376.771 2289.07 377.735 2299.04C378.699 2309.01 378.765 2312.37 379.11 2335.58C379.456 2358.8 380.081 2401.77 379.449 2423.31C378.817 2444.84 376.91 2443.64 361.604 2409.8C346.299 2375.96 317.653 2309.52 301.672 2271.21C285.691 2232.89 283.244 2224.71 282.226 2222.41C281.208 2220.11 281.693 2223.94 287.419 2247.87C293.144 2271.79 304.095 2315.7 308.934 2332.24C314.199 2350.22 298.548 2286.68 294.179 2279.86C292.989 2278.01 291.305 2281.94 294.09 2302.75C296.876 2323.57 303.523 2361.8 308.733 2387.31C316.372 2424.72 324.722 2443.59 332.234 2456.86C345.073 2479.55 359.35 2485.34 360.127 2487.94C361.753 2493.37 324.317 2484.1 282.099 2472.36C266.225 2467.95 261.787 2466.07 260.599 2465.21C259.524 2464.43 267.222 2465.21 282.309 2470.27C345.009 2491.32 362.721 2504.42 364.318 2506.83C361.961 2509.06 353.567 2509.14 340.431 2506.44C333.443 2504.76 325.802 2502.44 312.461 2497.73" stroke="#EDD8C2" stroke-opacity="0.87" stroke-width="83" stroke-linecap="round"/>
<path d="M312.93 2497.73C315.597 2498.14 325.668 2502.35 368.518 2536.31C376.18 2542.38 373.262 2542.93 370.505 2541.99C347.046 2534.01 316.954 2508.18 310.813 2497.6C309.068 2494.59 310.076 2489.48 310.837 2485.51C311.597 2481.54 313.236 2478.45 325.189 2465.4C337.142 2452.36 359.36 2429.44 378.392 2406.93C397.424 2384.42 412.599 2363 427.053 2338.05C441.508 2313.1 454.783 2285.26 463.575 2261.72C472.366 2238.19 476.272 2219.8 479.577 2190.09C482.882 2160.38 485.469 2119.92 488.133 2078.23" stroke="#EDD8C2" stroke-opacity="0.87" stroke-width="83" stroke-linecap="round"/>
<path d="M404.322 145.488C404.826 145.575 405.433 145.217 406.13 144.699C405.315 141.979 404.374 140.893 403.301 141.372C402.317 141.811 402.692 145.208 404.322 145.488Z" fill="#EDD8C2"/>
<path d="M474.093 181.604C471.001 179.147 459.584 170.005 448.341 161.316C436.74 152.35 425.337 144.424 412.003 142.01C408.655 141.404 405.952 145.768 404.322 145.488C402.692 145.208 402.317 141.811 403.301 141.372C406.943 139.746 409.068 156.158 409.91 193.321C410.528 220.583 412.438 264.883 421.126 349.096C429.814 433.308 445.454 556.085 454.125 642.985C462.795 729.884 464.021 777.185 466.159 810.677C476.733 886.872 485.069 903.548 492.062 912.484C495.43 916.206 498.429 918.279 501.519 920.415" stroke="#EDD8C2" stroke-opacity="0.87" stroke-width="83" stroke-linecap="round"/>
<path d="M422.461 146.602C422.67 146.602 422.88 146.602 526.248 147.772C629.615 148.943 836.135 151.284 984.691 157.321C1133.25 163.357 1217.58 173.018 1267.87 179.607C1318.16 186.195 1331.84 189.418 1348.07 193.483" stroke="#EDD8C2" stroke-opacity="0.87" stroke-width="83" stroke-linecap="round"/>
<path d="M4763.13 107L4916.63 181.5V1728L4763.13 1845.5" stroke="#EDD8C2" stroke-opacity="0.87"/>
<path d="M4715.26 815.412C4715.26 816.001 4715.26 816.591 4715.26 847.399C4715.26 878.208 4715.26 939.217 4720.34 948.904C4725.43 958.591 4735.6 915.107 4742.63 844.948C4749.66 774.789 4753.24 679.274 4754.76 625.69C4756.53 563.365 4754.12 551.335 4751.56 547.198C4750.47 545.448 4747.32 546.824 4727.7 635.431C4708.09 724.039 4671.47 900.453 4660.89 920.253C4650.32 940.053 4666.89 797.894 4682.25 699.203C4697.62 600.513 4711.26 549.6 4720.66 508.321C4730.05 467.042 4734.79 436.94 4738.06 418.706C4741.34 400.471 4743.01 395.017 4746.92 384.029" stroke="#EDD8C2" stroke-opacity="0.87" stroke-width="182" stroke-linecap="round"/>
<path d="M4657.72 228.946C4657.82 228.946 4657.92 228.946 4666.93 228.745C4675.94 228.543 4693.85 228.141 4717.19 224.805C4740.53 221.47 4768.75 215.213 4799.89 208.006" stroke="#EDD8C2" stroke-opacity="0.87" stroke-width="45" stroke-linecap="round"/>
<path d="M4738.2 132.32C4747.39 132.32 4770.43 133.95 4799.59 146.16C4818.16 153.937 4827.59 162.241 4839.68 167.941C4851.8 173.658 4862.06 176.644 4873.25 180.528C4883.16 184.673 4891.16 189.436 4897.83 192.787C4901.06 194.248 4904.01 195.221 4911.07 198.127" stroke="#EDD8C2" stroke-opacity="0.87" stroke-width="45" stroke-linecap="round"/>
<path d="M4917.17 205.556C4917.17 205.459 4917.17 205.362 4917.03 285.948C4916.89 366.533 4916.62 527.803 4916.93 619.399C4917.24 710.995 4918.14 728.031 4918.33 739.234C4918.82 768.23 4917.93 797.189 4919.2 823.754C4919.85 837.436 4923.57 895.837 4922.29 933.264C4921.63 952.655 4914.73 992.916 4915.23 1039.02C4915.5 1063.2 4911.45 1106.23 4909.4 1131.79C4906.79 1164.16 4901.85 1181.47 4897.18 1198.73C4894.57 1208.37 4895.37 1247.8 4895.32 1309.19C4895.3 1347.27 4890.57 1368.88 4890.76 1387.9C4891.21 1430.81 4898.23 1449.46 4903.09 1505.67C4904.78 1544.33 4906.69 1614 4907.8 1654.14C4908.91 1694.28 4909.16 1702.77 4909.41 1711.53" stroke="#EDD8C2" stroke-opacity="0.87" stroke-width="45" stroke-linecap="round"/>
<path d="M4901.13 1723.74C4897.24 1723.74 4884.44 1726.33 4856.94 1746.33C4809.76 1780.64 4798.82 1797.59 4788.22 1806.3C4776.21 1815.84 4766.37 1824.2 4757.81 1830.98C4755.82 1832.63 4753.96 1834.27 4749.69 1836.7" stroke="#EDD8C2" stroke-opacity="0.87" stroke-width="45" stroke-linecap="round"/>
<path d="M4792.26 194.707C4792.99 194.539 4790.9 193.606 4787 192.179C4783.33 190.426 4779.69 188.712 4776.11 187.059C4773.96 183.955 4772.39 181.732 4771.56 180.784C4768.11 176.824 4764.22 173.14 4763.09 169.651C4762.6 168.134 4766.98 167.427 4770.11 167.643C4800.86 169.762 4842.22 207.918 4861.43 225.029C4863.06 226.619 4864.31 227.575 4864.08 227.378C4863.25 226.65 4862.37 225.865 4861.43 225.029C4842.22 207.918 4800.86 169.762 4770.11 167.643C4766.98 167.427 4762.6 168.134 4763.09 169.651C4764.22 173.14 4768.11 176.824 4771.56 180.784C4772.39 181.732 4773.96 183.955 4776.11 187.059C4746.59 173.432 4721.52 163.885 4721.7 169.551C4721.72 170.419 4724.55 171.61 4730.53 173.596C4744.29 178.167 4763.9 184.337 4777.33 188.831C4778.28 190.214 4779.32 191.731 4780.45 193.355C4800.74 222.753 4846.55 287.184 4849.21 230.22C4849.32 228.018 4839.09 218.685 4830.85 214.295C4819.01 207.987 4805.57 201.148 4792.26 194.707Z" fill="#EDD8C2"/>
<path d="M4764.33 192.26C4768.7 192.26 4782.3 193.316 4789.91 194.513C4803.76 196.693 4756.64 182.268 4730.53 173.596C4724.55 171.61 4721.72 170.419 4721.7 169.551C4721.41 160.394 4787.09 190.977 4830.85 214.295C4839.09 218.685 4849.32 228.018 4849.21 230.22C4845.97 299.488 4778.93 189.255 4771.56 180.784C4768.11 176.824 4764.22 173.14 4763.09 169.651C4762.6 168.134 4766.98 167.427 4770.11 167.643C4802.36 169.866 4846.28 211.729 4864.08 227.378C4864.55 227.79 4858.59 223.15 4856.08 218.222C4854.22 214.556 4869.09 213.307 4881.08 211.889C4883.57 211.593 4886 212.481 4886.08 215.493C4886.32 224.166 4876.91 248.75 4868.74 336.603C4862.38 404.92 4862.57 522.232 4861.06 583.81C4859.55 645.387 4859.16 647.881 4858.89 645.65C4858.63 643.42 4858.51 636.391 4849.62 585.421C4840.73 534.452 4823.07 439.755 4813.45 389.262C4803.83 338.77 4802.79 335.352 4801.05 332.024C4799.31 328.696 4796.9 325.561 4794.43 322.332" stroke="#EDD8C2" stroke-opacity="0.87" stroke-width="45" stroke-linecap="round"/>
<path d="M4773.91 201.202C4774.48 205.763 4781.81 241.883 4794.76 291.769C4800.75 314.84 4806.2 333.183 4811.92 363.855C4817.65 394.527 4823.65 436.929 4826.82 472.187C4829.99 507.445 4830.15 534.274 4830.23 498.279C4830.31 462.283 4830.31 362.651 4830.5 309.98C4830.68 257.31 4831.04 254.62 4832.51 253.031C4833.98 251.442 4836.54 251.036 4839.07 251.349C4841.59 251.662 4844 252.706 4845.96 254.355C4855.35 262.28 4854.21 280.124 4860.97 319.583C4865.56 346.354 4870.87 395.179 4874.01 447.739C4877.15 500.298 4877.07 555.251 4875.89 657.406C4874.71 759.56 4872.45 907.252 4870.52 990.446C4868.59 1073.64 4867.07 1087.86 4866.22 1111.1C4864.23 1166.14 4865.75 1203.7 4866.98 1212.69C4869.61 1231.85 4870.41 1259.34 4871.61 1284.51C4871.93 1291.19 4872.19 1298.18 4873.95 1328.88C4875.7 1359.57 4878.84 1413.77 4880.63 1451.04C4882.41 1488.3 4882.74 1507 4881.44 1536.84C4880.13 1566.68 4877.18 1607.09 4875.56 1632.23C4873.94 1657.37 4873.73 1666.01 4872.28 1681.99" stroke="#EDD8C2" stroke-opacity="0.87" stroke-width="83" stroke-linecap="round"/>
<path d="M4872.28 1681.99C4866.81 1681.99 4849.04 1684.87 4837.31 1691.3C4817.24 1702.31 4788.96 1724.38 4772.72 1738.12C4765.9 1743.9 4760.54 1756.59 4754.77 1765.84C4751.15 1771.65 4761.98 1748.56 4770.39 1688.6C4778.11 1633.57 4789.27 1528.12 4795.19 1420.23C4801.11 1312.35 4800.54 1205.1 4797.55 1128.56C4794.55 1052.02 4789.15 1009.44 4786.36 985.904C4783.2 959.219 4783.91 940.011 4785.33 912.276C4787.51 869.798 4808.52 839.426 4810.78 837.465C4811.54 836.812 4812.39 840.282 4815.71 954.562C4819.03 1068.84 4825.02 1294.7 4827.6 1423.21C4830.17 1551.71 4829.15 1576.01 4828.45 1589.81C4826.32 1611.44 4824.15 1619.73 4822.68 1625.82C4821.88 1628.97 4820.99 1632.25 4818.44 1638.21" stroke="#EDD8C2" stroke-opacity="0.87" stroke-width="83" stroke-linecap="round"/>
<path d="M4744.4 187.682C4746.68 188.115 4749 188.559 4751.34 189.011C4753.69 194.096 4756.77 202.031 4760.87 212.693C4767.98 231.211 4778.16 257.93 4788.46 284.961C4787.75 290.091 4787.65 308.278 4787.35 370.13C4786.95 452.152 4786.74 612.202 4787.35 700.591C4787.96 788.979 4789.39 800.857 4790.43 808.306C4791.47 815.756 4792.07 818.418 4793.22 814.292C4794.37 810.166 4796.06 799.17 4800.09 733.132C4804.12 667.094 4810.45 546.348 4807.37 553.703C4804.29 561.058 4791.6 700.174 4788.68 704.846C4785.75 709.517 4792.96 575.53 4796.98 505.447C4801 435.365 4801.61 433.248 4803.24 430.89C4809.38 421.989 4816.55 412.178 4823.2 403.658C4823.81 407.066 4824.4 410.438 4824.96 413.748C4826.5 431.988 4827.97 448.912 4829.09 461.297C4832.17 495.219 4832.49 493.024 4832.67 486.046C4832.84 479.068 4832.86 467.374 4829.43 442.417C4828.29 434.038 4826.75 424.203 4824.96 413.748C4824.65 410.075 4824.34 406.348 4824.03 402.595C4826.34 399.643 4828.59 396.862 4830.68 394.347C4834.37 403.197 4835.34 404.526 4836.17 404.909C4837.93 405.729 4838.67 399.502 4837.7 386.408C4837.28 380.727 4836.53 373.754 4835.4 365.502C4828.73 316.621 4817.77 284.979 4816.25 283.713C4815.5 283.094 4815.15 287.867 4817.76 323.632C4818.68 336.368 4820 353.188 4821.44 371.101C4820.34 368.274 4819.16 365.208 4817.87 361.884C4815.73 356.318 4813.32 350.071 4810.75 343.341C4800.52 301.176 4791.75 283.305 4789.37 283.045C4788.98 283.003 4788.69 283.288 4788.46 284.961C4778.16 257.93 4767.98 231.211 4760.87 212.693C4756.77 202.031 4753.69 194.096 4751.34 189.011C4747.46 180.618 4745.58 179.99 4744.4 187.682C4737.21 186.313 4730.41 185.052 4724.32 183.981C4696.09 179.018 4684.65 178.438 4677.89 179.261C4671.13 180.083 4669.4 182.326 4668.54 189.32C4667.68 196.314 4667.75 207.992 4674.61 236.901C4681.47 265.809 4695.11 311.594 4704.97 340.832C4718.83 381.963 4727.5 394.665 4730.29 397.612C4731.69 399.099 4733.78 399.814 4735.13 399.06C4736.47 398.307 4737.19 395.87 4738.38 357.417C4739.56 318.965 4741.2 244.57 4742.9 207.958C4743.33 198.632 4743.76 191.904 4744.4 187.682Z" fill="#EDD8C2"/>
<path d="M4791.87 208.697C4792.18 208.697 4815.8 208.697 4847.48 208.432C4855.69 208.364 4847.93 207.637 4822.08 202.828C4796.24 198.018 4752.55 188.945 4724.32 183.981C4696.09 179.018 4684.65 178.438 4677.89 179.261C4671.13 180.083 4669.4 182.326 4668.54 189.32C4667.68 196.314 4667.75 207.992 4674.61 236.901C4681.47 265.809 4695.11 311.594 4704.97 340.832C4718.83 381.963 4727.5 394.665 4730.29 397.612C4731.69 399.099 4733.78 399.814 4735.13 399.06C4736.47 398.307 4737.19 395.87 4738.38 357.417C4739.56 318.965 4741.2 244.57 4742.9 207.958C4744.59 171.346 4746.29 174.772 4760.87 212.693C4775.44 250.614 4802.84 322.926 4817.87 361.884C4832.91 400.842 4834.76 404.254 4836.17 404.909C4838.69 406.085 4839.13 392.773 4835.4 365.502C4828.73 316.621 4817.77 284.979 4816.25 283.713C4815.5 283.094 4815.15 287.867 4817.76 323.632C4820.36 359.397 4826.01 427.376 4829.09 461.297C4832.17 495.219 4832.49 493.024 4832.67 486.046C4832.84 479.068 4832.86 467.374 4829.43 442.417C4826.01 417.46 4819.15 379.594 4812.53 350.88C4801.55 303.296 4791.89 283.32 4789.37 283.045C4787.8 282.873 4787.75 288.108 4787.35 370.13C4786.95 452.152 4786.74 612.202 4787.35 700.591C4787.96 788.979 4789.39 800.856 4790.43 808.306C4791.47 815.756 4792.07 818.418 4793.22 814.292C4794.37 810.166 4796.06 799.17 4800.09 733.132C4804.12 667.094 4810.45 546.348 4807.37 553.703C4804.29 561.058 4791.6 700.174 4788.68 704.846C4785.75 709.517 4792.96 575.53 4796.98 505.447C4801 435.365 4801.61 433.248 4803.24 430.89C4818.74 408.412 4840.87 380.126 4844.29 381.491C4845.96 382.161 4846.16 384.973 4851.48 411.046C4856.81 437.119 4866.92 486.928 4871.14 577.879C4875.35 668.829 4873.36 799.412 4871.51 881.59C4869.66 963.768 4868 993.584 4865.65 1024.57" stroke="#EDD8C2" stroke-opacity="0.87" stroke-width="83" stroke-linecap="round"/>
<path d="M4809.69 1478.9C4809.76 1440.94 4809.79 1389.71 4809.8 1335.78C4824.52 1276.09 4840.18 1212.99 4849.96 1171.46C4866.12 1102.84 4866.24 1093.36 4864.87 1082.34C4863.5 1071.33 4860.71 1059.14 4858.78 1050.13C4853.87 1027.22 4864.63 973.654 4843.9 964.169C4842.58 963.561 4840.6 964.231 4829.67 973.419C4777.07 1017.64 4763.77 1018.56 4755.33 1025.94C4753.6 1027.45 4753.09 1030.23 4749.41 1116.42C4745.72 1202.61 4739.05 1367.23 4742.02 1360.79C4744.98 1354.35 4757.21 1182.07 4763.41 1093.58C4769.6 1005.1 4769.76 1000.56 4776.43 1098.42C4781.32 1170.02 4789.48 1293.28 4796.1 1391.55C4791.67 1409.67 4787.59 1426.54 4784.09 1441.27C4766.6 1514.99 4764.79 1531.07 4763.82 1541.04C4762.86 1551.01 4762.79 1554.37 4762.45 1577.58C4762.1 1600.8 4761.48 1643.77 4762.11 1665.31C4762.74 1686.84 4764.65 1685.64 4779.95 1651.8C4795.26 1617.96 4823.91 1551.52 4839.89 1513.21C4855.87 1474.89 4858.32 1466.71 4859.33 1464.41C4860.35 1462.11 4859.87 1465.94 4854.14 1489.87C4851.62 1500.4 4848.08 1514.82 4844.5 1529.06C4838.49 1547.14 4828.21 1589.31 4832.63 1574.24C4835.33 1564.99 4839.95 1547.16 4844.5 1529.06C4845.67 1525.57 4846.67 1522.97 4847.38 1521.86C4848.57 1520.01 4850.25 1523.94 4847.47 1544.75C4844.68 1565.57 4838.04 1603.8 4832.83 1629.31C4825.19 1666.72 4816.84 1685.59 4809.33 1698.86C4796.49 1721.55 4782.21 1727.34 4781.43 1729.94C4780.15 1734.2 4803 1729.39 4833.33 1721.44C4841.6 1719.27 4850.42 1716.87 4859.46 1714.36C4875.33 1709.95 4879.77 1708.07 4880.96 1707.21C4882.04 1706.43 4874.34 1707.21 4859.25 1712.27C4849.57 1715.52 4840.97 1718.58 4833.33 1721.44C4803 1729.39 4780.15 1734.2 4781.43 1729.94C4782.21 1727.34 4796.49 1721.55 4809.33 1698.86C4816.84 1685.59 4825.19 1666.72 4832.83 1629.31C4838.04 1603.8 4844.68 1565.57 4847.47 1544.75C4850.25 1523.94 4848.57 1520.01 4847.38 1521.86C4846.67 1522.97 4845.67 1525.57 4844.5 1529.06C4848.08 1514.82 4851.62 1500.4 4854.14 1489.87C4859.87 1465.94 4860.35 1462.11 4859.33 1464.41C4858.32 1466.71 4855.87 1474.89 4839.89 1513.21C4823.91 1551.52 4795.26 1617.96 4779.95 1651.8C4764.65 1685.64 4762.74 1686.84 4762.11 1665.31C4761.48 1643.77 4762.1 1600.8 4762.45 1577.58C4762.79 1554.37 4762.86 1551.01 4763.82 1541.04C4764.79 1531.07 4766.6 1514.99 4784.09 1441.27C4787.59 1426.54 4791.67 1409.67 4796.1 1391.55C4798.52 1427.58 4800.74 1460.26 4802.51 1485.79C4809.12 1580.93 4809.52 1576.97 4809.69 1478.9Z" fill="#EDD8C2"/>
<path d="M4809.21 1008.38C4809.39 1008.2 4809.57 1008.03 4809.69 1101.18C4809.81 1194.34 4809.86 1380.84 4809.69 1478.9C4809.52 1576.97 4809.12 1580.93 4802.51 1485.79C4795.91 1390.65 4783.11 1196.28 4776.43 1098.42C4769.76 1000.56 4769.6 1005.1 4763.41 1093.58C4757.21 1182.07 4744.98 1354.35 4742.02 1360.79C4739.05 1367.23 4745.72 1202.61 4749.41 1116.42C4753.09 1030.23 4753.6 1027.45 4755.33 1025.94C4763.77 1018.56 4777.07 1017.64 4829.67 973.419C4840.6 964.231 4842.58 963.561 4843.9 964.169C4864.63 973.654 4853.87 1027.22 4858.78 1050.13C4860.71 1059.14 4863.5 1071.33 4864.87 1082.34C4866.24 1093.36 4866.12 1102.84 4849.96 1171.46C4833.8 1240.08 4801.59 1367.56 4784.09 1441.27C4766.6 1514.99 4764.79 1531.07 4763.82 1541.04C4762.86 1551.01 4762.79 1554.37 4762.45 1577.58C4762.1 1600.8 4761.48 1643.77 4762.11 1665.31C4762.74 1686.84 4764.65 1685.64 4779.95 1651.8C4795.26 1617.96 4823.91 1551.52 4839.89 1513.21C4855.87 1474.89 4858.32 1466.71 4859.33 1464.41C4860.35 1462.11 4859.87 1465.94 4854.14 1489.87C4848.42 1513.79 4837.46 1557.7 4832.63 1574.24C4827.36 1592.22 4843.01 1528.68 4847.38 1521.86C4848.57 1520.01 4850.25 1523.94 4847.47 1544.75C4844.68 1565.57 4838.04 1603.8 4832.83 1629.31C4825.19 1666.72 4816.84 1685.59 4809.33 1698.86C4796.49 1721.55 4782.21 1727.34 4781.43 1729.94C4779.81 1735.37 4817.24 1726.1 4859.46 1714.36C4875.33 1709.95 4879.77 1708.07 4880.96 1707.21C4882.04 1706.43 4874.34 1707.21 4859.25 1712.27C4796.55 1733.32 4778.84 1746.42 4777.24 1748.83C4779.6 1751.06 4787.99 1751.14 4801.13 1748.44C4808.12 1746.76 4815.76 1744.44 4829.1 1739.73" stroke="#EDD8C2" stroke-opacity="0.87" stroke-width="83" stroke-linecap="round"/>
<path d="M4828.63 1739.73C4825.96 1740.14 4815.89 1744.35 4773.04 1778.31C4765.38 1784.38 4768.3 1784.93 4771.05 1783.99C4794.51 1776.01 4824.6 1750.18 4830.75 1739.6C4832.49 1736.59 4831.48 1731.48 4830.72 1727.51C4829.96 1723.54 4828.32 1720.45 4816.37 1707.4C4804.42 1694.36 4782.2 1671.44 4763.17 1648.93C4744.13 1626.42 4728.96 1605 4714.51 1580.05C4700.05 1555.1 4686.78 1527.26 4677.98 1503.72C4669.19 1480.19 4665.29 1461.8 4661.98 1432.09C4658.68 1402.38 4656.09 1361.92 4653.43 1320.23" stroke="#EDD8C2" stroke-opacity="0.87" stroke-width="83" stroke-linecap="round"/>
<path d="M729.194 343.534C729.509 343.534 729.823 343.534 729.884 516.45C729.945 689.366 729.742 1035.2 728.484 1217.92C727.226 1400.65 724.921 1409.79 719.69 1415.45C714.459 1421.1 706.374 1422.99 699.303 1421.2C686.423 1413.89 644.63 1334.85 582.841 1198.1C556.859 1134.69 541.784 1083.42 526.253 1030.6" stroke="#EDD8C2" stroke-opacity="0.87" stroke-width="2" stroke-linecap="round"/>
<path d="M2401.43 105C2400.18 105 2398.93 105 2397.68 105C2397.47 146.733 2397.27 188.467 2397.08 230.2C2395.39 605.8 2394.55 981.4 2394.55 1357C2394.55 1732.6 2395.39 2108.2 2397.08 2483.8C2397.27 2525.53 2397.47 2567.27 2397.68 2609C2398.93 2609 2400.18 2609 2401.43 2609C2401.63 2567.27 2401.83 2525.53 2402.02 2483.8C2403.71 2108.2 2404.55 1732.6 2404.55 1357C2404.55 981.4 2403.71 605.8 2402.02 230.2C2401.83 188.467 2401.63 146.733 2401.43 105Z" fill="#B8893A" fill-opacity="0.2"/>
<path d="M2390.88 105C2389.62 105 2388.38 105 2387.12 105C2386.92 146.733 2386.72 188.467 2386.53 230.2C2384.84 605.8 2384 981.4 2384 1357C2384 1732.6 2384.84 2108.2 2386.53 2483.8C2386.72 2525.53 2386.92 2567.27 2387.12 2609C2388.38 2609 2389.62 2609 2390.88 2609C2391.08 2567.27 2391.28 2525.53 2391.47 2483.8C2393.16 2108.2 2394 1732.6 2394 1357C2394 981.4 2393.16 605.8 2391.47 230.2C2391.28 188.467 2391.08 146.733 2390.88 105Z" fill="white" fill-opacity="0.25"/>
<path d="M2380.43 105C2379.18 105 2377.93 105 2376.68 105C2376.47 146.733 2376.27 188.467 2376.08 230.2C2374.39 605.8 2373.55 981.4 2373.55 1357C2373.55 1732.6 2374.39 2108.2 2376.08 2483.8C2376.27 2525.53 2376.47 2567.27 2376.68 2609C2377.93 2609 2379.18 2609 2380.43 2609C2380.63 2567.27 2380.83 2525.53 2381.02 2483.8C2382.71 2108.2 2383.55 1732.6 2383.55 1357C2383.55 981.4 2382.71 605.8 2381.02 230.2C2380.83 188.467 2380.63 146.733 2380.43 105Z" fill="#B8893A" fill-opacity="0.2"/>
<path d="M2369.88 105C2368.62 105 2367.38 105 2366.12 105C2365.92 146.733 2365.72 188.467 2365.53 230.2C2363.84 605.8 2363 981.4 2363 1357C2363 1732.6 2363.84 2108.2 2365.53 2483.8C2365.72 2525.53 2365.92 2567.27 2366.12 2609C2367.38 2609 2368.62 2609 2369.88 2609C2370.08 2567.27 2370.28 2525.53 2370.47 2483.8C2372.16 2108.2 2373 1732.6 2373 1357C2373 981.4 2372.16 605.8 2370.47 230.2C2370.28 188.467 2370.08 146.733 2369.88 105Z" fill="white" fill-opacity="0.25"/>
<path d="M2359.43 105C2358.18 105 2356.93 105 2355.68 105C2355.47 146.733 2355.27 188.467 2355.08 230.2C2353.39 605.8 2352.55 981.4 2352.55 1357C2352.55 1732.6 2353.39 2108.2 2355.08 2483.8C2355.27 2525.53 2355.47 2567.27 2355.68 2609C2356.93 2609 2358.18 2609 2359.43 2609C2359.63 2567.27 2359.83 2525.53 2360.02 2483.8C2361.71 2108.2 2362.55 1732.6 2362.55 1357C2362.55 981.4 2361.71 605.8 2360.02 230.2C2359.83 188.467 2359.63 146.733 2359.43 105Z" fill="#B8893A" fill-opacity="0.2"/>
<path d="M2348.88 105C2347.62 105 2346.38 105 2345.12 105C2344.92 146.733 2344.72 188.467 2344.53 230.2C2342.84 605.8 2342 981.4 2342 1357C2342 1732.6 2342.84 2108.2 2344.53 2483.8C2344.72 2525.53 2344.92 2567.27 2345.12 2609C2346.38 2609 2347.62 2609 2348.88 2609C2349.08 2567.27 2349.28 2525.53 2349.47 2483.8C2351.16 2108.2 2352 1732.6 2352 1357C2352 981.4 2351.16 605.8 2349.47 230.2C2349.28 188.467 2349.08 146.733 2348.88 105Z" fill="white" fill-opacity="0.25"/>
<path d="M2338.43 105C2337.18 105 2335.93 105 2334.68 105C2334.47 146.733 2334.27 188.467 2334.08 230.2C2332.39 605.8 2331.55 981.4 2331.55 1357C2331.55 1732.6 2332.39 2108.2 2334.08 2483.8C2334.27 2525.53 2334.47 2567.27 2334.68 2609C2335.93 2609 2337.18 2609 2338.43 2609C2338.63 2567.27 2338.83 2525.53 2339.02 2483.8C2340.71 2108.2 2341.55 1732.6 2341.55 1357C2341.55 981.4 2340.71 605.8 2339.02 230.2C2338.83 188.467 2338.63 146.733 2338.43 105Z" fill="#B8893A" fill-opacity="0.2"/>
<path d="M2327.88 105C2326.62 105 2325.38 105 2324.12 105C2323.92 146.733 2323.72 188.467 2323.53 230.2C2321.84 605.8 2321 981.4 2321 1357C2321 1732.6 2321.84 2108.2 2323.53 2483.8C2323.72 2525.53 2323.92 2567.27 2324.12 2609C2325.38 2609 2326.62 2609 2327.88 2609C2328.08 2567.27 2328.28 2525.53 2328.47 2483.8C2330.16 2108.2 2331 1732.6 2331 1357C2331 981.4 2330.16 605.8 2328.47 230.2C2328.28 188.467 2328.08 146.733 2327.88 105Z" fill="white" fill-opacity="0.25"/>
<path d="M2424.05 105C2421.72 105 2419.38 105 2417.05 105C2416.95 146.733 2416.86 188.467 2416.77 230.2C2415.96 605.8 2415.55 981.4 2415.55 1357C2415.55 1732.6 2416.39 2108.2 2418.08 2483.8C2418.27 2525.53 2418.47 2567.27 2418.68 2609C2419.93 2609 2421.18 2609 2422.43 2609C2422.63 2567.27 2422.83 2525.53 2423.02 2483.8C2424.71 2108.2 2425.55 1732.6 2425.55 1357C2425.55 981.4 2425.15 605.8 2424.34 230.2C2424.25 188.467 2424.15 146.733 2424.05 105Z" fill="#B8893A" fill-opacity="0.2"/>
<path d="M2413.5 105C2411.17 105 2408.83 105 2406.5 105C2406.4 146.733 2406.31 188.467 2406.22 230.2C2405.41 605.8 2405 981.4 2405 1357C2405 1732.6 2405.84 2108.2 2407.53 2483.8C2407.72 2525.53 2407.92 2567.27 2408.12 2609C2409.38 2609 2410.62 2609 2411.88 2609C2412.08 2567.27 2412.28 2525.53 2412.47 2483.8C2414.16 2108.2 2415 1732.6 2415 1357C2415 981.4 2414.59 605.8 2413.78 230.2C2413.69 188.467 2413.6 146.733 2413.5 105Z" fill="white" fill-opacity="0.25"/>
<path d="M2445.05 105C2442.72 105 2440.38 105 2438.05 105C2437.95 146.733 2437.86 188.467 2437.77 230.2C2436.96 605.8 2436.55 981.4 2436.55 1357C2436.55 1732.6 2437.39 2108.2 2439.08 2483.8C2439.27 2525.53 2439.47 2567.27 2439.68 2609C2440.93 2609 2442.18 2609 2443.43 2609C2443.63 2567.27 2443.83 2525.53 2444.02 2483.8C2445.71 2108.2 2446.55 1732.6 2446.55 1357C2446.55 981.4 2446.15 605.8 2445.34 230.2C2445.25 188.467 2445.15 146.733 2445.05 105Z" fill="#B8893A" fill-opacity="0.2"/>
<path d="M2434.5 105C2432.17 105 2429.83 105 2427.5 105C2427.4 146.733 2427.31 188.467 2427.22 230.2C2426.41 605.8 2426 981.4 2426 1357C2426 1732.6 2426.84 2108.2 2428.53 2483.8C2428.72 2525.53 2428.92 2567.27 2429.12 2609C2430.38 2609 2431.62 2609 2432.88 2609C2433.08 2567.27 2433.28 2525.53 2433.47 2483.8C2435.16 2108.2 2436 1732.6 2436 1357C2436 981.4 2435.59 605.8 2434.78 230.2C2434.69 188.467 2434.6 146.733 2434.5 105Z" fill="white" fill-opacity="0.25"/>
</g>
</svg>
