<svg xmlns="http://www.w3.org/2000/svg" width="5158" height="2771" fill="none" overflow="visible" viewBox="0 0 5158 2771"><g transform="rotate(2 2579 1385.5)"><rect width="4411" height="2504" x="377.425" y="105" fill="#edd8c2" rx="1"/><rect width="4410" height="2503" x="377.925" y="105.5" stroke="#edd8c2" stroke-opacity=".87" rx=".5"/><path stroke="#edd8c2" stroke-opacity=".87" d="m378.425 865-153.5 74.5V2486l153.5 117.5"/><path stroke="#edd8c2" stroke-linecap="round" stroke-opacity=".87" stroke-width="182" d="M426.302 1573.41v31.99c0 30.81 0 91.82-5.086 101.5-5.087 9.69-15.261-33.79-22.29-103.95s-10.605-165.68-12.126-219.26c-1.77-62.33.637-74.36 3.201-78.49 1.085-1.75 4.24-.38 23.854 88.23s56.233 265.02 66.81 284.82-5.998-122.36-21.359-221.05-29.009-149.6-38.405-190.88-14.128-71.38-17.404-89.61c-3.275-18.24-4.951-23.69-8.854-34.68"/><path stroke="#edd8c2" stroke-linecap="round" stroke-opacity=".87" stroke-width="45" d="M483.841 986.946c-.103 0-.206 0-9.214-.201-9.007-.202-26.915-.604-50.255-3.94-23.339-3.335-51.566-9.592-82.698-16.799m61.687-75.686c-9.19 0-32.234 1.63-61.389 13.839-18.571 7.778-28.007 16.082-40.094 21.782-12.123 5.717-22.378 8.703-33.573 12.587-9.903 4.145-17.909 8.907-24.573 12.259-3.237 1.461-6.178 2.434-13.24 5.34m-6.102 7.429.137 80.394c.137 80.58.411 241.85.101 333.45s-1.212 108.63-1.4 119.83c-.485 29 .397 57.96-.87 84.52-.653 13.69-4.371 72.09-3.093 109.51.663 19.4 7.565 59.66 7.06 105.76-.264 24.18 3.782 67.21 5.839 92.77 2.606 32.37 7.546 49.68 12.219 66.94 2.61 9.64 1.809 49.07 1.853 110.46.028 38.08 4.757 59.69 4.558 78.71-.448 42.91-7.468 61.56-12.325 117.77-1.691 38.66-3.604 108.33-4.712 148.47-1.109 40.14-1.353 48.63-1.606 57.39m8.279 12.21c3.888 0 16.69 2.59 44.19 22.59 47.178 34.31 58.12 51.26 68.721 59.97 12.013 9.54 21.845 17.9 30.403 24.68 1.997 1.65 3.853 3.29 8.127 5.72"/><path fill="#edd8c2" d="M349.295 952.707c-.724-.169 1.36-1.101 5.259-2.528a940 940 0 0 1 10.9-5.12c2.147-3.104 3.72-5.327 4.545-6.275 3.448-3.96 7.337-7.644 8.468-11.134.492-1.516-3.891-2.223-7.015-2.007-30.752 2.119-72.114 40.275-91.325 57.386-1.632 1.59-2.875 2.546-2.651 2.349q1.244-1.093 2.651-2.349c19.211-17.111 60.573-55.267 91.325-57.386 3.124-.216 7.507.491 7.015 2.007-1.131 3.49-5.02 7.174-8.468 11.134-.825.948-2.398 3.171-4.545 6.275 29.51-13.627 54.583-23.174 54.407-17.508-.026.868-2.855 2.059-8.833 4.045-13.764 4.571-33.365 10.741-46.797 15.234-.953 1.384-1.996 2.901-3.117 4.525-20.292 29.398-66.104 93.825-68.77 36.865-.103-2.203 10.127-11.535 18.365-15.925 11.839-6.308 25.281-13.147 38.586-19.588"/><path stroke="#edd8c2" stroke-linecap="round" stroke-opacity=".87" stroke-width="45" d="M377.228 950.26c-4.372 0-17.968 1.056-25.577 2.253-13.856 2.179 33.266-12.245 59.377-20.917 5.978-1.986 8.807-3.177 8.833-4.045.284-9.157-65.389 21.426-109.152 44.744-8.238 4.39-18.468 13.722-18.365 15.925 3.242 69.27 70.282-40.965 77.655-49.436 3.448-3.96 7.337-7.644 8.468-11.134.492-1.516-3.891-2.223-7.015-2.007-32.253 2.223-76.177 44.086-93.976 59.735-.468.412 5.489-4.229 7.998-9.156 1.866-3.666-13.01-4.915-24.994-6.333-2.495-.296-4.919.592-5.002 3.604-.24 8.673 9.168 33.257 17.344 121.107 6.358 68.32 6.169 185.63 7.678 247.21s1.903 64.07 2.165 61.84.381-9.26 9.273-60.23 26.552-145.67 36.171-196.16 10.664-53.91 12.403-57.24c1.739-3.32 4.143-6.46 6.619-9.69"/><path stroke="#edd8c2" stroke-linecap="round" stroke-opacity=".87" stroke-width="83" d="M367.651 959.202c-.57 4.561-7.897 40.681-20.851 90.568-5.991 23.07-11.44 41.41-17.166 72.09-5.726 30.67-11.727 73.07-14.898 108.33s-3.329 62.08-3.41 26.09c-.081-36-.081-135.63-.263-188.3s-.546-55.36-2.014-56.95-4.03-1.99-6.555-1.68a13.3 13.3 0 0 0-6.894 3c-9.395 7.93-8.247 25.77-15.009 65.23-4.588 26.77-9.9 75.6-13.043 128.16s-3.056 107.51-1.879 209.67c1.177 102.15 3.442 249.84 5.37 333.04 1.929 83.19 3.453 97.41 4.296 120.65 1.996 55.04.473 92.6-.759 101.59-2.626 19.16-3.426 46.65-4.631 71.82-.32 6.68-.58 13.67-2.333 44.37-1.753 30.69-4.897 84.89-6.681 122.16-1.784 37.26-2.112 55.96-.808 85.8s4.252 70.25 5.874 95.39 1.828 33.78 3.28 49.76m0 0c5.476 0 23.246 2.88 34.974 9.31 20.068 11.01 48.346 33.08 64.586 46.82 6.826 5.78 12.179 18.47 17.952 27.72 3.623 5.81-7.212-17.28-15.622-77.24-7.718-55.03-18.879-160.48-24.799-268.37-5.92-107.88-5.35-215.13-2.355-291.67s8.397-119.12 11.187-142.66c3.163-26.68 2.448-45.89 1.029-73.62-2.175-42.48-23.192-72.85-25.453-74.82-.753-.65-1.605 2.82-4.924 117.1s-9.312 340.14-11.888 468.65c-2.577 128.5-1.555 152.8-.857 166.6 2.13 21.63 4.297 29.92 5.777 36.01.796 3.15 1.685 6.43 4.232 12.39"/><path fill="#edd8c2" d="M397.155 945.682c-2.277.433-4.593.877-6.936 1.329-2.349 5.085-5.429 13.02-9.526 23.682-7.118 18.518-17.292 45.237-27.592 72.267.706 5.13.806 23.32 1.107 85.17.4 82.02.61 242.07.002 330.46s-2.041 100.27-3.08 107.72-1.643 10.11-2.794 5.98c-1.152-4.12-2.833-15.12-6.864-81.16s-10.36-186.78-7.28-179.43c3.081 7.36 15.763 146.47 18.69 151.15 2.927 4.67-4.287-129.32-8.307-199.4s-4.629-72.2-6.255-74.56c-6.137-8.9-13.314-18.71-19.958-27.23-.61 3.41-1.201 6.78-1.766 10.09-1.537 18.24-3.003 35.16-4.126 47.55-3.076 33.92-3.402 31.72-3.577 24.75-.176-6.98-.191-18.68 3.232-43.63 1.149-8.38 2.686-18.22 4.471-28.67q.465-5.52.935-11.16a347 347 0 0 0-6.656-8.24c-3.684 8.85-4.659 10.18-5.482 10.56-1.761.82-2.506-5.41-1.532-18.5.422-5.68 1.168-12.66 2.294-20.91 6.672-48.88 17.635-80.52 19.156-81.79.744-.62 1.096 4.16-1.507 39.92-.927 12.74-2.241 29.56-3.688 47.47 1.099-2.83 2.287-5.89 3.57-9.22 2.148-5.56 4.549-11.81 7.128-18.54 10.224-42.16 18.99-60.03 21.376-60.3.387-.04.681.25.911 1.92 10.3-27.03 20.474-53.749 27.592-72.267 4.097-10.662 7.177-18.597 9.526-23.682 3.877-8.393 5.76-9.021 6.936-1.329 7.191-1.369 13.997-2.63 20.084-3.701 28.227-4.963 39.666-5.543 46.427-4.72 6.761.822 8.498 3.065 9.356 10.059s.784 18.672-6.075 47.581-20.501 74.689-30.356 103.929c-13.863 41.13-22.534 53.83-25.317 56.78-1.405 1.49-3.497 2.2-4.843 1.45-1.345-.75-2.062-3.19-3.249-41.64-1.187-38.46-2.824-112.85-4.518-149.462-.432-9.326-.864-16.054-1.509-20.276"/><path stroke="#edd8c2" stroke-linecap="round" stroke-opacity=".87" stroke-width="83" d="M349.692 966.697c-.309 0-23.934 0-55.609-.265-8.213-.068-.45-.795 25.393-5.604s69.535-13.883 97.763-18.847c28.227-4.963 39.666-5.543 46.427-4.72 6.761.822 8.498 3.065 9.356 10.059s.784 18.672-6.075 47.581-20.501 74.689-30.356 103.929c-13.863 41.13-22.534 53.83-25.317 56.78-1.405 1.49-3.497 2.2-4.843 1.45-1.345-.75-2.062-3.19-3.249-41.64-1.187-38.46-2.824-112.85-4.518-149.462-1.695-36.612-3.397-33.186-17.971 4.735-14.575 37.917-41.97 110.237-57.007 149.187-15.037 38.96-16.887 42.37-18.293 43.03-2.525 1.18-2.961-12.14.762-39.41 6.672-48.88 17.635-80.52 19.156-81.79.744-.62 1.096 4.16-1.507 39.92-2.603 35.77-8.259 103.75-11.334 137.67-3.076 33.92-3.402 31.72-3.577 24.75-.176-6.98-.191-18.68 3.232-43.63 3.422-24.96 10.284-62.83 16.906-91.54 10.975-47.58 20.636-67.56 23.159-67.84 1.573-.17 1.619 5.07 2.018 87.09.4 82.02.61 242.07.002 330.46s-2.041 100.27-3.08 107.72-1.643 10.11-2.794 5.98c-1.152-4.12-2.833-15.12-6.864-81.16s-10.36-186.78-7.28-179.43c3.081 7.36 15.763 146.47 18.69 151.15 2.927 4.67-4.287-129.32-8.307-199.4s-4.629-72.2-6.255-74.56c-15.498-22.48-37.634-50.76-41.048-49.4-1.675.67-1.868 3.48-7.197 29.56-5.329 26.07-15.438 75.88-19.652 166.83s-2.225 221.53-.374 303.71c1.852 82.18 3.507 111.99 5.856 142.98"/><path fill="#edd8c2" d="M331.869 2236.9c-.066-37.96-.099-89.19-.106-143.12-14.721-59.69-30.384-122.79-40.166-164.32-16.163-68.62-16.273-78.1-14.904-89.12 1.369-11.01 4.154-23.2 6.085-32.21 4.912-22.91-5.85-76.48 14.876-85.96 1.33-.61 3.305.06 14.234 9.25 52.599 44.22 65.899 45.14 74.338 52.52 1.731 1.51 2.24 4.29 5.928 90.48s10.353 250.81 7.387 244.37-15.192-178.72-21.387-267.21c-6.195-88.48-6.355-93.02-13.03 4.84-4.883 71.6-13.045 194.86-19.662 293.13 4.426 18.12 8.509 34.99 12.005 49.72 17.497 73.72 19.304 89.8 20.268 99.77s1.03 13.33 1.375 36.54c.346 23.22.971 66.19.339 87.73-.632 21.53-2.539 20.33-17.845-13.51s-43.951-100.28-59.932-138.59c-15.981-38.32-18.428-46.5-19.446-48.8s-.533 1.53 5.193 25.46c2.521 10.53 6.057 24.95 9.637 39.19 6.017 18.08 16.289 60.25 11.878 45.18-2.707-9.25-7.329-27.08-11.878-45.18-1.164-3.49-2.169-6.09-2.877-7.2-1.19-1.85-2.874 2.08-.089 22.89 2.786 20.82 9.433 59.05 14.643 84.56 7.639 37.41 15.989 56.28 23.501 69.55 12.839 22.69 27.116 28.48 27.893 31.08 1.278 4.26-21.567-.55-51.899-8.5-8.266-2.17-17.088-4.57-26.129-7.08-15.874-4.41-20.312-6.29-21.5-7.15-1.075-.78 6.623 0 21.71 5.06 9.676 3.25 18.28 6.31 25.919 9.17 30.332 7.95 53.177 12.76 51.899 8.5-.777-2.6-15.054-8.39-27.893-31.08-7.512-13.27-15.862-32.14-23.501-69.55-5.21-25.51-11.857-63.74-14.643-84.56-2.785-20.81-1.101-24.74.089-22.89.708 1.11 1.713 3.71 2.877 7.2-3.58-14.24-7.116-28.66-9.637-39.19-5.726-23.93-6.211-27.76-5.193-25.46s3.465 10.48 19.446 48.8c15.981 38.31 44.627 104.75 59.932 138.59s17.213 35.04 17.845 13.51c.632-21.54.007-64.51-.339-87.73-.345-23.21-.411-26.57-1.375-36.54s-2.771-26.05-20.268-99.77c-3.496-14.73-7.579-31.6-12.005-49.72-2.427 36.03-4.645 68.71-6.418 94.24-6.605 95.14-7.004 91.18-7.175-6.89"/><path stroke="#edd8c2" stroke-linecap="round" stroke-opacity=".87" stroke-width="83" d="M332.349 1766.38c-.179-.18-.357-.35-.477 92.8-.119 93.16-.174 279.66-.003 377.72.171 98.07.57 102.03 7.175 6.89 6.606-95.14 19.406-289.51 26.08-387.37 6.675-97.86 6.835-93.32 13.03-4.84 6.195 88.49 18.421 260.77 21.387 267.21s-3.699-158.18-7.387-244.37-4.197-88.97-5.928-90.48c-8.439-7.38-21.739-8.3-74.338-52.52-10.929-9.19-12.904-9.86-14.234-9.25-20.726 9.48-9.964 63.05-14.876 85.96-1.931 9.01-4.716 21.2-6.085 32.21-1.369 11.02-1.259 20.5 14.904 89.12 16.162 68.62 48.373 196.1 65.87 269.81 17.497 73.72 19.304 89.8 20.268 99.77s1.03 13.33 1.375 36.54c.346 23.22.971 66.19.339 87.73-.632 21.53-2.539 20.33-17.845-13.51s-43.951-100.28-59.932-138.59c-15.981-38.32-18.428-46.5-19.446-48.8s-.533 1.53 5.193 25.46c5.725 23.92 16.676 67.83 21.515 84.37 5.265 17.98-10.386-45.56-14.755-52.38-1.19-1.85-2.874 2.08-.089 22.89 2.786 20.82 9.433 59.05 14.643 84.56 7.639 37.41 15.989 56.28 23.501 69.55 12.839 22.69 27.116 28.48 27.893 31.08 1.626 5.43-35.81-3.84-78.028-15.58-15.874-4.41-20.312-6.29-21.5-7.15-1.075-.78 6.623 0 21.71 5.06 62.7 21.05 80.412 34.15 82.009 36.56-2.357 2.23-10.751 2.31-23.887-.39-6.988-1.68-14.629-4-27.97-8.71"/><path stroke="#edd8c2" stroke-linecap="round" stroke-opacity=".87" stroke-width="83" d="M312.93 2497.73c2.667.41 12.738 4.62 55.588 38.58 7.662 6.07 4.744 6.62 1.987 5.68-23.459-7.98-53.551-33.81-59.692-44.39-1.745-3.01-.737-8.12.024-12.09.76-3.97 2.399-7.06 14.352-20.11 11.953-13.04 34.171-35.96 53.203-58.47s34.207-43.93 48.661-68.88 27.73-52.79 36.522-76.33c8.791-23.53 12.697-41.92 16.002-71.63s5.892-70.17 8.556-111.86"/><path fill="#edd8c2" d="M404.322 145.488c.504.087 1.111-.271 1.808-.789-.815-2.72-1.756-3.806-2.829-3.327-.984.439-.609 3.836 1.021 4.116"/><path stroke="#edd8c2" stroke-linecap="round" stroke-opacity=".87" stroke-width="83" d="M474.093 181.604c-3.092-2.457-14.509-11.599-25.752-20.288-11.601-8.966-23.004-16.892-36.338-19.306-3.348-.606-6.051 3.758-7.681 3.478s-2.005-3.677-1.021-4.116c3.642-1.626 5.767 14.786 6.609 51.949.618 27.262 2.528 71.562 11.216 155.775 8.688 84.212 24.328 206.989 32.999 293.889 8.67 86.899 9.896 134.2 12.034 167.692 10.574 76.195 18.91 92.871 25.903 101.807 3.368 3.722 6.367 5.795 9.457 7.931"/><path stroke="#edd8c2" stroke-linecap="round" stroke-opacity=".87" stroke-width="83" d="M422.461 146.602c.209 0 .419 0 103.787 1.17 103.367 1.171 309.887 3.512 458.443 9.549 148.559 6.036 232.889 15.697 283.179 22.286 50.29 6.588 63.97 9.811 80.2 13.876"/><path stroke="#edd8c2" stroke-opacity=".87" d="m4763.13 107 153.5 74.5V1728l-153.5 117.5"/><path stroke="#edd8c2" stroke-linecap="round" stroke-opacity=".87" stroke-width="182" d="M4715.26 815.412v31.987c0 30.809 0 91.818 5.08 101.505 5.09 9.687 15.26-33.797 22.29-103.956s10.61-165.674 12.13-219.258c1.77-62.325-.64-74.355-3.2-78.492-1.09-1.75-4.24-.374-23.86 88.233-19.61 88.608-56.23 265.022-66.81 284.822-10.57 19.8 6-122.359 21.36-221.05 15.37-98.69 29.01-149.603 38.41-190.882 9.39-41.279 14.13-71.381 17.4-89.615 3.28-18.235 4.95-23.689 8.86-34.677"/><path stroke="#edd8c2" stroke-linecap="round" stroke-opacity=".87" stroke-width="45" d="M4657.72 228.946c.1 0 .2 0 9.21-.201 9.01-.202 26.92-.604 50.26-3.94s51.56-9.592 82.7-16.799m-61.69-75.686c9.19 0 32.23 1.63 61.39 13.84 18.57 7.777 28 16.081 40.09 21.781 12.12 5.717 22.38 8.703 33.57 12.587 9.91 4.145 17.91 8.908 24.58 12.259 3.23 1.461 6.18 2.434 13.24 5.34m6.1 7.429-.14 80.392c-.14 80.585-.41 241.855-.1 333.451s1.21 108.632 1.4 119.835c.49 28.996-.4 57.955.87 84.52.65 13.682 4.37 72.083 3.09 109.51-.66 19.391-7.56 59.652-7.06 105.756.27 24.18-3.78 67.21-5.83 92.77-2.61 32.37-7.55 49.68-12.22 66.94-2.61 9.64-1.81 49.07-1.86 110.46-.02 38.08-4.75 59.69-4.56 78.71.45 42.91 7.47 61.56 12.33 117.77 1.69 38.66 3.6 108.33 4.71 148.47s1.36 48.63 1.61 57.39m-8.28 12.21c-3.89 0-16.69 2.59-44.19 22.59-47.18 34.31-58.12 51.26-68.72 59.97-12.01 9.54-21.85 17.9-30.41 24.68-1.99 1.65-3.85 3.29-8.12 5.72"/><path fill="#edd8c2" d="M4792.26 194.707c.73-.168-1.36-1.101-5.26-2.528a925 925 0 0 0-10.89-5.12c-2.15-3.104-3.72-5.327-4.55-6.275-3.45-3.96-7.34-7.644-8.47-11.133-.49-1.517 3.89-2.224 7.02-2.008 30.75 2.119 72.11 40.275 91.32 57.386 1.63 1.59 2.88 2.546 2.65 2.349-.83-.728-1.71-1.513-2.65-2.349-19.21-17.111-60.57-55.267-91.32-57.386-3.13-.216-7.51.491-7.02 2.008 1.13 3.489 5.02 7.173 8.47 11.133.83.948 2.4 3.171 4.55 6.275-29.52-13.627-54.59-23.174-54.41-17.508.02.868 2.85 2.059 8.83 4.045 13.76 4.571 33.37 10.741 46.8 15.235.95 1.383 1.99 2.9 3.12 4.524 20.29 29.398 66.1 93.829 68.76 36.865.11-2.202-10.12-11.535-18.36-15.925a1141 1141 0 0 0-38.59-19.588"/><path stroke="#edd8c2" stroke-linecap="round" stroke-opacity=".87" stroke-width="45" d="M4764.33 192.26c4.37 0 17.97 1.056 25.58 2.253 13.85 2.18-33.27-12.245-59.38-20.917-5.98-1.986-8.81-3.177-8.83-4.045-.29-9.157 65.39 21.426 109.15 44.744 8.24 4.39 18.47 13.723 18.36 15.925-3.24 69.268-70.28-40.965-77.65-49.436-3.45-3.96-7.34-7.644-8.47-11.133-.49-1.517 3.89-2.224 7.02-2.008 32.25 2.223 76.17 44.086 93.97 59.735.47.412-5.49-4.228-8-9.156-1.86-3.666 13.01-4.915 25-6.333 2.49-.296 4.92.592 5 3.604.24 8.673-9.17 33.257-17.34 121.11-6.36 68.317-6.17 185.629-7.68 247.207-1.51 61.577-1.9 64.071-2.17 61.84-.26-2.23-.38-9.259-9.27-60.229s-26.55-145.666-36.17-196.159-10.66-53.91-12.4-57.238-4.15-6.463-6.62-9.692"/><path stroke="#edd8c2" stroke-linecap="round" stroke-opacity=".87" stroke-width="83" d="M4773.91 201.202c.57 4.561 7.9 40.681 20.85 90.567 5.99 23.071 11.44 41.414 17.16 72.086 5.73 30.672 11.73 73.074 14.9 108.332s3.33 62.087 3.41 26.092.08-135.628.27-188.299c.18-52.67.54-55.36 2.01-56.949s4.03-1.995 6.56-1.682c2.52.313 4.93 1.357 6.89 3.006 9.39 7.925 8.25 25.769 15.01 65.228 4.59 26.771 9.9 75.596 13.04 128.156 3.14 52.559 3.06 107.512 1.88 209.667-1.18 102.154-3.44 249.846-5.37 333.04s-3.45 97.414-4.3 120.654c-1.99 55.04-.47 92.6.76 101.59 2.63 19.16 3.43 46.65 4.63 71.82.32 6.68.58 13.67 2.34 44.37 1.75 30.69 4.89 84.89 6.68 122.16 1.78 37.26 2.11 55.96.81 85.8-1.31 29.84-4.26 70.25-5.88 95.39s-1.83 33.78-3.28 49.76m0 0c-5.47 0-23.24 2.88-34.97 9.31-20.07 11.01-48.35 33.08-64.59 46.82-6.82 5.78-12.18 18.47-17.95 27.72-3.62 5.81 7.21-17.28 15.62-77.24 7.72-55.03 18.88-160.48 24.8-268.37 5.92-107.88 5.35-215.13 2.36-291.67-3-76.54-8.4-119.12-11.19-142.656-3.16-26.685-2.45-45.893-1.03-73.628 2.18-42.478 23.19-72.85 25.45-74.811.76-.653 1.61 2.817 4.93 117.097 3.32 114.278 9.31 340.138 11.89 468.648 2.57 128.5 1.55 152.8.85 166.6-2.13 21.63-4.3 29.92-5.77 36.01-.8 3.15-1.69 6.43-4.24 12.39"/><path fill="#edd8c2" d="M4744.4 187.682c2.28.433 4.6.877 6.94 1.329 2.35 5.085 5.43 13.02 9.53 23.682 7.11 18.518 17.29 45.237 27.59 72.268-.71 5.13-.81 23.317-1.11 85.169-.4 82.022-.61 242.072 0 330.461.61 88.388 2.04 100.266 3.08 107.715 1.04 7.45 1.64 10.112 2.79 5.986s2.84-15.122 6.87-81.16 10.36-186.784 7.28-179.429-15.77 146.471-18.69 151.143c-2.93 4.671 4.28-129.316 8.3-199.399 4.02-70.082 4.63-72.199 6.26-74.557 6.14-8.901 13.31-18.712 19.96-27.232.61 3.408 1.2 6.78 1.76 10.09 1.54 18.24 3.01 35.164 4.13 47.549 3.08 33.922 3.4 31.727 3.58 24.749.17-6.978.19-18.672-3.24-43.629-1.14-8.379-2.68-18.214-4.47-28.669-.31-3.673-.62-7.4-.93-11.153 2.31-2.952 4.56-5.733 6.65-8.248 3.69 8.85 4.66 10.179 5.49 10.562 1.76.82 2.5-5.407 1.53-18.501-.42-5.681-1.17-12.654-2.3-20.906-6.67-48.881-17.63-80.523-19.15-81.789-.75-.619-1.1 4.154 1.51 39.919.92 12.736 2.24 29.556 3.68 47.469-1.1-2.827-2.28-5.893-3.57-9.217-2.14-5.566-4.55-11.813-7.12-18.543-10.23-42.165-19-60.036-21.38-60.296-.39-.042-.68.243-.91 1.916-10.3-27.031-20.48-53.75-27.59-72.268-4.1-10.662-7.18-18.597-9.53-23.682-3.88-8.393-5.76-9.021-6.94-1.329-7.19-1.369-13.99-2.63-20.08-3.701-28.23-4.963-39.67-5.543-46.43-4.72-6.76.822-8.49 3.065-9.35 10.059s-.79 18.672 6.07 47.581c6.86 28.908 20.5 74.693 30.36 103.931 13.86 41.131 22.53 53.833 25.32 56.78 1.4 1.487 3.49 2.202 4.84 1.448 1.34-.753 2.06-3.19 3.25-41.643 1.18-38.452 2.82-112.847 4.52-149.459.43-9.326.86-16.054 1.5-20.276"/><path stroke="#edd8c2" stroke-linecap="round" stroke-opacity=".87" stroke-width="83" d="M4791.87 208.697c.31 0 23.93 0 55.61-.265 8.21-.068.45-.795-25.4-5.604-25.84-4.81-69.53-13.883-97.76-18.847-28.23-4.963-39.67-5.543-46.43-4.72-6.76.822-8.49 3.065-9.35 10.059s-.79 18.672 6.07 47.581c6.86 28.908 20.5 74.693 30.36 103.931 13.86 41.131 22.53 53.833 25.32 56.78 1.4 1.487 3.49 2.202 4.84 1.448 1.34-.753 2.06-3.19 3.25-41.643 1.18-38.452 2.82-112.847 4.52-149.459 1.69-36.612 3.39-33.186 17.97 4.735 14.57 37.921 41.97 110.233 57 149.191 15.04 38.958 16.89 42.37 18.3 43.025 2.52 1.176 2.96-12.136-.77-39.407-6.67-48.881-17.63-80.523-19.15-81.789-.75-.619-1.1 4.154 1.51 39.919 2.6 35.765 8.25 103.744 11.33 137.665 3.08 33.922 3.4 31.727 3.58 24.749.17-6.978.19-18.672-3.24-43.629-3.42-24.957-10.28-62.823-16.9-91.537-10.98-47.584-20.64-67.56-23.16-67.835-1.57-.172-1.62 5.063-2.02 87.085s-.61 242.072 0 330.461c.61 88.388 2.04 100.265 3.08 107.715s1.64 10.112 2.79 5.986 2.84-15.122 6.87-81.16 10.36-186.784 7.28-179.429-15.77 146.471-18.69 151.143c-2.93 4.671 4.28-129.316 8.3-199.399 4.02-70.082 4.63-72.199 6.26-74.557 15.5-22.478 37.63-50.764 41.05-49.399 1.67.67 1.87 3.482 7.19 29.555 5.33 26.073 15.44 75.882 19.66 166.833 4.21 90.95 2.22 221.533.37 303.711s-3.51 111.994-5.86 142.98"/><path fill="#edd8c2" d="M4809.69 1478.9c.07-37.96.1-89.19.11-143.12 14.72-59.69 30.38-122.79 40.16-164.32 16.16-68.62 16.28-78.1 14.91-89.12-1.37-11.01-4.16-23.2-6.09-32.21-4.91-22.91 5.85-76.476-14.88-85.961-1.32-.608-3.3.062-14.23 9.25-52.6 44.221-65.9 45.141-74.34 52.521-1.73 1.51-2.24 4.29-5.92 90.48-3.69 86.19-10.36 250.81-7.39 244.37 2.96-6.44 15.19-178.72 21.39-267.21 6.19-88.48 6.35-93.02 13.02 4.84 4.89 71.6 13.05 194.86 19.67 293.13-4.43 18.12-8.51 34.99-12.01 49.72-17.49 73.72-19.3 89.8-20.27 99.77-.96 9.97-1.03 13.33-1.37 36.54-.35 23.22-.97 66.19-.34 87.73.63 21.53 2.54 20.33 17.84-13.51 15.31-33.84 43.96-100.28 59.94-138.59 15.98-38.32 18.43-46.5 19.44-48.8 1.02-2.3.54 1.53-5.19 25.46a3774 3774 0 0 1-9.64 39.19c-6.01 18.08-16.29 60.25-11.87 45.18 2.7-9.25 7.32-27.08 11.87-45.18 1.17-3.49 2.17-6.09 2.88-7.2 1.19-1.85 2.87 2.08.09 22.89-2.79 20.82-9.43 59.05-14.64 84.56-7.64 37.41-15.99 56.28-23.5 69.55-12.84 22.69-27.12 28.48-27.9 31.08-1.28 4.26 21.57-.55 51.9-8.5 8.27-2.17 17.09-4.57 26.13-7.08 15.87-4.41 20.31-6.29 21.5-7.15 1.08-.78-6.62 0-21.71 5.06-9.68 3.25-18.28 6.31-25.92 9.17-30.33 7.95-53.18 12.76-51.9 8.5.78-2.6 15.06-8.39 27.9-31.08 7.51-13.27 15.86-32.14 23.5-69.55 5.21-25.51 11.85-63.74 14.64-84.56 2.78-20.81 1.1-24.74-.09-22.89-.71 1.11-1.71 3.71-2.88 7.2 3.58-14.24 7.12-28.66 9.64-39.19 5.73-23.93 6.21-27.76 5.19-25.46-1.01 2.3-3.46 10.48-19.44 48.8-15.98 38.31-44.63 104.75-59.94 138.59-15.3 33.84-17.21 35.04-17.84 13.51-.63-21.54-.01-64.51.34-87.73.34-23.21.41-26.57 1.37-36.54.97-9.97 2.78-26.05 20.27-99.77 3.5-14.73 7.58-31.6 12.01-49.72 2.42 36.03 4.64 68.71 6.41 94.24 6.61 95.14 7.01 91.18 7.18-6.89"/><path stroke="#edd8c2" stroke-linecap="round" stroke-opacity=".87" stroke-width="83" d="M4809.21 1008.38c.18-.18.36-.35.48 92.8.12 93.16.17 279.66 0 377.72-.17 98.07-.57 102.03-7.18 6.89-6.6-95.14-19.4-289.51-26.08-387.37-6.67-97.86-6.83-93.32-13.02-4.84-6.2 88.49-18.43 260.77-21.39 267.21-2.97 6.44 3.7-158.18 7.39-244.37 3.68-86.19 4.19-88.97 5.92-90.48 8.44-7.38 21.74-8.3 74.34-52.521 10.93-9.188 12.91-9.858 14.23-9.25 20.73 9.485 9.97 63.051 14.88 85.961 1.93 9.01 4.72 21.2 6.09 32.21 1.37 11.02 1.25 20.5-14.91 89.12s-48.37 196.1-65.87 269.81c-17.49 73.72-19.3 89.8-20.27 99.77-.96 9.97-1.03 13.33-1.37 36.54-.35 23.22-.97 66.19-.34 87.73.63 21.53 2.54 20.33 17.84-13.51 15.31-33.84 43.96-100.28 59.94-138.59 15.98-38.32 18.43-46.5 19.44-48.8 1.02-2.3.54 1.53-5.19 25.46-5.72 23.92-16.68 67.83-21.51 84.37-5.27 17.98 10.38-45.56 14.75-52.38 1.19-1.85 2.87 2.08.09 22.89-2.79 20.82-9.43 59.05-14.64 84.56-7.64 37.41-15.99 56.28-23.5 69.55-12.84 22.69-27.12 28.48-27.9 31.08-1.62 5.43 35.81-3.84 78.03-15.58 15.87-4.41 20.31-6.29 21.5-7.15 1.08-.78-6.62 0-21.71 5.06-62.7 21.05-80.41 34.15-82.01 36.56 2.36 2.23 10.75 2.31 23.89-.39 6.99-1.68 14.63-4 27.97-8.71"/><path stroke="#edd8c2" stroke-linecap="round" stroke-opacity=".87" stroke-width="83" d="M4828.63 1739.73c-2.67.41-12.74 4.62-55.59 38.58-7.66 6.07-4.74 6.62-1.99 5.68 23.46-7.98 53.55-33.81 59.7-44.39 1.74-3.01.73-8.12-.03-12.09s-2.4-7.06-14.35-20.11c-11.95-13.04-34.17-35.96-53.2-58.47-19.04-22.51-34.21-43.93-48.66-68.88-14.46-24.95-27.73-52.79-36.53-76.33-8.79-23.53-12.69-41.92-16-71.63-3.3-29.71-5.89-70.17-8.55-111.86"/><path stroke="#edd8c2" stroke-linecap="round" stroke-opacity=".87" stroke-width="2" d="M729.194 343.534c.315 0 .629 0 .69 172.916s-.142 518.75-1.4 701.47c-1.258 182.73-3.563 191.87-8.794 197.53-5.231 5.65-13.316 7.54-20.387 5.75-12.88-7.31-54.673-86.35-116.462-223.1-25.982-63.41-41.057-114.68-56.588-167.5"/><path fill="#b8893a" fill-opacity=".2" d="M2401.43 105h-3.75q-.315 62.6-.6 125.2c-1.69 375.6-2.53 751.2-2.53 1126.8s.84 751.2 2.53 1126.8c.19 41.73.39 83.47.6 125.2h3.75c.2-41.73.4-83.47.59-125.2 1.69-375.6 2.53-751.2 2.53-1126.8s-.84-751.2-2.53-1126.8c-.19-41.733-.39-83.467-.59-125.2"/><path fill="#fff" fill-opacity=".25" d="M2390.88 105h-3.76c-.2 41.733-.4 83.467-.59 125.2-1.69 375.6-2.53 751.2-2.53 1126.8s.84 751.2 2.53 1126.8c.19 41.73.39 83.47.59 125.2h3.76c.2-41.73.4-83.47.59-125.2 1.69-375.6 2.53-751.2 2.53-1126.8s-.84-751.2-2.53-1126.8c-.19-41.733-.39-83.467-.59-125.2"/><path fill="#b8893a" fill-opacity=".2" d="M2380.43 105h-3.75q-.315 62.6-.6 125.2c-1.69 375.6-2.53 751.2-2.53 1126.8s.84 751.2 2.53 1126.8c.19 41.73.39 83.47.6 125.2h3.75c.2-41.73.4-83.47.59-125.2 1.69-375.6 2.53-751.2 2.53-1126.8s-.84-751.2-2.53-1126.8c-.19-41.733-.39-83.467-.59-125.2"/><path fill="#fff" fill-opacity=".25" d="M2369.88 105h-3.76c-.2 41.733-.4 83.467-.59 125.2-1.69 375.6-2.53 751.2-2.53 1126.8s.84 751.2 2.53 1126.8c.19 41.73.39 83.47.59 125.2h3.76c.2-41.73.4-83.47.59-125.2 1.69-375.6 2.53-751.2 2.53-1126.8s-.84-751.2-2.53-1126.8c-.19-41.733-.39-83.467-.59-125.2"/><path fill="#b8893a" fill-opacity=".2" d="M2359.43 105h-3.75q-.315 62.6-.6 125.2c-1.69 375.6-2.53 751.2-2.53 1126.8s.84 751.2 2.53 1126.8c.19 41.73.39 83.47.6 125.2h3.75c.2-41.73.4-83.47.59-125.2 1.69-375.6 2.53-751.2 2.53-1126.8s-.84-751.2-2.53-1126.8c-.19-41.733-.39-83.467-.59-125.2"/><path fill="#fff" fill-opacity=".25" d="M2348.88 105h-3.76c-.2 41.733-.4 83.467-.59 125.2-1.69 375.6-2.53 751.2-2.53 1126.8s.84 751.2 2.53 1126.8c.19 41.73.39 83.47.59 125.2h3.76c.2-41.73.4-83.47.59-125.2 1.69-375.6 2.53-751.2 2.53-1126.8s-.84-751.2-2.53-1126.8c-.19-41.733-.39-83.467-.59-125.2"/><path fill="#b8893a" fill-opacity=".2" d="M2338.43 105h-3.75q-.315 62.6-.6 125.2c-1.69 375.6-2.53 751.2-2.53 1126.8s.84 751.2 2.53 1126.8c.19 41.73.39 83.47.6 125.2h3.75c.2-41.73.4-83.47.59-125.2 1.69-375.6 2.53-751.2 2.53-1126.8s-.84-751.2-2.53-1126.8c-.19-41.733-.39-83.467-.59-125.2"/><path fill="#fff" fill-opacity=".25" d="M2327.88 105h-3.76c-.2 41.733-.4 83.467-.59 125.2-1.69 375.6-2.53 751.2-2.53 1126.8s.84 751.2 2.53 1126.8c.19 41.73.39 83.47.59 125.2h3.76c.2-41.73.4-83.47.59-125.2 1.69-375.6 2.53-751.2 2.53-1126.8s-.84-751.2-2.53-1126.8c-.19-41.733-.39-83.467-.59-125.2"/><path fill="#b8893a" fill-opacity=".2" d="M2424.05 105h-7c-.1 41.733-.19 83.467-.28 125.2-.81 375.6-1.22 751.2-1.22 1126.8s.84 751.2 2.53 1126.8c.19 41.73.39 83.47.6 125.2h3.75c.2-41.73.4-83.47.59-125.2 1.69-375.6 2.53-751.2 2.53-1126.8s-.4-751.2-1.21-1126.8c-.09-41.733-.19-83.467-.29-125.2"/><path fill="#fff" fill-opacity=".25" d="M2413.5 105h-7c-.1 41.733-.19 83.467-.28 125.2-.81 375.6-1.22 751.2-1.22 1126.8s.84 751.2 2.53 1126.8c.19 41.73.39 83.47.59 125.2h3.76c.2-41.73.4-83.47.59-125.2 1.69-375.6 2.53-751.2 2.53-1126.8s-.41-751.2-1.22-1126.8c-.09-41.733-.18-83.467-.28-125.2"/><path fill="#b8893a" fill-opacity=".2" d="M2445.05 105h-7c-.1 41.733-.19 83.467-.28 125.2-.81 375.6-1.22 751.2-1.22 1126.8s.84 751.2 2.53 1126.8c.19 41.73.39 83.47.6 125.2h3.75c.2-41.73.4-83.47.59-125.2 1.69-375.6 2.53-751.2 2.53-1126.8s-.4-751.2-1.21-1126.8c-.09-41.733-.19-83.467-.29-125.2"/><path fill="#fff" fill-opacity=".25" d="M2434.5 105h-7c-.1 41.733-.19 83.467-.28 125.2-.81 375.6-1.22 751.2-1.22 1126.8s.84 751.2 2.53 1126.8c.19 41.73.39 83.47.59 125.2h3.76c.2-41.73.4-83.47.59-125.2 1.69-375.6 2.53-751.2 2.53-1126.8s-.41-751.2-1.22-1126.8c-.09-41.733-.18-83.467-.28-125.2"/></g></svg>