<svg width="1920" height="2211" viewBox="0 0 1920 2211" fill="none" xmlns="http://www.w3.org/2000/svg">
<defs>
<clipPath id="clip0_2_27">
<rect width="1920" height="2211" fill="white"/>
</clipPath>
<!-- White = keep art; black circles = transparent “punched” holes (manila shows through below) -->
<mask id="notebookHoles" maskUnits="userSpaceOnUse" x="0" y="0" width="1920" height="2211">
<rect width="1920" height="2211" fill="white"/>
<circle cx="102" cy="300" r="30" fill="black"/>
<circle cx="102" cy="1105" r="30" fill="black"/>
<circle cx="102" cy="1960" r="30" fill="black"/>
</mask>
</defs>
<g clip-path="url(#clip0_2_27)">
<g mask="url(#notebookHoles)">
<rect width="1920" height="2211" fill="white"/>
<line y1="203.5" x2="1920" y2="203.5" stroke="#E8DFC8" stroke-opacity="0.87" stroke-width="3"/>
<line y1="317.5" x2="1920" y2="317.5" stroke="#E8DFC8" stroke-opacity="0.87" stroke-width="3"/>
<line y1="431.5" x2="1920" y2="431.5" stroke="#E8DFC8" stroke-opacity="0.87" stroke-width="3"/>
<line y1="545.5" x2="1920" y2="545.5" stroke="#E8DFC8" stroke-opacity="0.87" stroke-width="3"/>
<line y1="658.5" x2="1920" y2="658.5" stroke="#E8DFC8" stroke-opacity="0.87" stroke-width="3"/>
<line y1="772.5" x2="1920" y2="772.5" stroke="#E8DFC8" stroke-opacity="0.87" stroke-width="3"/>
<line y1="886.5" x2="1920" y2="886.5" stroke="#E8DFC8" stroke-opacity="0.87" stroke-width="3"/>
<line y1="1000.5" x2="1920" y2="1000.5" stroke="#E8DFC8" stroke-opacity="0.87" stroke-width="3"/>
<line opacity="0.22" x1="201.5" y1="2211.08" x2="201.5" y2="-0.0822657" stroke="#DC645A" stroke-width="8"/>
<line y1="1118.57" x2="1920" y2="1118.57" stroke="#E8DFC8" stroke-opacity="0.87" stroke-width="3"/>
<line y1="1243.13" x2="1920" y2="1243.13" stroke="#E8DFC8" stroke-opacity="0.87" stroke-width="3"/>
<line y1="1118.57" x2="1920" y2="1118.57" stroke="#E8DFC8" stroke-opacity="0.87" stroke-width="3"/>
<line y1="1243.13" x2="1920" y2="1243.13" stroke="#E8DFC8" stroke-opacity="0.87" stroke-width="3"/>
<line y1="1365.68" x2="1920" y2="1365.68" stroke="#E8DFC8" stroke-opacity="0.87" stroke-width="3"/>
<line y1="1490.25" x2="1920" y2="1490.25" stroke="#E8DFC8" stroke-opacity="0.87" stroke-width="3"/>
<line y1="1365.68" x2="1920" y2="1365.68" stroke="#E8DFC8" stroke-opacity="0.87" stroke-width="3"/>
<line y1="1490.25" x2="1920" y2="1490.25" stroke="#E8DFC8" stroke-opacity="0.87" stroke-width="3"/>
<line y1="1614.81" x2="1920" y2="1614.81" stroke="#E8DFC8" stroke-opacity="0.87" stroke-width="3"/>
<line y1="1739.37" x2="1920" y2="1739.37" stroke="#E8DFC8" stroke-opacity="0.87" stroke-width="3"/>
<line y1="1614.81" x2="1920" y2="1614.81" stroke="#E8DFC8" stroke-opacity="0.87" stroke-width="3"/>
<line y1="1739.37" x2="1920" y2="1739.37" stroke="#E8DFC8" stroke-opacity="0.87" stroke-width="3"/>
<line y1="1863.94" x2="1920" y2="1863.94" stroke="#E8DFC8" stroke-opacity="0.87" stroke-width="3"/>
<line y1="1988.5" x2="1920" y2="1988.5" stroke="#E8DFC8" stroke-opacity="0.87" stroke-width="3"/>
<line y1="1863.94" x2="1920" y2="1863.94" stroke="#E8DFC8" stroke-opacity="0.87" stroke-width="3"/>
<line y1="1988.5" x2="1920" y2="1988.5" stroke="#E8DFC8" stroke-opacity="0.87" stroke-width="3"/>
<line y1="1988.5" x2="1920" y2="1988.5" stroke="#E8DFC8" stroke-opacity="0.87" stroke-width="3"/>
<line y1="2113.06" x2="1920" y2="2113.06" stroke="#E8DFC8" stroke-opacity="0.87" stroke-width="3"/>
<line y1="1988.5" x2="1920" y2="1988.5" stroke="#E8DFC8" stroke-opacity="0.87" stroke-width="3"/>
<line y1="2113.06" x2="1920" y2="2113.06" stroke="#E8DFC8" stroke-opacity="0.87" stroke-width="3"/>
</g>
</g>
</svg>
