<svg xmlns="http://www.w3.org/2000/svg" width="1920" height="2211" fill="none" viewBox="0 0 1920 2211">
  <defs>
    <clipPath id="a">
      <path fill="#fff" d="M0 0h1920v2211H0z"/>
    </clipPath>
    <mask id="b" width="1920" height="2211" x="0" y="0" maskUnits="userSpaceOnUse">
      <path fill="#fff" d="M0 0h1920v2211H0z"/>
      <circle cx="102" cy="300" r="30" fill="#000"/>
      <circle cx="102" cy="1105" r="30" fill="#000"/>
      <circle cx="102" cy="1960" r="30" fill="#000"/>
    </mask>
  </defs>
  <g clip-path="url(#a)" mask="url(#b)">
    <path fill="#fff" d="M0 0h1920v2211H0z"/>
    <path stroke="#e8dfc8" stroke-opacity=".87" stroke-width="3"
      d="M0 203.5h1920
         M0 317.5h1920
         M0 431.5h1920
         M0 545.5h1920
         M0 659.5h1920
         M0 773.5h1920
         M0 887.5h1920
         M0 1001.5h1920
         M0 1115.5h1920
         M0 1229.5h1920
         M0 1343.5h1920
         M0 1457.5h1920
         M0 1571.5h1920
         M0 1685.5h1920
         M0 1799.5h1920
         M0 1913.5h1920
         M0 2027.5h1920
         M0 2141.5h1920"/>
    <path stroke="#dc645a" stroke-width="8" d="M201.5 2211.08V-.082" opacity=".22"/>
  </g>
</svg>
