<svg xmlns="http://www.w3.org/2000/svg" width="1920" height="2211" fill="none" viewBox="0 0 1920 2211"><defs><clipPath id="a"><path fill="#fff" d="M0 0h1920v2211H0z"/></clipPath><mask id="b" width="1920" height="2211" x="0" y="0" maskUnits="userSpaceOnUse"><path fill="#fff" d="M0 0h1920v2211H0z"/><circle cx="102" cy="300" r="30" fill="#000"/><circle cx="102" cy="1105" r="30" fill="#000"/><circle cx="102" cy="1960" r="30" fill="#000"/></mask></defs><g clip-path="url(#a)" mask="url(#b)"><path fill="#fff" d="M0 0h1920v2211H0z"/><path stroke="#e8dfc8" stroke-opacity=".87" stroke-width="3" d="M0 203.5h1920M0 317.5h1920M0 431.5h1920M0 545.5h1920M0 658.5h1920M0 772.5h1920M0 886.5h1920M0 1000.5h1920"/><path stroke="#dc645a" stroke-width="8" d="M201.5 2211.08V-.082" opacity=".22"/><path stroke="#e8dfc8" stroke-opacity=".87" stroke-width="3" d="M0 1118.57h1920M0 1243.13h1920M0 1118.57h1920M0 1243.13h1920M0 1365.68h1920M0 1490.25h1920M0 1365.68h1920M0 1490.25h1920M0 1614.81h1920M0 1739.37h1920M0 1614.81h1920M0 1739.37h1920M0 1863.94h1920M0 1988.5h1920M0 1863.94h1920M0 1988.5h1920m-1920 0h1920M0 2113.06h1920M0 1988.5h1920M0 2113.06h1920"/></g></svg>