<svg width="730" height="965" viewBox="0 0 730 965" fill="none" xmlns="http://www.w3.org/2000/svg">
<path d="M362.866 916.694C362.72 900.88 359.274 852.597 352.194 829.107C350.669 824.044 347.685 819.602 338.815 807.954C329.945 796.307 314.705 777.798 278.126 741.41C241.547 705.022 184.091 651.316 145.681 611.442C107.271 571.567 89.6471 547.152 77.5972 528.035C65.5472 508.918 59.6049 495.839 53.8358 477.721C48.0667 459.604 42.6508 436.845 39.405 410.157C36.1591 383.469 35.2473 353.542 35.5565 333.556C36.0081 304.377 40.3763 290.786 45.0563 278.967C48.1065 271.265 53.6659 260.575 65.7323 241.701C77.7986 222.827 96.4943 196.215 114.924 174.234C133.354 152.254 150.951 135.712 165.355 123.647C179.76 111.583 190.438 104.497 207.14 95.9435C223.841 87.3906 246.241 77.5856 282.157 67.4406C318.072 57.2957 366.824 47.1078 403.742 41.5675C440.66 36.0273 464.267 35.4433 479.102 35.5039C499.301 35.5863 510.311 38.652 525.322 44.1498C548.696 52.7103 567.895 64.5215 584.405 78.1238C595.295 87.0958 609.572 102.254 621.459 116.266C633.346 130.277 641.973 143.191 650.452 159.61C658.93 176.03 666.997 195.563 674.276 230.265C681.556 264.967 687.802 314.245 690.984 348.856C694.166 383.466 694.094 401.915 692.926 415.366C691.758 428.816 689.497 436.709 682.48 452.201C675.464 467.694 663.761 490.546 654.491 506.069C640.187 530.02 625.754 542.516 601.724 560.58C584.447 573.568 555.04 591.816 531.752 609.092C508.464 626.369 491.724 641.482 481 651.518C465.788 665.755 450.465 686.324 432.853 711.185C419.677 729.784 413.214 749.151 409.715 765.689C406.386 781.424 405.95 793.32 405.155 808.856C404.582 847.69 403.96 876.479 403.149 885.514C402.726 891.751 402.278 901.343 401.817 911.226" stroke="#1E1E1E" stroke-width="71" stroke-linecap="round"/>
<path d="M467.275 451.6C467.059 451.6 466.844 451.6 449.227 451.6C431.609 451.6 396.597 451.6 371.718 449.806C332.882 447.006 308.961 436.148 291.165 427.571C277.981 421.216 258.66 402.638 232.603 375.488C211.426 353.424 200.895 329.972 193.548 312.873C189.497 303.444 189.268 285.455 190.026 260.79C190.479 246.053 199.118 234.197 213.329 215.304C222.388 203.259 237.818 188.312 250.98 176.457C274.166 155.574 295.372 144.255 313.041 135.757C330.421 127.398 354.914 123.58 384.76 120.913C432.515 116.646 441.618 122.086 459.813 129.372C475.685 135.728 486.865 145.895 494.994 153.827C506.15 164.711 519.077 190.588 532.877 220.137C538.416 231.997 539.67 238.084 540.884 254.141C544.06 296.122 542.205 330.307 539.389 342.982C535.832 358.991 527.587 371.452 521.065 380.146C513.538 390.181 505.04 396.881 494.782 407.704C485.156 418.342 478.976 423.965 470.424 431.134C468.376 432.741 466.773 433.846 462.771 436.124" stroke="#1E1E1E" stroke-width="71" stroke-linecap="round"/>
<path d="M297.807 97.6306C293.203 97.6306 279.179 98.564 256.362 107.418C241.433 113.211 235.157 119.676 196.498 166.361C185.945 179.106 175.835 194.419 161.351 216.088C145.823 239.32 139.588 263.372 130.524 301.565C123.421 331.493 128.19 354.006 130.991 365.72C136.064 386.927 146.365 408.023 162.472 431.793C173.278 447.74 193.355 468.729 206.082 482.321C218.809 495.912 224.581 500.744 227.145 501.854C229.708 502.963 228.887 500.204 216.246 471.989C203.604 443.775 179.167 390.188 164.647 356.274C150.127 322.359 146.265 309.74 141.321 297.147C125.24 256.178 118.029 248.26 110.351 236.658C108.899 234.462 106.559 235.985 103.983 242.021C96.8626 258.709 93.4814 277.606 92.0379 297.168C91.1138 309.69 91.9608 327.592 94.3384 347.564C96.716 367.536 101.151 389.063 107.407 408.537C119.312 445.597 132.726 466.219 140.277 475.832C150.287 488.577 169.193 502.588 210.678 527.04C240.039 544.346 287.949 568.663 313.657 581.967C339.365 595.271 341.85 596.075 342.878 595.386C343.906 594.697 343.404 592.491 323.937 566.167C304.47 539.843 266.055 489.468 236.583 450.596C207.111 411.723 187.748 385.879 173.028 368.217C158.309 350.554 148.82 341.858 137.354 329.864C96.2355 286.853 90.1503 276.74 82.5539 273.286C73.6861 269.254 69.6845 302.244 67.3942 334.029C66.9865 339.688 67.9656 342.126 84.227 377.868C100.488 413.61 132.548 482.597 150.591 520.317C170.906 562.784 179.435 571.508 194.945 585.287C205.601 594.752 222.958 608.025 240.7 620.779C275.697 645.937 296.244 658.236 303.366 665.616C319.153 681.978 330.449 689.2 337.688 691.683C354.466 697.438 357.734 712.252 364.231 717.102C370.501 721.784 359.75 737.577 357.962 744.423C357.299 746.96 356.917 729.9 357.349 711.555C357.743 694.783 369.627 667.951 386.233 633.606C393.831 617.891 402.137 606.867 415.345 591.66C428.553 576.453 447.021 557.708 462.432 543.698C477.843 529.689 489.636 520.985 508.244 510.126C526.852 499.267 551.916 486.516 570.583 478.163C589.25 469.81 600.762 466.242 605.353 465.005C609.944 463.769 607.266 464.973 580.981 486.981C554.697 508.989 504.887 551.765 469.259 584.664C433.63 617.563 413.693 639.289 402.413 651.792C391.133 664.295 389.116 666.918 414.764 642.556C440.413 618.193 493.788 566.766 525.983 536.852C558.177 506.938 567.573 500.095 570.823 496.883C574.073 493.671 570.892 494.295 538.982 513.43C507.072 532.565 446.529 570.191 402.535 595.822C358.541 621.454 332.931 633.951 319.07 639.516C305.208 645.08 303.87 643.333 303.587 640.564C302.922 634.07 307.576 623.966 315.446 608.357C326.835 585.768 340.534 569.22 349.735 559.596C360.023 548.835 377.036 539.994 396.265 530.888C436.051 512.049 471.232 515.554 476.569 516.974C481.318 518.238 460.999 531.136 439.445 543.955C417.105 557.241 399.178 561.649 384.959 563.744C360.05 567.413 338.517 564.952 325.251 560.804C291.415 550.223 275.443 532.004 268.523 522.924C265.931 519.524 267.181 511.804 267.658 503.774C267.967 498.583 286.908 497.207 324.438 498.129C345.346 498.643 370.001 500.375 396.341 497.287C422.681 494.199 449.95 486.527 467.989 481.3C505.179 470.523 514.533 468.016 528.575 464.001C540.309 460.645 545.988 452.817 569.162 415.183C576.913 402.596 579.844 389.837 583.013 369.884C587.326 342.719 583.586 318.279 577.126 292.245C572.644 274.182 563.35 246.897 554.463 223.533C545.575 200.169 536.771 181.712 527.665 165.617C510.682 135.598 493.664 115.518 482.599 103.329C468.428 87.7198 449.962 82.3653 404.469 75.3159C389.48 72.9931 373.729 73.5981 383.26 73.4489C392.79 73.2997 427.966 73.2997 450.535 74.4449C482.149 76.0489 495.433 81.8315 508.078 87.4342C529.304 96.8381 547.199 108.733 559.479 119.107C574.548 131.836 584.087 144.599 593.003 161.228C599.69 173.7 609.247 195.144 618.823 224.857C628.4 254.57 637.317 292.102 642.105 324.958C646.894 357.813 647.284 384.854 647.047 400.959C639.3 441.023 626.466 473.711 623.977 477.337C622.685 478.983 621.332 480.238 619.939 481.53" stroke="#1E1E1E" stroke-width="71" stroke-linecap="round"/>
<path d="M379.575 906.316C379.575 912.442 379.876 926.368 379.773 928.477C379.672 930.538 375.996 923.908 373.48 921.962C372.314 921.061 370.358 922.354 369.004 921.77C367.65 921.186 366.697 919.202 365.761 916.999C364.826 914.796 363.935 912.434 362.053 907.288" stroke="#1E1E1E" stroke-width="71" stroke-linecap="round"/>
<path d="M332.092 737.676C332.092 737.936 332.092 738.196 331.469 737.905C330.846 737.614 329.601 736.766 317.587 723.68C305.574 710.593 282.831 685.296 259.398 659.232" stroke="#1E1E1E" stroke-width="71" stroke-linecap="round"/>
<path d="M259.246 694.702C260.865 695.876 273.377 711.979 301.249 754.914C320.336 784.314 347.692 830.297 362.564 854.675C380.632 884.289 383.208 890.016 384.85 891.875C386.454 893.692 387.492 884.962 393.771 865.854C399.106 849.615 411.039 820.871 442.183 773.176C473.327 725.481 523.891 659.904 561.43 616.271C598.97 572.638 621.954 552.935 633.067 543.532C644.18 534.129 642.727 535.623 626.387 547.896C610.046 560.169 578.863 583.176 550.776 608.67C522.689 634.164 498.643 661.448 478.932 687.713C459.221 713.979 444.572 738.399 435.395 754.129C416.654 786.254 408.712 812.335 404.293 837.035C398.858 867.417 398.47 884.5 392.968 899.001C391.391 903.156 388.145 909.161 396.496 901.877C404.846 894.594 424.622 873.727 439.389 856.042C454.155 838.358 463.313 824.487 472.653 808.257C492.156 774.37 504.425 749.803 513.528 734.913C527.272 712.432 539.198 687.447 549.184 670.232C555.302 659.685 572.288 639.41 595.118 609.796C612.357 578.873 615.089 567.834 614.925 565.132C614.638 564.824 613.936 566.676 612.229 570.042" stroke="#1E1E1E" stroke-width="71" stroke-linecap="round"/>
<path d="M382.333 924.454C378.905 921.278 369.42 912.303 349.279 890.019C338.735 878.353 330.442 869.377 325.604 862.509C320.092 854.682 311.785 846.419 297.297 829.488C283.574 813.452 270.348 797.857 262.859 790.015C250.666 777.247 232.496 755.702 202.009 721.68C170.134 686.11 152.649 664.021 145.411 656.564C132.622 643.387 120.978 630.295 109.24 616.744C77.1095 575.319 71.0965 565.536 69.1134 561.735C67.9979 559.675 66.6608 557.347 63.3508 551.45" stroke="#1E1E1E" stroke-width="71" stroke-linecap="round"/>
<path d="M63.3508 551.45C63.3508 547.413 59.8375 529.443 54.9909 513.025C44.3858 477.1 37.7903 455.95 36.1734 448.648C33.4669 436.424 41.0624 476.119 42.9442 491.391C45.0809 508.731 50.2137 525.794 58.5246 537.358C65.0696 543.532 83.3291 555.148 107.682 568.522C117.589 573.645 122.518 575.387 127.596 577.182" stroke="#1E1E1E" stroke-width="71" stroke-linecap="round"/>
</svg>
