<svg xmlns="http://www.w3.org/2000/svg" width="730" height="965" fill="none" viewBox="0 0 730 965"><path stroke="#1e1e1e" stroke-linecap="round" stroke-width="71" d="M362.866 916.694c-.146-15.814-3.592-64.097-10.672-87.587-1.525-5.063-4.509-9.505-13.379-21.153s-24.11-30.156-60.689-66.544-94.035-90.094-132.445-129.968c-38.41-39.875-56.034-64.29-68.084-83.407s-17.992-32.196-23.761-50.314c-5.77-18.117-11.185-40.876-14.431-67.564s-4.158-56.615-3.849-76.601c.452-29.179 4.82-42.77 9.5-54.589 3.05-7.702 8.61-18.392 20.676-37.266 12.067-18.874 30.762-45.486 49.192-67.467 18.43-21.98 36.027-38.522 50.431-50.587 14.405-12.064 25.083-19.15 41.785-27.704 16.701-8.552 39.101-18.357 75.017-28.502s84.667-20.333 121.585-25.873 60.525-6.125 75.36-6.064c20.199.082 31.209 3.148 46.22 8.646 23.374 8.56 42.573 20.372 59.083 33.974 10.89 8.972 25.167 24.13 37.054 38.142 11.887 14.011 20.514 26.925 28.993 43.344 8.478 16.42 16.545 35.953 23.824 70.655 7.28 34.702 13.526 83.98 16.708 118.591s3.11 53.059 1.942 66.51c-1.168 13.45-3.429 21.343-10.446 36.835s-18.719 38.345-27.989 53.868c-14.304 23.951-28.737 36.447-52.767 54.511-17.277 12.988-46.684 31.236-69.972 48.512-23.288 17.277-40.028 32.39-50.752 42.426-15.212 14.237-30.535 34.806-48.147 59.667-13.176 18.599-19.639 37.966-23.138 54.504-3.329 15.735-3.765 27.631-4.56 43.167-.573 38.834-1.195 67.623-2.006 76.658-.423 6.237-.871 15.829-1.332 25.712"/><path stroke="#1e1e1e" stroke-linecap="round" stroke-width="71" d="M467.275 451.6h-18.048c-17.618 0-52.63 0-77.509-1.794-38.836-2.8-62.757-13.658-80.553-22.235-13.184-6.355-32.505-24.933-58.562-52.083-21.177-22.064-31.708-45.516-39.055-62.615-4.051-9.429-4.28-27.418-3.522-52.083.453-14.737 9.092-26.593 23.303-45.486 9.059-12.045 24.489-26.992 37.651-38.847 23.186-20.883 44.392-32.202 62.061-40.7 17.38-8.359 41.873-12.177 71.719-14.844 47.755-4.267 56.858 1.173 75.053 8.459 15.872 6.356 27.052 16.523 35.181 24.455 11.156 10.884 24.083 36.761 37.883 66.31 5.539 11.86 6.793 17.947 8.007 34.004 3.176 41.981 1.321 76.166-1.495 88.841-3.557 16.009-11.802 28.47-18.324 37.164-7.527 10.035-16.025 16.735-26.283 27.558-9.626 10.638-15.806 16.261-24.358 23.43-2.048 1.607-3.651 2.712-7.653 4.99"/><path stroke="#1e1e1e" stroke-linecap="round" stroke-width="71" d="M297.807 97.63c-4.604 0-18.628.934-41.445 9.788-14.929 5.793-21.205 12.258-59.864 58.943-10.553 12.745-20.663 28.058-35.147 49.727-15.528 23.232-21.763 47.284-30.827 85.477-7.103 29.928-2.334 52.441.467 64.155 5.073 21.207 15.374 42.303 31.481 66.073 10.806 15.947 30.883 36.936 43.61 50.528s18.499 18.423 21.063 19.533c2.563 1.109 1.742-1.65-10.899-29.865-12.642-28.214-37.079-81.801-51.599-115.715s-18.382-46.534-23.326-59.127c-16.081-40.969-23.292-48.887-30.97-60.489-1.452-2.196-3.792-.673-6.368 5.363-7.12 16.688-10.502 35.585-11.945 55.147-.924 12.522-.077 30.424 2.3 50.396 2.378 19.972 6.813 41.499 13.069 60.973 11.905 37.06 25.319 57.682 32.87 67.295 10.01 12.745 28.916 26.756 70.401 51.208 29.361 17.306 77.271 41.623 102.979 54.927s28.193 14.108 29.221 13.419.526-2.895-18.941-29.219-57.882-76.699-87.354-115.571-48.835-64.717-63.555-82.379-24.208-26.359-35.674-38.353c-41.119-43.011-47.204-53.124-54.8-56.578-8.868-4.032-12.87 28.958-15.16 60.743-.407 5.659.572 8.097 16.833 43.839s48.321 104.729 66.364 142.449c20.315 42.467 28.844 51.191 44.354 64.97 10.656 9.465 28.013 22.738 45.755 35.492 34.997 25.158 55.544 37.457 62.666 44.837 15.787 16.362 27.083 23.584 34.322 26.067 16.778 5.755 20.046 20.569 26.543 25.419 6.27 4.682-4.481 20.475-6.269 27.321-.663 2.537-1.045-14.523-.613-32.868.394-16.772 12.278-43.604 28.884-77.949 7.598-15.715 15.904-26.739 29.112-41.946s31.676-33.952 47.087-47.962c15.411-14.009 27.204-22.713 45.812-33.572s43.672-23.61 62.339-31.963 30.179-11.921 34.77-13.158c4.591-1.236 1.913-.032-24.372 21.976-26.284 22.008-76.094 64.784-111.722 97.683s-55.566 54.625-66.846 67.128-13.297 15.126 12.351-9.236 79.024-75.79 111.219-105.704 41.59-36.757 44.84-39.969.069-2.588-31.841 16.547-92.453 56.761-136.447 82.392c-43.994 25.632-69.604 38.129-83.465 43.694-13.862 5.564-15.2 3.817-15.483 1.048-.665-6.494 3.989-16.598 11.859-32.207 11.389-22.589 25.088-39.137 34.289-48.761 10.288-10.761 27.301-19.602 46.53-28.708 39.786-18.839 74.967-15.334 80.304-13.914 4.749 1.264-15.57 14.162-37.124 26.981-22.34 13.286-40.267 17.694-54.486 19.789-24.909 3.669-46.442 1.208-59.708-2.94-33.836-10.581-49.808-28.8-56.728-37.88-2.592-3.4-1.342-11.12-.865-19.15.309-5.191 19.25-6.567 56.78-5.645 20.908.514 45.563 2.246 71.903-.842s53.609-10.76 71.648-15.987c37.19-10.777 46.544-13.284 60.586-17.299 11.734-3.356 17.413-11.184 40.587-48.818 7.751-12.587 10.682-25.346 13.851-45.299 4.313-27.165.573-51.605-5.887-77.639-4.482-18.063-13.776-45.348-22.663-68.712s-17.692-41.821-26.798-57.916c-16.983-30.019-34.001-50.099-45.066-62.288-14.171-15.61-32.637-20.964-78.13-28.013-14.989-2.323-30.74-1.718-21.209-1.867s44.706-.15 67.275.996c31.614 1.604 44.898 7.387 57.543 12.99 21.226 9.403 39.121 21.298 51.401 31.672 15.069 12.729 24.608 25.492 33.524 42.121 6.687 12.472 16.244 33.916 25.82 63.629s18.494 67.245 23.282 100.101a479 479 0 0 1 4.942 76.001c-7.747 40.064-20.581 72.752-23.07 76.378-1.292 1.646-2.645 2.901-4.038 4.193M379.575 906.316c0 6.126.301 20.052.198 22.161-.101 2.061-3.777-4.569-6.293-6.515-1.166-.901-3.122.392-4.476-.192s-2.307-2.568-3.243-4.771-1.826-4.565-3.708-9.711m-29.961-169.612c0 .26 0 .52-.623.229s-1.868-1.139-13.882-14.225-34.756-38.384-58.189-64.448"/><path stroke="#1e1e1e" stroke-linecap="round" stroke-width="71" d="M259.246 694.702c1.619 1.174 14.131 17.277 42.003 60.212 19.087 29.4 46.443 75.383 61.315 99.761 18.068 29.614 20.644 35.341 22.286 37.2 1.604 1.817 2.642-6.913 8.921-26.021 5.335-16.239 17.268-44.983 48.412-92.678s81.708-113.272 119.247-156.905 60.524-63.336 71.637-72.739 9.66-7.909-6.68 4.364c-16.341 12.273-47.524 35.28-75.611 60.774s-52.133 52.778-71.844 79.043-34.36 50.686-43.537 66.416c-18.741 32.125-26.683 58.206-31.102 82.906-5.435 30.382-5.823 47.465-11.325 61.966-1.577 4.155-4.823 10.16 3.528 2.876 8.35-7.283 28.126-28.15 42.893-45.835 14.766-17.684 23.924-31.555 33.264-47.785 19.503-33.887 31.772-58.454 40.875-73.344 13.744-22.481 25.67-47.466 35.656-64.681 6.118-10.547 23.104-30.822 45.934-60.436 17.239-30.923 19.971-41.962 19.807-44.664-.287-.308-.989 1.544-2.696 4.91M382.333 924.454c-3.428-3.176-12.913-12.151-33.054-34.435-10.544-11.666-18.837-20.642-23.675-27.51-5.512-7.827-13.819-16.09-28.307-33.021-13.723-16.036-26.949-31.631-34.438-39.473-12.193-12.768-30.363-34.313-60.85-68.335-31.875-35.57-49.36-57.659-56.598-65.116-12.789-13.177-24.433-26.269-36.171-39.82-32.13-41.425-38.143-51.208-40.127-55.009-1.115-2.06-2.452-4.388-5.762-10.285"/><path stroke="#1e1e1e" stroke-linecap="round" stroke-width="71" d="M63.35 551.45c0-4.037-3.513-22.007-8.36-38.425-10.604-35.925-17.2-57.075-18.817-64.377-2.706-12.224 4.89 27.471 6.771 42.743 2.137 17.34 7.27 34.403 15.58 45.967 6.546 6.174 24.805 17.79 49.158 31.164 9.907 5.123 14.836 6.865 19.914 8.66"/></svg>