<svg width="1152" height="990" viewBox="0 0 1152 990" fill="none" xmlns="http://www.w3.org/2000/svg">
<path d="M221.916 622.895C221.622 636.287 222.096 667.673 226.53 677.899C228.502 682.445 233.58 688.554 246.504 701.584C259.427 714.615 280.699 734.038 303.127 751.525C325.555 769.011 348.494 783.972 378.797 799.541C409.099 815.111 446.07 830.836 477.58 841.764C509.091 852.691 534.022 858.344 564.472 861.681C594.923 865.018 630.137 865.868 661.527 862.951C692.916 860.034 719.413 853.325 744.309 844.764C769.204 836.202 791.694 825.991 809.763 816.336C841.602 799.321 861.777 781.928 879.58 763.505C904.315 737.91 917.324 716.178 924.083 702.993C928.972 693.457 935.554 677.521 943.097 648.829C950.64 620.137 958.622 579.012 962.803 536.792C966.984 494.571 967.122 452.502 965.178 419.835C963.234 387.167 959.203 365.177 950.729 337.317C942.256 309.457 929.461 276.394 917.482 250.372C905.502 224.35 894.726 206.371 885.827 193.217C876.928 180.063 870.233 172.278 855.74 160.538C841.246 148.799 819.156 133.34 800.243 121.69C767.085 101.264 740.892 91.6718 715.984 84.7144C701.078 80.5507 680.946 77.5239 659 75.5166C637.054 73.5093 613.745 73.2325 600.135 73.2477C586.525 73.2629 583.32 73.5786 565.239 79.3104C547.158 85.0423 514.299 96.1807 488.047 107.454C461.795 118.727 443.146 129.797 427.978 140.225C412.811 150.652 401.689 160.1 385.721 178.556C369.753 197.012 349.276 224.189 332.412 250.193C315.548 276.197 302.919 300.206 288.694 333.204C274.468 366.202 259.029 407.463 249 442.016C238.97 476.569 234.818 503.163 232.131 530.558C229.445 557.954 228.35 585.344 227.972 600.691C229.641 631.029 232.473 654.021 232.909 659.17C233.126 661.575 233.334 663.559 233.549 666.957" stroke="black" stroke-width="36" stroke-linecap="round"/>
<path d="M836.365 382.835C837.035 381.429 837.373 367.961 835.94 357.583C833.908 342.856 810.955 331.871 795.684 322.856C785.368 316.767 768.844 309.377 740.732 301.089C712.62 292.801 673.166 284.294 634.487 279.503C595.809 274.712 559.102 273.897 530.122 275.344C501.142 276.791 481.001 280.527 466.826 283.784C452.651 287.042 445.053 289.709 431.84 295.903C418.627 302.096 400.03 311.735 386.132 319.949C362.967 333.641 351.012 345.948 344.229 355.415C337.648 364.6 335.018 377.766 333.043 392.323C331.12 406.496 332.93 414.911 334.367 416.908C337.562 421.347 356.497 421.043 379.016 417.8C384.335 417.035 389.42 414.046 400.282 408.588C411.144 403.13 427.447 394.473 442.353 387.96C457.259 381.447 470.274 377.341 502.197 374.049C534.119 370.756 584.554 368.401 613.034 367.509C641.513 366.616 646.509 367.256 657.327 370.003C668.145 372.751 684.634 377.587 704.937 385.998C725.24 394.41 748.858 406.251 767.411 414.641C785.965 423.031 798.739 427.611 808.27 430.509C823.515 435.145 834.544 435.636 842.295 435.349C846.479 435.194 848.188 432.614 849.711 430.424C853.172 425.449 853.568 410.161 850.02 391.782C847.852 380.549 836.844 364.209 826.383 346.668C820.853 338.06 817.294 334.184 813.538 331.043C811.812 329.729 810.452 328.983 809.05 328.214" stroke="black" stroke-width="11" stroke-linecap="round"/>
<path d="M796.025 507.83C796.234 507.83 796.446 506.198 796.177 502.772C795.872 498.891 790.934 494.232 784.602 488.957C778.739 484.072 772.61 481.974 745.016 474.518C719.843 467.716 671.7 455.878 624.984 448.636C578.269 441.395 534.365 439.388 510.778 438.447C487.191 437.507 485.25 437.693 478.343 439.47C459.54 444.308 440.688 451.19 425.516 458.93C406.666 468.547 394.816 477.752 389.837 482.271C378.757 492.327 374.887 501.39 372.017 512.14C369.958 519.851 371.709 526.421 373.134 530.546C376.939 541.56 386.117 546.337 392.663 549.745C401.116 554.146 414.895 551.043 426.993 547.374C437.473 544.196 456.411 537.235 473.1 532.47C489.79 527.704 503.567 525.062 520.292 523.515C537.018 521.968 556.274 521.597 573.737 522.751C591.201 523.904 606.287 526.593 626.532 532.696C646.776 538.8 671.72 548.237 687.696 554.484C703.672 560.731 709.923 563.501 722.764 568.444C735.605 573.387 754.846 580.418 767.614 584.726C793.193 593.355 805.201 592.425 813.581 590.363C819.486 588.909 820.684 581.612 822.381 576.097C825.964 564.452 821.923 541.381 817.268 530.663C806.995 516.604 790.075 497.733 778.998 486.175C777.759 485.372 776.357 484.781 774.912 484.172" stroke="black" stroke-width="11" stroke-linecap="round"/>
<path d="M738.349 673.624C738.349 673.532 738.349 671.459 737.868 667.748C737.444 664.472 733.066 661.781 720.728 654.798C710.898 649.234 693.263 640.585 676.485 633.737C659.707 626.889 644.178 622.364 620.721 618.141C597.263 613.918 566.347 610.133 539.994 608.252C513.64 606.371 492.785 606.508 479.739 607.094C452.875 608.301 437.142 620.195 426.76 630.026C416.172 640.051 414.763 647.769 412.838 655.212C411.582 660.072 413.393 664.026 415.649 666.282C418.823 669.456 425.495 671.812 440.713 674.156C451.78 675.86 469.982 675.765 490.007 675.46C510.032 675.156 531.419 673.917 544.844 673.635C563.088 673.252 574.075 676.739 599.797 688.463C619.81 697.585 652.68 715.821 673.021 725.834C699.37 738.805 712.289 739.974 721.571 739.996C728.89 740.013 731.934 733.24 735.104 728.49C738.965 722.703 739.273 716.777 739.255 702.143C737.711 693.783 731.234 683.208 724.648 674.896C723.451 673.747 722.391 672.979 721.299 672.188" stroke="black" stroke-width="11" stroke-linecap="round"/>
<path d="M729.702 670.514C729.702 670.421 729.702 668.881 729.898 667.309C732.021 671.601 735.919 676.408 738.842 679.192C740.17 680.354 741.184 681.006 742.229 681.678" stroke="black" stroke-width="11" stroke-linecap="round"/>
<path d="M693.704 169.872C693.991 170.497 694.279 171.122 694.717 170.731C696.272 169.343 696.161 165.873 695.349 162.914C694.945 161.44 693.608 160.365 691.957 159.459C679.287 152.504 657.07 158.603 646.611 165.354C633.697 173.688 631.563 186.201 629.845 193.481C629.108 196.609 629.651 199.554 630.793 202.35C633.872 209.889 645.037 212.378 663.029 215.378C681.582 218.472 690.783 213.084 697.139 208.196C703.709 203.144 706.529 189.351 708.116 165.474C709.196 149.231 694.751 133.559 683.937 122.364C676.045 114.194 664.482 114.067 646.854 114.517C637.869 114.746 632.421 121.599 628.849 125.459C625.398 129.189 624.651 135.141 625.202 142.542C625.897 144.487 627.221 146.277 629.154 147.998C631.087 149.719 633.589 151.316 636.168 152.962" stroke="black" stroke-width="47" stroke-linecap="round"/>
<path d="M638.462 217.577C638.576 217.242 638.692 215.494 638.212 213.313C638.037 212.521 636.542 213.114 636.061 214.009C634.98 216.021 636.725 218.894 638.616 221.493C640.98 224.74 650.924 231.69 664.241 240.92C679.166 251.266 703.038 253.518 714.613 254C723.432 254.368 731.046 248.469 737.437 241.236C744.095 233.701 744.608 222.346 745.329 198.743C745.715 186.082 735.205 175.618 728.732 169.125C723.876 164.254 711.474 160.754 692.436 158.11C670.553 155.07 658.358 165.156 646.266 174.529C633.682 184.282 629.099 195.74 623.464 211.638C620.773 219.228 622.597 225.628 624.421 229.793C626.314 234.116 632.043 236.671 637.902 239.756C644.372 243.162 658.214 246.121 681.832 249.51C695.448 251.464 712.685 251.321 723.473 251.307C745.223 251.279 757.521 242.517 768.641 233.885C778.205 226.46 780.229 214.476 781.565 202.256C782.904 190.007 776.502 178.391 768.782 166.784C762.228 156.932 751.096 151.095 741.097 146.081C731.185 141.112 713.487 142.242 689.218 147.172C670.056 151.064 662.265 165.514 657.72 171.858C655.588 174.832 655.235 178.933 655.801 182.874C656.286 186.257 668.811 190.691 693.062 198.251C707.243 202.672 725.935 205.84 741.782 208.231C785.387 214.811 792.453 211.019 795.444 209.551C797.855 208.368 798.372 205.058 798.729 201.853C799.575 194.259 789.535 184.315 766.128 163.95C751.98 151.641 733.666 143.963 714.631 136.846C704.756 133.153 693.825 131.069 680.803 129.392C652.967 125.808 635.976 126.335 632.957 127C631.366 127.351 629.843 128.399 629.318 129.85C628.793 131.301 629.361 133.294 630.409 134.781C631.456 136.269 632.966 137.191 645.318 141.443C657.67 145.694 680.818 153.248 696.348 157.554C718.814 163.785 727.868 163.162 729.613 161.485C735.424 155.896 719.317 148.486 711.085 144.4C704.326 141.045 691.477 140.054 678.588 140.004C673.976 139.986 673.327 141.357 673.628 142.546C673.929 143.736 675.211 145.055 702.435 157.756C729.659 170.457 782.785 194.499 810.059 206.254C837.333 218.01 837.143 216.749 831.21 210.884C825.277 205.019 813.605 194.588 805.737 187.916C797.868 181.244 794.158 178.647 803.445 189.297C812.732 199.947 835.129 223.922 846.687 235.645C858.244 247.367 858.282 246.112 853.096 237.971C847.909 229.831 837.496 214.844 829.399 204.464C816.637 188.106 809.019 182.433 807.289 181.961C806.647 181.786 806.871 183.983 816.132 197.456C825.393 210.93 843.782 236.186 847.711 245.329C850.592 252.033 818.651 234.34 800.962 227.232C781.108 219.253 763.688 223.347 754.491 227.749C750.605 229.609 748.711 232.908 747.416 236.313C744.284 244.549 750.63 250.425 754.554 254.944C757.803 258.685 769.519 259.404 778.645 260.928C782.421 261.558 786.368 262.984 784.559 262.58C770.954 259.54 757.555 255.101 752.057 254.526C750.248 254.337 750.441 255.976 752.007 256.644C760.389 260.217 766.682 259.786 783.483 267.618C797.783 274.284 823.391 287.286 839.082 295.684C860.098 306.931 867.982 315.06 874.039 322.141C883.265 332.927 885.311 337.808 886.429 338.49C887.904 339.388 886.655 333.993 880.798 317.501C875.376 302.235 863.858 273.377 857.785 257.56C851.712 241.742 851.145 239.945 851.473 239.674C851.801 239.404 853.039 240.715 859.63 253.1C866.22 265.485 878.124 288.904 884.715 302.132C892.416 317.588 895.153 327.409 899.099 341.554C901.005 348.385 902.923 354.453 904.305 366.553C905.686 378.654 906.524 396.588 906.358 409.743C904.994 430.732 900.815 447.694 895.95 461.702C894.031 466.818 893.227 467.891 891.527 469.257" stroke="black" stroke-width="81" stroke-linecap="round"/>
<path d="M893.393 410.416C893.393 400.855 891.315 376.486 885.232 360.611C879.667 346.087 874.721 338.442 872.77 333.479C871.737 330.849 878.584 343.602 890.625 367.608C895.519 377.366 896.999 382.66 900.085 392.704C903.172 402.749 907.578 417.5 910.379 430.007C913.18 442.513 914.241 452.327 914.795 465.313C915.348 478.298 915.36 494.158 915.788 500.511C915.99 503.507 917.599 480.219 916.539 465.553C916.203 460.905 914.687 499.214 911.727 524.051C908.767 548.888 904.004 568.622 895.862 589.049C887.72 609.475 876.344 629.994 867.84 644.063C848.325 676.35 838.664 681.905 834.084 684.76C832.868 685.33 831.563 685.787 830.229 686.12C828.895 686.452 827.572 686.646 826.208 686.846" stroke="black" stroke-width="81" stroke-linecap="round"/>
<path d="M862.766 472.769C862.766 470.824 862.189 466.084 860.728 464.797C857.215 461.702 851.98 468.763 841.264 469.267C833.1 469.65 822.739 464.575 814.617 462.177C809.419 460.642 804.499 460.145 799.642 459.052C794.841 457.971 789.968 456.29 781.088 452.954C766.21 447.365 757.863 443.013 751.105 440.427C742.606 437.173 726.732 429.268 717.062 425.714C709.435 422.911 695.619 421.543 680.4 419.129C672.266 417.839 666.471 415.592 660.922 414.253C655.194 413.326 648.905 412.751 630.865 411.473C627.066 411.156 625.813 410.954 624.523 410.747" stroke="black" stroke-width="81" stroke-linecap="round"/>
<path d="M861.801 532.399C860.575 531.495 855.282 528.555 851.041 525.355C846.325 521.796 844.052 516.83 840.632 512.845C839.625 511.875 838.467 510.986 837.442 510.093C836.416 509.201 835.557 508.333 834.673 506.455" stroke="black" stroke-width="81" stroke-linecap="round"/>
<path d="M859.455 535.393C859.455 535.482 859.455 547.218 859.003 570.381C858.779 581.861 857.645 592.755 856.048 602.632C853.047 621.192 846.367 637.363 839.193 651.677C835.742 658.565 831.739 664.198 824.296 672.499C805.853 691.473 790.291 705.679 781.817 711.845C777.572 714.8 773.436 717.402 767.39 720.825" stroke="black" stroke-width="81" stroke-linecap="round"/>
<path d="M921.23 575.347C921.329 575.248 921.364 588.337 920.423 614.018C919.535 638.243 913.108 657.085 907.776 669.899C900.302 687.858 886.798 699.088 872.192 712.904C864.868 719.832 856.645 725.405 842.093 734.322C827.54 743.24 806.631 755.03 783.252 765.794C759.873 776.558 734.658 785.938 718.569 791.25C702.479 796.562 696.28 797.52 689.893 798.508" stroke="black" stroke-width="81" stroke-linecap="round"/>
<path d="M786.595 741.821C786.499 741.821 785.234 742.126 767.298 749.241C750.516 755.898 718.389 769.357 698.151 777.108C677.913 784.86 670.601 786.653 638.067 788.557C605.532 790.461 547.996 792.421 488.716 794.441" stroke="black" stroke-width="81" stroke-linecap="round"/>
<path d="M699.459 831.984C699.557 831.984 685.827 831.984 663.919 831.863C655.791 831.818 653.734 831.501 633.508 826.799C613.282 822.096 574.949 812.941 526.137 792.212C477.324 771.484 419.192 739.46 384.994 719.443C350.796 699.426 342.293 692.387 335.6 685.835C324.283 673.432 318.499 665.747 316.505 662.29C315.53 660.489 314.63 658.593 313.702 656.639" stroke="black" stroke-width="81" stroke-linecap="round"/>
<path d="M454.172 771.081C449.808 771.273 437.131 770.939 424.923 767.334C421.802 766.413 419.497 765.267 411.002 759.549C402.506 753.831 387.944 743.409 373.146 731.622C358.348 719.834 343.755 706.997 331.755 695.827C310.405 675.952 300.438 664.568 298.274 661.385C296.179 658.303 294.64 654.958 293.22 650.367C291.082 643.45 290.995 625.793 291.158 602.422C291.229 592.243 291.758 585.484 291.325 582.575C290.893 579.666 289.606 580.814 288.175 582.527C282.175 589.708 280.19 596.541 279.511 612.238C279.259 618.063 285.373 632.793 295.014 655.838C302.915 674.726 312.841 689.653 323.237 703.673C334.026 718.223 348.084 728.63 359.997 736.866C365.542 740.7 370.714 742.859 380.682 745.439C390.65 748.019 405.421 750.704 422.358 752.024C439.295 753.345 457.949 753.219 470.371 752.693C488.458 751.929 500.948 748.414 513.945 745.516C532.439 741.393 539.819 747.698 554.338 754.115C564.555 758.63 580.949 764.793 593.525 769.315C614.297 776.784 626.797 779.508 636.258 780.597C649.592 782.132 659.028 780.774 661.761 779.534C664.294 778.385 666.068 776.292 667.44 774.511C668.101 773.655 667.737 772.338 667.079 771.279C663.447 765.437 652.955 762.283 646.761 758.977C641.222 756.021 634.596 753.729 619.239 746.33C609.928 741.844 603.928 739.695 592.652 734.477C584.249 730.588 578.183 729.117 565.952 723.167C555.652 718.156 550.245 718.28 544.48 717.608C535.677 716.581 524.238 714.761 489.105 714.501C475.122 714.398 453.066 716.748 437.961 714.732C425.552 713.076 418.879 708.936 412.863 707.443C406.439 705.85 399.356 703.576 392.681 701.176C386.052 698.791 381.318 693.705 377.292 689.095C371.662 682.649 369.654 672.936 369.297 658.807C369.123 651.936 373.323 646.506 376.188 639.633C378.507 634.069 382.128 629.085 385.401 625.035C388.576 621.106 393.26 618.772 397.196 615.68C400.859 611.839 403.728 608.421 405.378 606.433C406.218 605.458 407.065 604.552 407.937 603.618" stroke="black" stroke-width="81" stroke-linecap="round"/>
<path d="M459.218 575.57C457.777 575.729 452.643 576.983 449.522 578.234C441.904 581.286 464.937 571.505 471.143 568.458C479.79 564.214 485.927 562.566 487.353 562.506C491.822 562.316 478.386 566.541 475.983 567.815C483.542 567.27 492.16 566.919 499.975 566.811C503.381 566.811 505.649 566.922 507.987 567.036" stroke="black" stroke-width="81" stroke-linecap="round"/>
<path d="M507.987 567.6C502.2 567.6 488.102 568.022 485.023 568.125C472.874 568.53 512.999 557.607 521.373 555.465C529.864 554.845 539.975 554.576 547.425 555.986C548.644 556.436 549.912 556.838 552.142 557.699" stroke="black" stroke-width="81" stroke-linecap="round"/>
<path d="M532.004 568.939C544.837 568.939 574.826 568.191 582.735 567.504C599.652 566.036 608.227 571.374 615.109 574.06C622.003 576.75 628.78 578.5 637.987 581.431C646.382 584.103 651.62 586.414 656.862 588.062C663.473 590.141 677.679 594.778 690.599 600.161C702.933 605.301 729.968 615.778 742.373 620.155C764.743 628.047 782.764 633.821 789.186 635.862C796.544 638.2 802.211 640.521 809.515 640.644C815.31 640.742 817.93 632.854 819.606 629.347C822.561 623.164 807.171 644.173 802.202 652.621C798.323 659.217 795.557 664.878 793.196 669.447C792.076 671.615 790.907 673.762 788.825 674.692C783.01 677.287 778.739 668.292 774.885 664.264C771.433 660.656 768.691 656.568 764.079 653.31C759.624 650.164 755.606 646.005 751.495 643.11C746.462 640.68 743.217 638.67 741.195 637.058C740.181 636.242 739.191 635.433 736.222 632.756" stroke="black" stroke-width="81" stroke-linecap="round"/>
<path d="M271.039 654.023C271.039 654.352 271.039 658.134 271.096 662.776C271.104 663.429 271.612 659.223 272.471 657.953C273.58 656.314 276.95 663.625 279.758 668.201C280.573 669.528 281.085 668.133 281.23 666.37C281.374 664.607 281.374 662.339 279.303 648.716C277.232 635.093 273.091 610.184 270.952 590.831C268.813 571.478 268.802 558.437 270.339 543.782C273.558 513.077 279.193 493.214 281.133 486.84C282.017 484.155 282.697 482.585 283.238 481.158C283.78 479.73 284.161 478.493 284.769 477.316" stroke="black" stroke-width="81" stroke-linecap="round"/>
<path d="M611.777 401.988C611.681 401.988 604.268 401.988 592.507 401.878C586.903 401.548 584.444 401.134 581.979 400.71C580.729 400.474 579.483 400.195 576.902 399.456" stroke="black" stroke-width="81" stroke-linecap="round"/>
<path d="M606.898 132.171C605.521 130.918 581.305 130.398 556.995 133.648C552.357 134.268 548.107 136.463 536.876 142.043C525.646 147.623 507.702 157.19 488.187 169.44C468.671 181.69 448.127 196.334 425.15 213.007" stroke="black" stroke-width="81" stroke-linecap="round"/>
<path d="M661.529 206.091C661.478 205.986 661.427 205.881 646.123 205.826C630.818 205.77 600.261 205.767 575.363 208.008C550.465 210.249 532.152 214.733 506.687 223.426C481.222 232.119 449.16 244.883 415.389 258.599" stroke="black" stroke-width="81" stroke-linecap="round"/>
<path d="M403.054 242.024C401.744 241.602 395.856 242.261 387.484 247.189C380.616 251.231 376.337 258.89 367.531 271.012C362.418 277.518 355.635 284.983 347.317 294.015C344.103 297.415 342.935 298.414 341.349 299.956" stroke="black" stroke-width="81" stroke-linecap="round"/>
<path d="M384.889 274.073V274.847" stroke="black" stroke-width="81" stroke-linecap="round"/>
<path d="M627.442 225.617C627.651 225.408 605.116 225.196 567.939 224.469C547.598 224.072 533.449 221.403 519.879 221.499C509.382 221.574 504.882 226.223 500.844 229.47C499.876 230.248 499.071 231.245 499.296 231.607C501.774 235.598 509.014 229.645 510.681 229.467C514.913 229.014 501.757 231.693 496.566 232.827C495.051 233.157 493.394 234.055 493.368 234.193C492.403 239.361 505.959 231.651 531.647 230.878C569.835 229.73 575.206 231.996 580.863 232.728C584.224 233.35 592.963 233.815 604.129 234.08C608.365 234.238 609.696 234.446 612.854 235.78" stroke="black" stroke-width="81" stroke-linecap="round"/>
<path d="M320.213 560.889C320.411 562.759 320.871 569.537 321.93 574.897C323.497 582.835 331.941 594.683 337.152 600.482C338.172 601.616 339.514 602.138 340.717 602.328C345.304 603.051 348.768 597.475 358.084 597.106C363.971 596.872 369.869 598.595 377.895 599.745C389.792 601.449 407.074 599.485 408.181 597.923C413.333 590.658 385.885 596.007 377.635 590.973C368.547 585.427 361.583 577.565 357.054 574.15C351.996 570.336 346.937 564.899 337.367 553.682C327.619 542.258 325.427 527.152 324.774 517.182C324.026 505.759 327.169 500.202 329.386 494.8C331.436 489.926 334.315 484.08 336.345 476.992C336.614 473.934 336.716 468.961 334.717 463.013" stroke="black" stroke-width="81" stroke-linecap="round"/>
<path d="M314.575 327.202C314.257 332.469 311.308 353.771 309.36 365.854C308.979 368.211 308.558 370.823 315.326 364.198C337.244 342.742 349.277 325.437 345.314 326.894C330.562 332.32 322.376 343.09 315.388 353.108C312.331 357.49 311.265 363.222 310.879 367.264C310.703 369.107 320.193 360.28 329.09 351.481C331.276 349.319 326.238 367.447 317.181 395.084C311.306 413.011 309.269 420.938 308.616 421.788C307.461 423.293 316.792 401.924 328.371 375.001C337.146 354.595 337.295 344.214 334.707 338.616C329.351 327.027 316.868 366.965 310.323 385.445C300.039 414.481 306.09 430.993 308.289 435.295C312.331 443.203 314.12 414.068 314.787 412.901C315.464 411.718 316.314 419.125 317.475 423.761C319.958 433.675 306.768 391.033 304.578 375.727C303.317 366.908 287.652 398.899 282.241 414.039C281.211 416.922 281.041 418.516 281.012 418.69C280.828 419.772 285.012 407.634 290.222 395.494C293.664 387.473 282.51 424.966 280.86 431.764C280.316 433.637 280.368 432.309 280.551 430.917C280.733 429.525 281.044 428.109 281.462 423.987" stroke="black" stroke-width="29" stroke-linecap="round"/>
<path d="M558.202 390.655C558.25 390.631 558.299 390.607 551.605 390.704C544.911 390.801 531.474 391.02 518.418 392.172C505.362 393.324 493.094 395.402 483.896 397.46C474.699 399.518 468.943 401.493 462.502 404.408C456.06 407.324 449.107 411.12 444.495 413.888C439.883 416.656 437.822 418.28 436.575 419.403C435.328 420.526 434.957 421.098 434.372 422.704" stroke="black" stroke-width="29" stroke-linecap="round"/>
<path d="M477.758 393.602C477.803 393.556 469.151 393.62 453.567 394.355C446.636 394.682 441.781 396.209 433.484 399.785C425.187 403.361 413.62 409.272 404.953 414.506C396.287 419.74 390.87 424.118 383.972 432.088C377.074 440.057 368.859 451.485 364.337 457.924C359.816 464.363 359.238 465.467 358.822 466.307C357.514 468.947 363.413 451.401 363.59 446.924C363.698 444.191 354.576 436.774 350.691 431.999C348.99 429.907 359.084 429.575 366.452 429.449C367.835 429.426 368.762 429.7 373.833 431.064C378.904 432.428 388.087 434.993 398.39 436.766C408.693 438.539 419.839 439.442 431.322 440.373" stroke="black" stroke-width="29" stroke-linecap="round"/>
<path d="M580.961 417.244C580.939 417.266 580.917 417.288 557.797 418.379C534.678 419.47 488.462 421.629 461.198 423.464C433.935 425.299 427.025 426.744 420.221 428.82C413.416 430.897 406.927 433.56 400.518 437.003C394.109 440.445 387.977 444.586 384.556 446.954C381.135 449.322 380.61 449.79 380.068 450.273" stroke="black" stroke-width="29" stroke-linecap="round"/>
<path d="M555.667 430.185C555.715 430.185 555.763 430.185 541.386 430.199C527.009 430.212 498.205 430.24 480.489 430.702C462.772 431.164 457.017 432.058 450.11 433.799C443.203 435.54 435.32 438.1 429.244 440.522C423.168 442.943 419.14 445.15 406.956 456.162C394.772 467.173 374.555 486.924 363.615 497.756C352.675 508.589 351.624 509.905 350.542 511.26" stroke="black" stroke-width="29" stroke-linecap="round"/>
<path d="M858.232 373.234C858.232 376.467 858.47 384.948 859.811 391.01C860.726 395.148 862.258 399.703 863.549 405.074C863.849 407.443 864.025 410.109 864.161 411.916C864.209 412.181 864.214 411.123 864.219 410.032" stroke="black" stroke-width="29" stroke-linecap="round"/>
<path d="M538.487 90.6885C538.686 90.6885 515.721 90.8232 479.024 91.6826C461.784 92.0863 439.464 109.245 407.804 134.054C394.691 144.329 388.74 151.348 374.344 171.16C336.635 223.057 312.969 259.494 307.557 267.367C286.775 297.603 276.275 320.975 270.421 334.256C268.75 339.317 256.638 368.63 238.675 411.688C232.057 428.01 230.512 433.106 228.522 440.474" stroke="black" stroke-width="44" stroke-linecap="round"/>
<path d="M229.105 440.474C229.105 447.823 227.227 467.4 216.017 502.445C207.935 527.712 201.114 555.154 195.653 580.015C191.145 600.542 194.258 615.941 201.428 636.872C231.567 707.804 243.875 724.828 254.987 733.852C257.481 734.842 260.147 735.282 268.878 735.734" stroke="black" stroke-width="44" stroke-linecap="round"/>
<path d="M268.878 735.734C265.923 734.426 256.294 726.188 245.358 706.565C225.578 671.075 226.825 646.693 224.756 606.653C223.348 579.433 224.759 538.075 225.761 510.049C228.218 468.553 231.733 445.937 238.211 424.07C242.672 410.941 249.519 393.685 260.681 371.729" stroke="black" stroke-width="44" stroke-linecap="round"/>
<path d="M199.366 663.434C199.564 663.434 201.333 666.091 219.878 687.242C236.384 706.068 268.794 739.986 296.863 765.306C348.06 805.979 374.199 822.931 378.957 825.027C381.404 825.988 383.917 826.741 392.061 826.4" stroke="black" stroke-width="44" stroke-linecap="round"/>
<path d="M392.061 826.4C401.561 826.4 431.177 829.317 496.294 848.147C529.498 857.749 545.118 863.559 580.883 867.707C597.307 869.612 623.33 868.101 656.907 862.43C690.483 856.758 730.932 845.518 755.486 838.024C798.357 821.414 818.247 804.898 839.33 785.593C847.077 778.338 848.83 776.245 851.734 771.078" stroke="black" stroke-width="44" stroke-linecap="round"/>
<path d="M218.509 608.86C218.509 608.667 218.669 584.533 220.434 540.102C221.892 503.41 230.657 472.906 234.787 449.868C236.893 438.118 245.238 421.166 265.918 384.494C278.895 361.48 299.847 331.239 319.184 303.611C355.505 251.716 379.5 220.458 388.186 205.415C404.582 177.02 408.495 154.17 417.479 145.379C423.426 139.561 428.377 134.81 428.448 130.895C428.521 126.855 417.906 127.619 409.015 128.101C401.46 128.511 392.007 134.373 368.093 152.915C349.834 167.072 321.307 193.556 303.638 209.723C280.172 231.193 271.241 243.157 256.598 270.357C245.148 291.629 227.889 329.288 217.846 350.986C205.631 377.377 200.56 398.508 192.884 432.103C178.316 495.857 176.321 516.741 174.952 539.51C172.07 587.479 178.97 607.607 184.273 624.887C190.981 646.744 210.036 665.703 236.492 693.372C268.842 727.208 300.269 749.595 315.489 760.14C333.563 772.662 358.949 783.06 386.033 791.647C398.651 795.648 409.633 796.715 435.582 797.841C461.531 798.966 502.281 799.553 523.205 798.135C544.128 796.718 543.99 793.279 543.848 789.735" stroke="black" stroke-width="44" stroke-linecap="round"/>
<path d="M498.656 112.037C513.024 111.158 548.886 109.908 591.445 102.266C600.486 100.642 602.967 100.665 602.939 99.9297C602.053 77.0151 538.629 84.6765 484.156 103.839C414.177 128.456 400.739 151.057 386.862 161.351C381.847 165.071 376.902 168.885 374.131 169.702C367.282 171.721 400.171 146.765 436.754 123.531C471.866 101.23 508.14 86.1363 535.418 75.187C548.993 69.738 572.692 69.5905 612.194 70.9788C651.331 72.3543 680.714 86.3685 698.891 97.283C707.14 102.237 712.407 107.588 734.502 133.534C756.597 159.479 795.103 206.261 815.834 232.088C836.565 257.916 838.353 261.371 841.711 269.068" stroke="black" stroke-width="44" stroke-linecap="round"/>
<path d="M853.9 358.2C853.9 358.386 853.9 364.872 855.155 379.447C858.919 397.412 862.434 414.686 864.013 435.617C864.661 449.353 865.001 469.41 865.351 490.076" stroke="black" stroke-width="44" stroke-linecap="round"/>
<path d="M351.861 813.968C363.316 813.968 409.184 820.09 428.787 825.748C431.463 826.52 434.065 828.147 428.92 828.951C410.895 831.768 393.671 829.976 389.562 830.13C381.666 830.425 421.985 843.137 442.799 848.895C452.661 851.623 495.197 854.872 554.116 858.481C583.217 860.264 615.667 861.337 659.837 860.258C678.543 859.801 689.651 857.679 692.148 856.863C708.554 851.507 634.37 867.961 605.165 873.194C567.243 879.988 536.003 863.763 486.474 853.448C457.128 843.838 433.609 829.232 406.868 802.34C401.675 796.199 399.557 792.513 397.374 788.716" stroke="black" stroke-width="44" stroke-linecap="round"/>
<path d="M536.836 87.6291C523.612 87.6291 488.752 91.4432 463.987 106.209C419.391 134.292 380.024 161.248 363.834 175.354C357.205 181.275 353.798 184.682 349.006 189.523" stroke="black" stroke-width="44" stroke-linecap="round"/>
<path d="M369.392 178.247C369.915 175.077 386.081 156.308 406.807 139.639C423.265 126.402 435.61 120.966 445.974 115.047C455.812 109.428 465.551 105.119 475.644 100.62C489.46 94.4617 500.949 88.3558 510.759 84.0822C515.643 81.9542 521.046 81.3497 523.472 80.3605C535.631 75.4013 491.71 80.5291 477.805 87.1417C472.489 90.0229 464.96 94.3787 443.381 109.156C421.802 123.934 386.402 149.001 348.685 177.916" stroke="black" stroke-width="44" stroke-linecap="round"/>
</svg>
