<svg xmlns="http://www.w3.org/2000/svg" width="1437" height="1069" fill="none" viewBox="0 0 1437 1069"><path stroke="#1e1e1e" stroke-linecap="round" stroke-width="71" d="M308.006 362.137c0-.824.411 2.458 1.859 49.865 1.334 43.693 2.682 127.286 3.737 171.786 1.123 47.392 1.89 64.763 2.096 87.628 1.042 22.927 1.454 45.885 2.077 54.768.212 6.825.212 18.354.212 30.233m264.517-396.776c1.66 2.883 2.496 30.145 3.737 48.206.921 13.392 3.325 24.936 3.956 34.524.164 2.505.617 5.384.829 22.927s.212 49.66.418 67.851c.243 21.494 1.454 28.586 2.078 51.288.522 18.991.212 53.172.006 71.806-.229 20.702-1.042 40.52-1.248 68.787-.098 13.458-1.042 38.237-1.248 72.536-1.041 21.199-1.453 30.782-2.077 35.754-.212 2.913-.212 6.619-.212 10.437m2.495-509.07c9.121 2.071 18.267 5.39 35.897 12.858 18.895 8.003 28.935 15.39 39.553 20.812 7.99 4.079 17.655 10.374 28.479 18.903 16.867 13.289 29.902 22.64 39.946 28.928 10.275 6.433 22.846 13.7 31.399 19.128 12.637 8.019 22.665 16.632 30.151 21.211 11.932 7.298 18.716 14.137 25.379 19.134s14.124 10.799 22.247 17.256c7.859 6.247 20.949 18.048 36.165 31.586 8.603 7.654 16.85 17.68 23.731 25.803 2.874 3.392 5.21 6.875 6.875 10.399.824 1.742.019 3.937-2.046 6.027-9.497 9.611-18.697 12.483-30.132 20.999-12.067 8.986-25.572 21.405-33.29 26.845-7.895 5.565-14.342 10.805-22.246 16.214-9.246 6.326-15.803 12.483-23.707 19.333-7.723 6.693-15.378 12.265-23.707 18.098-8.7 6.094-19.495 14.53-31.187 22.453-10.032 6.799-15.808 12.066-22.677 18.098-7.418 6.515-15.59 11.436-24.53 19.54-7.506 6.803-14.767 11.859-21.43 16.856-6.865 5.15-14.124 12.871-21.417 18.716-7.61 6.1-15.59 11.223-23.7 13.532-4.767.212-11.018 1.035-17.868 2.695-3.144.836-5.614 1.659-8.16 3.755m-293.214 34.866c-2.071-5.777-5.39-50.383-5.203-76.479.161-22.451-3.531-43.253-4.567-54.077-1.151-12.036-2.707-32.796-3.743-46.359-1.507-19.741-1.46-30.556-2.495-48.411-2.219-38.246 3.106-54.937 3.737-72.187.296-8.122 1.041-38.274.836-80.054-.206-15.428-.618-19.134-.83-34.836-.212-15.703-.212-43.29-.212-71.713m-2.496-83.597c-1.647-.824-5.377-2.483-11.186-4.561-21.48-7.683-59.011 22.802-69.473 33.221-11.972 11.923-17.861 41.936-27.861 72.087-5.516 16.629-5.409 46.671-9.776 87.571-3.341 31.288-1.073 48.3-.449 66.672 1.42 41.819.623 73.123 2.688 84.296 5.991 32.415 9.153 46.16 10.413 59.517 2.138 22.659 7.898 39.097 8.528 49.091 1.071 16.992 1.865 41.162 2.907 55.075 2.019 26.956 4.773 44.281 9.14 56.384 4.235 11.737 3.967 22.858 5.209 33.071 1.197 9.844 2.502 22.228 3.743 31.405 1.129 8.346 2.901 17.449 4.991 26.408.418 2.296.83 4.766 1.659 5.215.83.45 2.065-1.197 3.338-2.894"/><path stroke="#1e1e1e" stroke-linecap="round" stroke-width="71" d="M311.749 355.898c-.836-5.802 1.647-14.099 6.426-22.428 5.741-10.005 13.088-20.369 25.958-41.53 11.326-18.621 20.394-23.357 30.37-30.008 15.974-10.649 29.103-10.418 41.387-12.914 10.029-2.037 24.299-1.672 41.961-2.707 18.342-1.076 33.532-.624 86.91-1.248 49.669-.58 145.197-.212 196.054-.006s54.151.618 93.111 1.036 113.487.829 153.114.835c47.12.008 56.25-1.653 79.9-1.665 20.34-.011 49.01 12.839 60.59 22.633 8.86 7.49 7.69 24.269 10.62 39.497 1.42 7.408 3.75 13.132 9.31 33.339 5.01 18.189 15.03 52.323 20.13 70.958 9.37 34.311 13.4 65.586 14.03 83.473.35 10.073 1.86 18.322 2.49 27.892.33 5.006 1.04 23.582 1.25 49.148.08 9.51.62 11.978.83 41.662s.21 86.504.01 116.805c-.21 30.301-.62 32.36-1.86 34.861-8.27 16.653-34.02 34.481-48.84 43.265-10.59 6.277-20.99 8.734-39.7 13.525-4.19 1.076-6.67 1.872-33.88 6.619-27.22 4.748-79.097 13.395-109.117 17.849-45.624 6.77-67.352 5.702-87.615 6.738-15.054.769-27.288.624-87.241 1.247-57.068.594-168.242.213-226.954.007-61.596-.216-67.034-1.454-73.453-2.49-16.814-2.712-24.349-3.942-40.738-9.757-17.472-6.198-30.576-12.477-41.624-17.268-10.401-4.511-19.745-8.11-34.082-14.336-17.775-7.72-26.439-14.561-33.308-18.729-7.704-5.827-12.695-9.158-16.014-11.229-1.672-1.248-3.319-2.895-5.016-4.592"/><path stroke="#1e1e1e" stroke-linecap="round" stroke-width="71" d="M606.211 783.866c2.895.824 10.356 3.319 65.593 5.391 51.098 1.916 149.115 2.894 142.776 6.831-6.338 3.936-119.98 10.113-177.494 13.294s-55.455 3.182-51.718 2.77 9.089-1.235 81.844-2.071 212.749-1.659 220.223-.848-121.815 3.281-113.069 3.524c8.747.244 159.447-1.815 137.025-3.905s-222.531-4.149-326.853-5.621-106.792-2.296-108.683-4.367c-11.119-12.183-9.389-32.84-8.153-38.873.457-2.232 3.705-1.503 5.801-.262 20.7 12.26 29.097 61.893 41.793 78.17 1.955 2.507-.98-13.207-8.834-67.04-6.872-47.1-15.266-134.947-19.939-193.715-4.672-58.768-4.261-85.943-3.637-103.442.875-24.526 5.59-42.005 10.787-56.572 1.572-4.406 2.314-2.215 2.732 47.638s.83 147.437 1.866 196.061c1.035 48.623 2.682 45.329 8.678 9.869 5.995-35.46 16.289-102.987 22.209-145.596s7.156-58.256 8.41-69.405c1.254-11.148 2.489-17.324 4.566-24.624s4.96-15.534 2.327 29.84c-2.632 45.373-10.867 144.604-15.727 198.4-5.35 59.22-8.192 70.427-10.057 76.073-.329.996-2.277-6.294-3.119-52.71-.842-46.415-1.254-132.882 3.063-208.513 4.317-75.63 13.376-137.804 14.542-94.071 1.167 43.732-5.833 195.255-13.556 237.491-7.724 42.235-15.959-29.409-17.525-95.757-1.565-66.347 3.787-125.227-4.367-132.501s-29.976 38.841-43.894 71.039c-13.919 32.197-19.271 49.079-21.617 54.687-2.346 5.609-1.522-.567 5.49-21.66s20.188-56.915 29.652-80.516c13.768-34.333 27.331-53.97 44.731-75.112 22.135-26.898 38.81-37.613 39.646-34.294 1.952 7.75-17.78 18.666-34.032 28.067-24.104 13.945-65.074 11.885-88.201 8.161-2.774-.447-4.573-2.49-5.633-4.979-6.806-15.973 28.31-46.047 45.479-60.72 2.492-2.13 4.167-3.743 5.633-2.327s2.702 5.945-2.838 25.572-17.892 54.213-30.226 83.56c-12.334 29.346-24.275 52.404-30.838 62.018s-7.386 5.084-4.31-16.807c3.075-21.891 10.075-61.007 15.74-87.128 5.664-26.122 9.782-38.062 12.109-45.86 3.267-10.949-3.837 13.512-22.883 76.934-10.762 35.834-28.929 77.421-38.655 100.909-11.339 27.383-15.141 32.66-17.218 33.714-.919.466-1.254-3.475-1.055-24.518s1.023-60.159 3.3-87.309c2.278-27.151 5.983-41.15 8.51-45.068s3.762 2.67 2.339 28.916c-1.422 26.246-5.539 71.95-8.69 100.641-4.293 39.097-7.33 52.473-7.33 54.37 0 .985 0-5.927 2.676-30.295s8.029-68.013 11.61-93.997c4.559-33.083 10.631-48.842 17.481-58.855 1.935-2.829 5.614 4.81 7.299 59.254 1.684 54.445 2.508 156.97 2.108 217.197s-2.046 75.051-3.306 80.422c-.513 2.188-2.52-13.294 2.839-55.848 4.179-33.189 14.417-89.493 21.354-124.317 6.938-34.823 11.055-46.352 14-50.644 2.658-3.875 6.7 23.806 3.206 88.569-2.344 43.464-12.14 107.996-16.794 137.387-4.654 29.39-5.477 21.566-5.49-9.433-.012-31 .811-84.939 2.265-117.255 1.453-32.316 3.512-41.374 5.396-42.953 1.884-1.578 3.531 4.598 4.38 40.72s.848 102.001.23 140.262c-.617 38.262-1.852 46.908-3.724 48.069-1.872 1.16-4.342-5.428-9.526-46.291s-13.008-115.801-16.626-160.375c-3.619-44.575-2.795-56.516-1.136-69.255 3.39-26.023 7.499-41.961 9.57-43.851 3.82-3.487 6.239 15.927 10.175 70.396 3.367 46.581 5.172 131.878 5.422 183.814.249 51.937-2.221 67.995-4.729 79.561s-4.978 18.155-7.692 18.46c-2.714.306-5.596-5.87-11.61-31.081s-15.073-69.267-20.974-110.491c-5.902-41.225-8.373-78.282-8.822-105.402-.715-43.188 3.718-62.604 5.79-65.324 2.731-3.587 6.238 13.85 10.175 55.542 3.268 34.615 5.172 96.867 5.833 136.925s-.986 56.116-2.864 68.3-3.936 20.008-7.056 21.773-7.236-2.764-14.916-26.096-18.797-65.331-24.73-95.407c-13.453-68.199-1.79-82.206.905-86.161 1.02-1.498 3.107-.25 5.19 2.851s4.554 8.453 10.562 29.945 15.478 58.961 21.386 88.351 7.967 49.566 9.027 64.694c1.061 15.129 1.061 24.599.237 29.89-.823 5.29-2.47 6.113-4.554 5.92-4.752-.441-9.57-5.172-14.754-8.709-8.777-5.989-18.922 1.84-26.215 4.542-3.818 1.414-8.116 1.466-12.059 2.495-9.219 2.407-7.299 18.46-7.106 41.3.157 18.47 9.34 27.094 15.784 31.686 8.074 5.752 14.343 12.052 39.016 26.158 11.189 6.396 19.82 10.861 31.412 13.762 18.001 4.506 47.326 8.728 77.452 13.095 25.155 3.647 34.481 2.733 48.368 3.768 36.773 2.743 47.65 1.46 57.857 2.496 7.203.731 13.949.624 25.927 1.247 25.944 1.352 50.77 1.448 74.564 3.319 15.934 1.254 39.852.637 55.243 1.048s21.567 1.236 40.395 1.66 50.121.424 70.771-.193c41.2-1.233 52.691-4.773 63.752-5.827 8.972-.856 26.321-2.689 40.545-3.743 12.539-.93 24.106-3.114 44.657-3.949 20.75-.844 32.25-2.908 42.28-3.538 9.25-.581 20.77-3.113 32.43-4.779 12.06-1.723 22.87-2.501 31.61-3.743 12.19-1.731 28.64-10.761 50.5-31.124 9.46-8.818 14.8-18.342 21.05-26.452 7.75-10.055 9.57-28.448 10.63-39.297 2.05-21.069-.61-50.289-4.56-74.813-1.82-11.247-5.6-25.36-10.19-37.694-3.42-9.192-7.89-21.804-11.65-35.547-2.54-9.29-10.34-32.298-23.02-64.532-6.88-17.509-19.16-50.065-26.14-64.969s-8.22-11.199-9.68 19.945-3.11 89.611-2.31 130.436 4.09 62.237 5.79 77.384 1.7 23.382.87 26.801c-.82 3.419-2.47 1.772-3.93-1.341-1.47-3.113-2.7-7.643-5.19-27.269-2.49-19.627-6.2-54.214-8.11-76.56-2.67-31.349-1.49-43.209-.25-43.246 2.57-.078 2.06 9.844 1.88 34.455-.19 24.612-1.84 66.198-4.33 97.298-4.07 50.62-9.19 72.86-10.63 72.486-3.09-.802-4.32-11.08-8.48-35.909s-9.52-66.005-12.07-93.804c-3.75-40.859-.89-56.609.15-54.582 6.57 12.792-1.85 32.397-5.37 49.597-4.5 21.979-16.38 52.561-29.26 83.722-7.92 19.177-18.33 33.82-29.127 47.538-6.064 7.704-12.534 7.992-16.682 7.998-4.462.007-8.329-7.03-12.272-16.151-4.496-10.402-5.639-32.765-4.822-67.39.929-39.358 9.963-69.423 16.389-86.648 10.997-29.479 24.364-39.821 26.654-41.711 3.6-2.982-1.4 24.162-12.168 57.757-5.725 17.86-15.709 36.065-28.405 56.316-12.695 20.25-28.753 41.661-42.172 56.603-21.965 24.456-38.437 32.472-45.705 35.173-3.114 1.157-5.209 1.466-6.063-2.645-2.599-12.499 5.334-37.725 15.708-66.585 8.071-22.449 19.571-37.781 36.534-55.38 27.306-28.33 49.615-44.413 52.735-47.126 1.586-1.38-8.41 18.759-27.082 46.365-8.825 13.046-17.849 23.077-36.714 40.32-18.866 17.244-47.688 41.125-72.006 58.574-24.318 17.45-43.259 27.743-57.134 34.487-21.688 10.542-34.299 13.42-39.914 12.197-2.735-.596-1.909-6.987-.056-12.209 3.995-11.259 15.964-22.677 31.093-36.777 8.32-7.754 18.834-15.746 48.018-32.958 29.185-17.213 76.947-43.153 104.846-58.78s34.487-20.157 39.734-24.549 8.953-8.51-15.079 4.81c-24.031 13.319-75.911 44.2-117.666 66.079s-71.812 33.819-89.15 40.382c-17.337 6.563-21.042 7.387-21.098 5.135-.211-8.433 14.879-19.296 48.342-42.859 25.61-18.033 70.522-45.798 97.753-63.934 36.461-24.282 50.552-38.111 62.58-50.963 6.463-6.905 12.851-15.322-14.43 8.641-27.282 23.962-88.632 80.372-123.943 112.313s-42.722 37.706-45.716 38.206c-2.995.499-1.348-4.442 12.471-24.693 13.818-20.25 39.758-55.661 57.239-78.226s25.716-31.211 41.487-43.489c37.739-29.38 62.585-41.986 62.174-36.396-.629 8.538-4.966 21.386-14.686 41.886-6.171 13.014-17.543 29.97-38.087 55.143-20.543 25.173-50.601 57.701-72.261 79.193-21.661 21.492-34.013 30.962-39.141 33.988s-2.658-.68 25.584-28.118 82.181-78.494 126.026-124.148 75.961-84.358 92.922-103.062c16.95-18.703 17.78-16.233 18.41-13.93 2.52 9.211 2.71 17.686 1.89 20.812-.65 2.453-10.76-22.441-21.98-56.104-4.381-13.16-7.096-18.017-17.427-32.092s-28.448-37.132-39.634-50.863c-19.702-24.185-28.666-27.069-33.438-28.111-2.26-.493-4.361.193-6.245 2.67-10.94 14.381-7.724 38.598-3.594 68.101 3.285 23.461 17.019 47.02 26.377 61.6 1.813 2.824-4.641-22.615-18.554-51.282-9.019-18.585-21.036-32.147-38.018-49.971-9.949-10.443-24.393-21.941-61.662-44.768s-97.385-56.179-134.735-75.83c-49.403-25.993-78.501-33.801-77.496-34.275 15.05-7.105 64.414 15.172 97.672 24.405s50.139 15.821 20.543 16.333-106.181-5.253-147.692-8.634-45.63-4.205-46.721-5.247c-1.092-1.042.967-2.277 5.321-3.531 4.355-1.254 10.943-2.489 86.598-.655 75.656 1.834 220.179 6.775 248.103 9.732s-65.131 3.781-66.541 1.94c-1.41-1.84 91.645-6.369 145.759-7.879 66.444-1.854 81.254 3.069 84.374 6.176 1.52 1.518 1.06 4.342.65 6.644-.8 4.462-9.91 12.658-29.588 25.722-11.421 7.583-27.499 14.299-53.265 22.44-25.765 8.142-61.176 16.788-89.093 22.272-46.971 9.226-73.385 9.664-82.537 8.634-3.129-.352-2.564-3.088-.911-6.413 4.038-8.121 20.269-21.579 59.373-41.892 25.418-13.204 65.867-24.431 98.171-33.483 32.303-9.052 56.184-13.581 73.428-16.12 17.242-2.54 27.122-2.951 32.632-1.928 5.5 1.023 6.32 3.493 6.75 6.413 2.03 14.013-11.97 41.861-29.6 76.729-15.768 31.184-35.61 52.572-49.322 66.497-7.397 7.511-12.141 9.445-16.077 10.075-2.269.364-5.172-1.428-7.274-3.506-4.253-4.202-7.081-19.046-10.824-42.89-4.15-26.433.374-49.385 4.31-65.362 7.471-30.321 31.749-50.976 53.39-63.715 22.147-13.036 51.527-3.606 72.177 8.428 12.53 7.306 18.13 23.289 24.77 37.382 7.93 16.837 11.67 37.85 14.38 58.805 2.52 19.613.65 38.124-2.46 54.931-5.46 29.554-20.13 47.663-33.04 57.495-5.58 4.257-14.56 2.321-23.89-.368-21.68-6.247-33.9-32.971-42.884-62.292-4.488-14.649-3.145-31.842-1.909-55.037 1.77-33.237 8.721-59.18 14.113-71.838 5.09-11.964 12.9-19.82 19.13-24.805 2.81-2.254 5.4-3.337 8.73-2.944 7.79.919 23.22 26.395 45.22 73.459 11.57 24.756 19.52 53.241 25.43 74.046 5.9 20.806 8.37 33.57 10.05 51.469 3.81 40.443 1.71 72.524-2.02 88.919-5.99 26.322-16.23 35.248-20.37 37.743-2.26 1.36-5.79.849-8.73-.592-14.14-6.951-19.55-36.665-26.82-70.253-3.85-17.805-5.2-37.706-5.85-57.152-1.27-37.954 3.08-63.241 7.43-74.658 3.75-9.812 9.37-16.07 13.32-20.225 1.74-1.833 3.53-2.508 5.61.362s4.56 9.457 7.27 22.527 5.59 32.422 7.08 72.243c1.48 39.821 1.48 99.525.25 136.457-1.65 49.397-7.49 64.483-10.39 66.167-1.59.925-3.72-4.904-8.28-21.436s-11.56-45.354-16.61-78.731-7.93-70.434-9.21-95.288c-1.87-36.346 1.21-57.733 4.52-74.552 1.46-7.394 3.32-12.29 5-16.07 1.67-3.781 3.31-6.252 18.16 35.709s42.85 128.428 62.42 185.324 29.86 81.601 34.14 91.858c2.21 5.315-7.32-28.186-19.99-74.527-4.93-18.023-8.14-24.518-10.04-26.676-1.81-2.057-5.63 23.033-8.33 71.925-1.59 28.679.17 65.362.39 85.887s-.19 23.819-5.14 18.722-14.42-18.685-24.18-32.684"/><path stroke="#1e1e1e" stroke-linecap="round" stroke-width="71" d="M355.419 252.266c-5.789-1.235-26.477-3.743-41.967-.43-8.516 1.821-14.979 6.644-21.436 11.847-7.115 5.733-15.153 15.983-20.182 23.906-5.506 8.677-9.545 19.527-17.661 38.636-4.222 9.94-5.209 19.571-7.299 30.806-2.445 13.141-2.078 28.267-3.538 42.404-1.969 19.074-1.459 30.781-2.495 48.2-1.542 25.932-.624 45.828-1.248 56.372-2.055 34.738 1.036 66.154 2.071 88.426.659 14.16 1.46 23.295 2.496 32.447 1.545 13.658 1.46 40.182 2.495 63.172 1.444 32.058 1.46 58.512 2.496 78.02.785 14.784 1.46 25.559 2.701 35.366 1.29 10.19 2.077 20.164 3.743 28.492 1.684 8.417 3.75 16.626 4.991 25.99 1.295 9.771 2.078 21.405 5.814 33.264.858 2.722 1.254 4.785 3.319 6.669 10.111 9.225 22.441 7.3 29.734 10.001 7.812 2.894 16.413 4.361 25.983 6.451 9.899 2.161 34.774 6.619 53.228 9.152 13.778 1.891 24.518 2.907 37.226 4.367 12.63 1.45 30.962 2.707 44.706 3.743 9.582.722 26.133 1.46 40.557 2.495 11.019.791 25.129 1.46 38.673 2.496 11.854.906 21.841 1.46 30.17 2.495 4.122.513 11.211 1.036 74.077 3.93 57.901 2.667 168.686 5.366 226.979 6.857s60.764 1.079 71.919.867c30.914-.588 54.163-.624 65.529-1.248 38.92-2.136 48.91-3.531 73.83-10.786 12.69-3.695 21.25-7.718 35.81-11.866 14.05-4.003 28.71-7.505 37.24-9.782 8.94-2.384 19.72-7.256 28.29-14.954 7.6-6.819 12.26-25.915 15-37.844 2.09-9.154 1.46-29.196-.2-43.67-5.39-15.135-10.4-36.783-11.03-50.102-.2-2.939-.61-4.997-1.04-7.118m-69.87-514.061c3.72.411 16.14 3.718 33.62 13.893 14.9 8.668 30.81 18.522 40.99 29.103 11.27 11.71 16.42 27.6 25.59 63.141 4.83 18.72 9.6 38.548 10.63 51.013 1.87 22.428 1.46 42.335 2.5 59.903.76 12.907 1.46 49.235 2.49 74.863.27 6.636.63 13.738 1.25 34.999.52 17.549.21 48.848.42 66.204s.62 19.826.83 35.716c.6 45.12-.2 78.538-.82 85.587-1.36 15.362-2.29 27.862-2.92 43.253-.41 10.109-3.11 19.969-3.74 30.999-.59 10.293-3.11 20.163-4.57 30.158-.63 10.406-2.29 20.375-3.75 32.004-.21 4.566-.21 11.154-.21 17.942"/><path stroke="#1e1e1e" stroke-linecap="round" stroke-width="71" d="M261.84 259.753c-5.777-1.235-27.325-5.39-64.738-4.791-27.401.438-43.764 8.11-62.667 16.607-10.634 4.78-16.881 12.689-25.809 23.064-20.515 23.841-34.294 47.345-41.618 63.64-3.004 6.685-8.509 20.325-15.359 41.274-6.864 20.993-8.984 39.391-10.231 61.526-2.15 38.134-.013 65.243 4.729 86.91 4.035 18.439 12.564 51.724 18.042 72.199 10.099 37.751 17.954 51.244 24.605 67.052 5.273 12.536 10.393 32.391 16.002 51.513 8.038 27.407 25.609 60.396 29.964 69.966 4.836 10.628 11.017 19.127 17.256 32.634 4.874 10.553 11.229 18.11 16.226 24.773 5.059 6.745 8.728 16.196 14.349 29.091 2.081 4.774 2.714 9.177 3.344 10.649 4.025 9.405-4.773-17.231-9.314-40.326-4.044-20.564-10.306-59.329-13.7-104.385-3.394-45.055-3.394-95.288-4.218-131.871s-2.47-57.994-1.26-86.112 5.328-62.292 7.449-100.897c2.121-38.604 2.121-80.602-7.761-43.358s-29.646 155.005-40.239 217.11-11.416 64.987-5.047 5.533 19.958-181.331 20.987-204.177c1.029-22.845-10.911 57.034-14.592 68.949-3.681 11.916 1.26-46.552 4.835-81.613 3.574-35.061 5.633-44.943 7.723-53.122s4.149-14.355-1.379 7.168c-5.527 21.524-18.703 70.933-26.108 97.828-8.23 29.893-10.737 34.805-11.779 35.866-3.587 3.652 7.618-34.475 20.488-78.089 5.493-18.613 10.4-29.615 18.703-48.312 19.894-44.794 33.371-73.833 34.207-75.724.234-.531-.811 4.286-11.324 32.135s-30.687 79.73-41.492 107.485c-10.806 27.756-11.629 29.814-11.024 26.758s2.664-11.292 9.283-33.24c6.619-21.947 17.736-57.357 23.257-72.305s5.11-8.36-4.161 36.415c-9.27 44.774-27.387 127.535-38.367 181.081s-14.274 75.369-16.177 88.052c-3.09 20.603-3.986 40.42-.886 61.506 3.595 24.445 6.882 34.762 11.642 59.442 4.359 22.602 9.788 34.786 12.49 42.503 3.731 10.661 10.599 23.9 24.904 42.379 7.785 10.057 15.615 14.811 22.702 19.808 9.973 7.032 23.283 15.39 29.945 18.928 7.974 4.233 14.549 11.435 19.77 15.178 2.491 1.785-4.747 5.827-9.725 7.905-8.501 3.547-16.633-1.641-24.955-5.166-16.772-7.104-26.215-23.052-30.382-35.105-7.1-20.534-7.062-44.393-10.818-59.497-2.763-11.115-8.721-24.075-13.512-38.037-5.415-15.778-3.132-24.355-7.05-74.015-3.69-46.763-10.094-137.361-13.694-185.055s-4.011-49.753-5.459-47.726c-10.674 14.954-9.358 28.23-14.118 53.646-3.587 19.157-7.642 51.356-9.975 69.136-3.413 26.011-3.581 42.66-4.617 58.918-1.244 19.538 2.683 32.029 4.767 49.659 2.817 23.841 8.31 45.991 14.105 63.184 13.643 40.474 21.218 53.914 26.857 63.123 4.047 6.607 12.228 15.771 22.235 29.09 7.79 10.37 20.362 19.546 58.942 47.563 13.022 9.457 22.958 14.43 33.177 19.427 13.874 6.785 35.498 8.728 46.796 10.413 12.245 1.825 28.679 4.579 48.985 5.614 27.197 1.387 47.507.624 54.345 1.248 8.862.809 20.163 1.036 56.284 3.107 29.923 1.716 83.473 2.895 117.224 4.772s46.103 3.937 74.701 4.792c28.598.854 73.066.443 97.416.436 24.349-.006 27.231.406 49.097 0 21.867-.405 62.63-1.64 86.511-1.865 23.882-.225 29.646.599 52.585 1.023 22.94.424 62.879.424 85.925.013 36.421-.651 48.821-2.908 61.931-3.538 21.37-1.027 47.21-1.865 70.66-2.495 12.83-.345 23.54-2.29 33.95-3.325 14.52-1.445 25.35-2.284 35.98-2.914 2.3-.206 4.36-.617 6.86-1.035 2.51-.418 5.39-.83 10.85-3.75m-6.23-687.494c3.3.824 10.78 5.79 19.72 17.007 9.21 11.56 16.01 24.542 25.99 38.872 9.29 13.353 14.97 24.749 20.4 35.785 7.5 15.283 11.64 32.634 14.77 40.981 3.17 8.467 4.78 17.032 6.45 27.026 1.6 9.594 3.32 19.527 3.95 33.464.56 12.334 1.87 23.07 2.5 33.707.61 10.223 1.87 21.829 2.5 43.62.2 6.931 1.04 21.38 1.24 41.949.12 11.937 1.05 40.033.43 79.723-.33 21.24-6.01 45.217-10.79 73.902-3.79 22.775-8.96 41.737-13.32 63.952-2.23 11.304-8.91 29.266-13.11 42.891-2.97 9.645-6.23 16.844-9.36 26.819-2.68 8.543-3.54 17.051-5.2 25.585-1.83 9.341-3.33 17.668-4.99 25.996-1.67 8.329-5.8 19.92-11.22 30.357-2.73 5.264-5 10.412-5.22 13.326-1.64 21.225 47.17-29.053 51.77-36.758 5.91-9.92 9.55-25.085 13.1-36.808 2.51-8.267 5.61-20.743 8.74-30.569 5.83-18.348 10.6-44.699 11.86-53.44.36-2.509 1.23-5.384 4.95-27.662s10.31-63.864 13.7-86.523c4.5-30.049 4.64-40.925 6.71-56.522.8-6.001.84-11.055 1.46-33.326.56-19.795.21-56.859.01-76.978-.27-26.378-3.51-42.891-4.99-55.462-1.03-8.742-1.87-20.344-2.5-36.159-.42-10.517-3.11-22.864-6.43-33.495-4.5-14.43-11.63-25.553-18.09-37.225-4.65-8.42-9.76-15.803-15.18-22.89-5.57-7.276-13.29-15.372-19.75-23.7-5.95-7.674-20.5-22.79-31.4-32.248-6.12-5.31-16.2-8.11-25.15-11.647-12.74-5.028-26.83-10.188-35.77-13.519-20.87-7.777-58.01-1.685-77.94-1.055-14.2.45-28.31 1.866-37.27 3.326-9.37.624-20.96 2.283-34.09 3.949-2.73.418-4.79.829-8.16 1.254"/><path stroke="#1e1e1e" stroke-linecap="round" stroke-width="71" d="M1185.15 229.808c7.45 2.482 19.09 5.814 26.18 8.721 7.08 2.905 16.2 6.226 25.78 11.017 7.42 3.71 15.79 7.686 24.74 12.266 12.09 6.189 17.68 12.065 27.66 20.986 9.12 8.164 15.82 16.433 20.4 23.301 5.09 7.645 9.97 14.343 14.76 22.653 12.41 21.563 25.58 40.351 30.15 50.121 1.99 4.232 10.35 21.298 20.75 46.858 5.42 13.324 7.12 21.966 11.27 38.916 13.43 54.986 10 64.988 10.63 80.772.77 19.13 3.11 44.93 3.33 66.316.17 16.477-5.16 54.525-9.35 73.459-2.08 9.417-4.57 20.369-8.93 38.019-5.39 21.766-21.79 64.575-27.04 80.091-4.83 14.273-9.35 27.431-23.46 69.541-5.13 15.328-12.09 24.868-19.98 35.261-10.83 14.265-18.71 24.543-26 31.836-8.12 8.116-16.42 15.59-23.5 21.011-1.67 1.254-3.32 2.489-6.64 5.596s-8.26 8.048-14.6 14.387"/><path stroke="#1e1e1e" stroke-linecap="round" stroke-width="71" d="M1201.37 239.789c-12.36 0-38.64.412-72.05 1.036-29.69.554-85.28.212-115.57.418-33.577.228-54.671 1.042-82.732 1.248-19.928.146-38.156 2.688-54.189 4.155-24.884 2.275-35.572 3.949-51.568 4.785-5.622.293-13.026 1.235-87.253 3.306s-215.045 5.365-289.234 7.268c-74.19 1.903-77.484 2.314-82.063 2.527-19.155.887-32.428 1.459-54.463 3.531-14.571 1.369-26.227 1.672-36.022 2.913-6.01.762-12.277 1.666-15.409.437-13.566-5.324 34.138-20.344 80.091-27.032 12.265-1.785 18.229-1.26 38.031-1.884 17.323-.546 49.447-.212 67.639-.006 21.493.243 49.996 3.1 89.081 6.425 20.651 1.757 31.81 2.926 86.255 6.85 48.242 3.477 138.44 8.454 186.128 11.005s50.159 2.14 68.313 1.928 51.918-.212 70.546-.006c21.107.233 31.468 1.042 44.968 1.247 8.991.138 38.301 2.689 78.641 5.391 16.48 1.103 37.92 1.89 68.48 1.684 19.13-.129 29.07-1.865 37.19-4.773 1.94-.694 3.53-1.659 2.94-2.495-2.23-3.141-8.91-2.508-16.16-2.92-4.78-.271-11.77-1.235-124.69-1.247-112.929-.013-331.568.811-445.64 1.441s-116.956 1.042-139.851 1.254c-22.896.212-65.718.212-89.63.418-23.913.206-27.619.617-55.674 1.035s-80.347.83-108.726 1.454c-36.793.809-48.305 6.837-59.148 12.465-11.994 6.224-29.035 28.785-38.698 43.857-10.031 15.646-17.462 39.478-19.976 51.356-3.946 18.641-5.397 28.922-10.793 46.528-11.465 37.404-12.895 48.923-17.48 61.606-7.952 21.992-10.812 50.551-13.938 63.01-3.659 14.586-2.29 30.787-2.92 39.116-1.003 13.272.606 36.539 1.66 63.983.846 22.024 1.865 52.86 2.496 70.109.511 14.011 1.865 24.749 3.325 38.281 1.542 14.298 1.46 28.466 2.701 38.698 1.188 9.79 2.078 20.562 3.743 29.739 1.796 9.892 2.078 22.44 3.95 33.264 1.715 9.925 8.908 25.31 18.266 38.879 11.207 16.251 29.671 21.417 42.429 26.24 7.899 2.986 16.413 4.785 31.991 10.175 17.89 6.19 28.916 7.911 39.541 10.206 17.568 3.797 38.897 6.863 58.911 10.375 17.08 2.998 48.424 7.218 65.985 9.552 20.398 2.71 47.295 4.803 85.126 8.546 17.207 1.703 23.52 1.685 32.004 2.309 13.802 1.015 26.028.623 62.112 1.865 32.37 1.114 93.317 2.065 126.974 3.113 38.214 1.19 50.676 2.72 63.765 2.926 7.759.122 38.28 1.042 81.938 1.248 18.139.085 34.674 1.042 57.738 1.247 12.785.115 33.47 1.042 60.078 1.248 32.861.254 75.418 1.865 87.265 2.496 28.429 1.512 71.746 6.851 88.336 8.311 35.29 3.11 66.79 1.46 90.48.43 28.12-1.23 39.72-3.532 49.74-6.234 8.63-2.325 25.29-7.654 40.54-13.924 9.49-3.902 18.09-12.446 28.7-23.27 7.77-7.912 16.41-19.096 26.01-38.848 7.96-16.385 9.14-42.51 10.43-71.738-2.5-13.369-4.98-24.149-9.55-35.192-1.26-2.308-2.49-3.955-3.77-5.652"/><path stroke="#1e1e1e" stroke-linecap="round" stroke-width="71" d="M1079.13 522.49c-.83 0-6.6-.823-15.74-1.248-6.19-.287-23.21 24.743-47.52 57.589-8.89 11.998-11.56 13.906-13.86 13.525-2.302-.38-4.361-3.262-5.215-6.394-1.696-6.214 2.451-19.702 7.225-37.351 3.61-13.346 12.25-28.516 28.6-52.753 9.97-14.787 25.82-32.884 39.02-46.958 22.76-24.264 41.52-36.172 52.53-41.787 4.3-2.188 6.49-1.909 8.16.15 12.08 14.818.9 55.96-5.35 79.811-2.07 7.895-4.58 15.827-7.28 20.213-8.78 14.242 14.23-58.188 27.18-82.057 9.99-18.417 32.79-29.109 45.13-32.509 8.57-2.358 4.83 29.777-3.67 66.004-2.04 8.707-6.83 15.379-9.56 19.602s-4.38 5.459-6.26-3.375c-10.5-49.431-6.88-61.787-10.8-72.63-1.27-3.506-10.5-.461-28.52-.449s-46.84-.811-115.42-12.147-176.046-33.158-237.995-46.87c-61.95-13.713-75.125-18.654-82.736-21.817-13.942-5.793-37.382-12.708-56.865-14.61-17.175-1.678-40.533-1.866-68.787-2.29-4.273-.064-2.215 0 17.374-1.235 19.59-1.235 56.647-3.706 80.678-5.802s33.913-3.743 37.357-4.18c3.443-.437.149.387-64.133 3.899-64.283 3.513-189.454 9.689-252.701 12.253s-60.777 1.329-55.386-.543c13.509-4.691 41.461-10.593 72.43-16.208 14.791-2.682 20.774-2.321 24.517-1.709 9.211 1.504-16.469 41.549-33.819 68.15-11.753 18.02-37.949 29.721-52.223 34.182-16.477 5.149 16.108-51.201 29.209-75.962 4.066-7.685 4.454-4.585-3.163 23.252-7.618 27.836-22.852 80.54-35.024 116.131-18.266 53.415-29.315 67.396-27.868 63.241.651-1.867 2.683-2.508 5.384-1.697s6.407 3.282 27.051 22.465c20.644 19.184 58.113 55.006 80.297 77.371 41.512 41.851 43.446 67.721 43.458 76.692.003 1.928-1.235 3.531-2.895 4.173-1.659.643-4.13.231-6.432-1.834-20.413-18.311-12.72-65.674-11.897-74.208.247-2.559 16.108 28.984 39.347 81.289 10.883 24.494 21.592 44.069 25.66 53.016 4.067 8.946 1.597 6.475-1.117 2.114-13.81-22.19-22.266-41.38-28.928-54.294-.811-1.571 1.197-.886 3.075.362 11.382 7.562 39.946 37.257 57.595 51.15 10.079 7.935 16.239 11.66 15.852 11.467-17.855-8.928-28.685-13.519-33.046-12.702-5.076.951-4.398 9.551-3.78 14.53 1.982 15.975 23.388 46.04 46.415 75.312 19.985 25.405 37.775 35.747 41.331 38.873 3.234 2.843-15.509-6.794-40.114-27.045-18.015-14.826-45.605-40.838-63.528-56.253-17.924-15.416-24.923-19.945-29.353-21.866-4.429-1.922-6.076-1.098-6.513.973-2.272 10.775 6.201 19.115 17.194 29.926 7.574 7.45 22.222 12.484 64.139 24.892 33.357 9.875 92.562 22.291 146.57 30.114s101.358 9.47 153.75 7.025 108.39-9.034 138.472-12.839c30.078-3.806 32.558-4.629 32.798-5.465 2.21-7.609-20.932.387-65.289 23.382-13.212 6.85-25.74 11.442-36.633 15.222-10.892 3.781-19.951 6.251-67.233 10.2s-132.514 9.302-199.068 8.971c-66.553-.33-111.845-6.506-136.413-9.688s-27.038-3.182-29.34-3.388-4.361-.617 55.517 3.7 181.756 13.375 152.927 12.895-212.056-10.774-311.799-17.724-110.448-10.244-119.669-13.999c-27.175-11.069-33.377-22.871-38.392-32.865-4.453-8.872-10.357-26.14-25.473-52.242-20.816-35.946-38.972-62.524-45.411-74.364-4.071-7.488-8.546-12.328-12.29-14.836-7.349-4.924-2.52 25.266-5.421 69.835-2.699 41.461 1.229 70.683 3.712 80.016 1.307 4.912 4.13 9.745 6.432 10.849s4.361-1.778 5.833-4.704c2.807-5.579 5.615-25.247 9.358-65.23 2.195-23.446 1.273-53.571-.58-104.878-1.853-51.306-5.559-122.95-6.027-168.298s2.415-62.231 5.546-74.427c5.035-19.607 16.82-36.702 28.455-54.563 14.168-26.645 26.682-50.826 32.085-59.984 1.26-2.096 2.084-3.743 2.932-6.688"/></svg>