<svg width="1437" height="1069" viewBox="0 0 1437 1069" fill="none" xmlns="http://www.w3.org/2000/svg">
<path d="M308.006 362.137C308.006 361.313 308.417 364.595 309.865 412.002C311.199 455.695 312.547 539.288 313.602 583.788C314.725 631.18 315.492 648.551 315.698 671.416C316.74 694.343 317.152 717.301 317.775 726.184C317.987 733.009 317.987 744.538 317.987 756.417" stroke="#1E1E1E" stroke-width="71" stroke-linecap="round"/>
<path d="M582.504 359.641C584.164 362.524 585 389.786 586.241 407.847C587.162 421.239 589.566 432.783 590.197 442.371C590.361 444.876 590.814 447.755 591.026 465.298C591.238 482.841 591.238 514.958 591.444 533.149C591.687 554.643 592.898 561.735 593.522 584.437C594.044 603.428 593.734 637.609 593.528 656.243C593.299 676.945 592.486 696.763 592.28 725.03C592.182 738.488 591.238 763.267 591.032 797.566C589.991 818.765 589.579 828.348 588.955 833.32C588.743 836.233 588.743 839.939 588.743 843.757" stroke="#1E1E1E" stroke-width="71" stroke-linecap="round"/>
<path d="M591.238 334.687C600.359 336.758 609.505 340.077 627.135 347.545C646.03 355.548 656.07 362.935 666.688 368.357C674.678 372.436 684.343 378.731 695.167 387.26C712.034 400.549 725.069 409.9 735.113 416.188C745.388 422.621 757.959 429.888 766.512 435.316C779.149 443.335 789.177 451.948 796.663 456.527C808.595 463.825 815.379 470.664 822.042 475.661C828.705 480.658 836.166 486.46 844.289 492.917C852.148 499.164 865.238 510.965 880.454 524.503C889.057 532.157 897.304 542.183 904.185 550.306C907.059 553.698 909.395 557.181 911.06 560.705C911.884 562.447 911.079 564.642 909.014 566.732C899.517 576.343 890.317 579.215 878.882 587.731C866.815 596.717 853.31 609.136 845.592 614.576C837.697 620.141 831.25 625.381 823.346 630.79C814.1 637.116 807.543 643.273 799.639 650.123C791.916 656.816 784.261 662.388 775.932 668.221C767.232 674.315 756.437 682.751 744.745 690.674C734.713 697.473 728.937 702.74 722.068 708.772C714.65 715.287 706.478 720.208 697.538 728.312C690.032 735.115 682.771 740.171 676.108 745.168C669.243 750.318 661.984 758.039 654.691 763.884C647.081 769.984 639.101 775.107 630.991 777.416C626.224 777.628 619.973 778.451 613.123 780.111C609.979 780.947 607.509 781.77 604.963 783.866" stroke="#1E1E1E" stroke-width="71" stroke-linecap="round"/>
<path d="M311.749 818.732C309.678 812.955 306.359 768.349 306.546 742.253C306.707 719.802 303.015 699 301.979 688.176C300.828 676.14 299.272 655.38 298.236 641.817C296.729 622.076 296.776 611.261 295.741 593.406C293.522 555.16 298.847 538.469 299.478 521.219C299.774 513.097 300.519 482.945 300.314 441.165C300.108 425.737 299.696 422.031 299.484 406.329C299.272 390.626 299.272 363.039 299.272 334.616" stroke="#1E1E1E" stroke-width="71" stroke-linecap="round"/>
<path d="M296.776 251.019C295.129 250.195 291.399 248.536 285.59 246.458C264.11 238.775 226.579 269.26 216.117 279.679C204.145 291.602 198.256 321.615 188.256 351.766C182.74 368.395 182.847 398.437 178.48 439.337C175.139 470.625 177.407 487.637 178.031 506.009C179.451 547.828 178.654 579.132 180.719 590.305C186.71 622.72 189.872 636.465 191.132 649.822C193.27 672.481 199.03 688.919 199.66 698.913C200.731 715.905 201.525 740.075 202.567 753.988C204.586 780.944 207.34 798.269 211.707 810.372C215.942 822.109 215.674 833.23 216.916 843.443C218.113 853.287 219.418 865.671 220.659 874.848C221.788 883.194 223.56 892.297 225.65 901.256C226.068 903.552 226.48 906.022 227.309 906.471C228.139 906.921 229.374 905.274 230.647 903.577" stroke="#1E1E1E" stroke-width="71" stroke-linecap="round"/>
<path d="M311.749 355.898C310.913 350.096 313.396 341.799 318.175 333.47C323.916 323.465 331.263 313.101 344.133 291.94C355.459 273.319 364.527 268.583 374.503 261.932C390.477 251.283 403.606 251.514 415.89 249.018C425.919 246.981 440.189 247.346 457.851 246.311C476.193 245.235 491.383 245.687 544.761 245.063C594.43 244.483 689.958 244.851 740.815 245.057C791.672 245.263 794.966 245.675 833.926 246.093C872.886 246.511 947.413 246.922 987.04 246.928C1034.16 246.936 1043.29 245.275 1066.94 245.263C1087.28 245.252 1115.95 258.102 1127.53 267.896C1136.39 275.386 1135.22 292.165 1138.15 307.393C1139.57 314.801 1141.9 320.525 1147.46 340.732C1152.47 358.921 1162.49 393.055 1167.59 411.69C1176.96 446.001 1180.99 477.276 1181.62 495.163C1181.97 505.236 1183.48 513.485 1184.11 523.055C1184.44 528.061 1185.15 546.637 1185.36 572.203C1185.44 581.713 1185.98 584.181 1186.19 613.865C1186.4 643.548 1186.4 700.369 1186.2 730.67C1185.99 760.971 1185.58 763.03 1184.34 765.531C1176.07 782.184 1150.32 800.012 1135.5 808.796C1124.91 815.073 1114.51 817.53 1095.8 822.321C1091.61 823.397 1089.13 824.193 1061.92 828.94C1034.7 833.688 982.823 842.335 952.803 846.789C907.179 853.559 885.451 852.491 865.188 853.527C850.134 854.296 837.9 854.151 777.947 854.774C720.879 855.368 609.705 854.987 550.993 854.781C489.397 854.565 483.959 853.327 477.54 852.291C460.726 849.579 453.191 848.349 436.802 842.534C419.33 836.336 406.226 830.057 395.178 825.266C384.777 820.755 375.433 817.156 361.096 810.93C343.321 803.21 334.657 796.369 327.788 792.201C320.084 786.374 315.093 783.043 311.774 780.972C310.102 779.724 308.455 778.077 306.758 776.38" stroke="#1E1E1E" stroke-width="71" stroke-linecap="round"/>
<path d="M606.211 783.866C609.106 784.69 616.567 787.185 671.804 789.257C722.902 791.173 820.919 792.151 814.58 796.088C808.242 800.024 694.6 806.201 637.086 809.382C579.572 812.564 581.631 812.564 585.368 812.152C589.105 811.741 594.457 810.917 667.212 810.081C739.967 809.245 879.961 808.422 887.435 809.233C894.909 810.044 765.62 812.514 774.366 812.757C783.113 813.001 933.813 810.942 911.391 808.852C888.97 806.762 688.86 804.703 584.538 803.231C480.216 801.759 477.746 800.935 475.855 798.864C464.736 786.681 466.466 766.024 467.702 759.991C468.159 757.759 471.407 758.488 473.503 759.729C494.203 771.989 502.6 821.622 515.296 837.899C517.251 840.406 514.316 824.692 506.462 770.859C499.59 723.759 491.196 635.912 486.523 577.144C481.851 518.376 482.262 491.201 482.886 473.702C483.761 449.176 488.476 431.697 493.673 417.13C495.245 412.724 495.987 414.915 496.405 464.768C496.823 514.621 497.235 612.205 498.271 660.829C499.306 709.452 500.953 706.158 506.949 670.698C512.944 635.238 523.238 567.711 529.158 525.102C535.078 482.492 536.314 466.846 537.568 455.697C538.822 444.549 540.057 438.373 542.134 431.073C544.212 423.774 547.094 415.539 544.461 460.913C541.829 506.286 533.594 605.517 528.734 659.313C523.384 718.533 520.542 729.74 518.677 735.386C518.348 736.382 516.4 729.092 515.558 682.676C514.716 636.261 514.304 549.794 518.621 474.163C522.938 398.533 531.997 336.359 533.163 380.092C534.33 423.824 527.33 575.347 519.607 617.583C511.883 659.818 503.648 588.174 502.082 521.826C500.517 455.479 505.869 396.599 497.715 389.325C489.562 382.05 467.739 428.166 453.821 460.364C439.902 492.561 434.55 509.443 432.204 515.051C429.858 520.66 430.682 514.484 437.694 493.391C444.706 472.298 457.882 436.476 467.346 412.875C481.114 378.542 494.677 358.905 512.077 337.763C534.212 310.865 550.887 300.15 551.723 303.469C553.675 311.219 533.943 322.135 517.691 331.536C493.587 345.481 452.617 343.421 429.49 339.697C426.716 339.25 424.917 337.207 423.857 334.718C417.051 318.745 452.167 288.671 469.336 273.998C471.828 271.868 473.503 270.255 474.969 271.671C476.436 273.087 477.671 277.616 472.131 297.243C466.591 316.87 454.239 351.456 441.905 380.803C429.571 410.149 417.63 433.207 411.067 442.821C404.504 452.434 403.681 447.905 406.757 426.014C409.832 404.123 416.832 365.007 422.497 338.886C428.161 312.764 432.279 300.824 434.606 293.026C437.873 282.077 430.769 306.538 411.723 369.96C400.961 405.794 382.794 447.381 373.068 470.869C361.729 498.252 357.927 503.529 355.85 504.583C354.931 505.049 354.596 501.108 354.795 480.065C354.995 459.022 355.818 419.906 358.095 392.756C360.373 365.605 364.078 351.606 366.605 347.688C369.132 343.77 370.367 350.358 368.944 376.604C367.522 402.85 363.405 448.554 360.254 477.245C355.961 516.342 352.924 529.718 352.924 531.615C352.924 532.6 352.924 525.688 355.6 501.32C358.276 476.952 363.629 433.307 367.21 407.323C371.769 374.24 377.841 358.481 384.691 348.468C386.626 345.639 390.305 353.278 391.99 407.722C393.674 462.167 394.498 564.692 394.098 624.919C393.699 685.147 392.052 699.97 390.792 705.341C390.279 707.529 388.272 692.047 393.631 649.493C397.81 616.304 408.048 560 414.985 525.176C421.923 490.353 426.04 478.824 428.985 474.532C431.643 470.657 435.685 498.338 432.191 563.101C429.847 606.565 420.051 671.097 415.397 700.488C410.743 729.878 409.92 722.054 409.907 691.055C409.895 660.055 410.718 606.116 412.172 573.8C413.625 541.484 415.684 532.426 417.568 530.847C419.452 529.269 421.099 535.445 421.948 571.567C422.796 607.688 422.796 673.568 422.178 711.829C421.561 750.091 420.326 758.737 418.454 759.898C416.582 761.058 414.112 754.47 408.928 713.607C403.743 672.744 395.92 597.806 392.302 553.232C388.683 508.657 389.507 496.716 391.166 483.977C394.556 457.954 398.665 442.016 400.736 440.126C404.556 436.639 406.975 456.053 410.911 510.522C414.278 557.103 416.083 642.4 416.333 694.336C416.582 746.273 414.112 762.331 411.604 773.897C409.096 785.464 406.626 792.052 403.912 792.357C401.198 792.663 398.316 786.487 392.302 761.276C386.288 736.066 377.229 692.009 371.328 650.785C365.426 609.56 362.955 572.503 362.506 545.383C361.791 502.195 366.224 482.779 368.296 480.059C371.027 476.472 374.534 493.909 378.471 535.601C381.739 570.216 383.643 632.468 384.304 672.526C384.965 712.584 383.318 728.642 381.44 740.826C379.563 753.01 377.504 760.834 374.384 762.599C371.265 764.365 367.148 759.835 359.468 736.503C351.788 713.171 340.671 671.172 334.738 641.096C321.285 572.897 332.948 558.89 335.643 554.935C336.663 553.437 338.75 554.685 340.833 557.786C342.917 560.886 345.387 566.239 351.395 587.731C357.403 609.223 366.873 646.692 372.781 676.082C378.689 705.472 380.748 725.648 381.808 740.776C382.869 755.905 382.869 765.375 382.045 770.666C381.222 775.956 379.575 776.779 377.491 776.586C372.739 776.145 367.921 771.414 362.737 767.877C353.96 761.888 343.815 769.717 336.522 772.419C332.704 773.833 328.406 773.885 324.463 774.914C315.244 777.321 317.164 793.374 317.357 816.214C317.514 834.684 326.697 843.308 333.141 847.9C341.215 853.652 347.484 859.952 372.157 874.058C383.346 880.454 391.977 884.919 403.569 887.82C421.57 892.326 450.895 896.548 481.021 900.915C506.176 904.562 515.502 903.648 529.389 904.683C566.162 907.426 577.039 906.143 587.246 907.179C594.449 907.91 601.195 907.803 613.173 908.426C639.117 909.778 663.943 909.874 687.737 911.745C703.671 912.999 727.589 912.382 742.98 912.793C758.371 913.205 764.547 914.029 783.375 914.453C802.203 914.877 833.496 914.877 854.146 914.26C895.346 913.027 906.837 909.487 917.898 908.433C926.87 907.577 944.219 905.744 958.443 904.69C970.982 903.76 982.549 901.576 1003.1 900.741C1023.85 899.897 1035.35 897.833 1045.38 897.203C1054.63 896.622 1066.15 894.09 1077.81 892.424C1089.87 890.701 1100.68 889.923 1109.42 888.681C1121.61 886.95 1138.06 877.92 1159.92 857.557C1169.38 848.739 1174.72 839.215 1180.97 831.105C1188.72 821.05 1190.54 802.657 1191.6 791.808C1193.65 770.739 1190.99 741.519 1187.04 716.995C1185.22 705.748 1181.44 691.635 1176.85 679.301C1173.43 670.109 1168.96 657.497 1165.2 643.754C1162.66 634.464 1154.86 611.456 1142.18 579.222C1135.3 561.713 1123.02 529.157 1116.04 514.253C1109.06 499.349 1107.82 503.054 1106.36 534.198C1104.9 565.341 1103.25 623.809 1104.05 664.634C1104.85 705.46 1108.14 726.871 1109.84 742.018C1111.54 757.165 1111.54 765.4 1110.71 768.819C1109.89 772.238 1108.24 770.591 1106.78 767.478C1105.31 764.365 1104.08 759.835 1101.59 740.209C1099.1 720.582 1095.39 685.995 1093.48 663.649C1090.81 632.3 1091.99 620.44 1093.23 620.403C1095.8 620.325 1095.29 630.247 1095.11 654.858C1094.92 679.47 1093.27 721.056 1090.78 752.156C1086.71 802.776 1081.59 825.016 1080.15 824.642C1077.06 823.84 1075.83 813.562 1071.67 788.733C1067.51 763.903 1062.15 722.728 1059.6 694.929C1055.85 654.07 1058.71 638.32 1059.75 640.347C1066.32 653.139 1057.9 672.744 1054.38 689.944C1049.88 711.923 1038 742.505 1025.12 773.666C1017.2 792.843 1006.79 807.486 995.993 821.204C989.929 828.908 983.459 829.196 979.311 829.202C974.849 829.209 970.982 822.172 967.039 813.051C962.543 802.649 961.4 780.286 962.217 745.661C963.146 706.303 972.18 676.238 978.606 659.013C989.603 629.534 1002.97 619.192 1005.26 617.302C1008.86 614.32 1003.86 641.464 993.092 675.059C987.367 692.919 977.383 711.124 964.687 731.375C951.992 751.625 935.934 773.036 922.515 787.978C900.55 812.434 884.078 820.45 876.81 823.151C873.696 824.308 871.601 824.617 870.747 820.506C868.148 808.007 876.081 782.781 886.455 753.921C894.526 731.472 906.026 716.14 922.989 698.541C950.295 670.211 972.604 654.128 975.724 651.415C977.31 650.035 967.314 670.174 948.642 697.78C939.817 710.826 930.793 720.857 911.928 738.1C893.062 755.344 864.24 779.225 839.922 796.674C815.604 814.124 796.663 824.417 782.788 831.161C761.1 841.703 748.489 844.581 742.874 843.358C740.139 842.762 740.965 836.371 742.818 831.149C746.813 819.89 758.782 808.472 773.911 794.372C782.231 786.618 792.745 778.626 821.929 761.414C851.114 744.201 898.876 718.261 926.775 702.634C954.674 687.006 961.262 682.477 966.509 678.085C971.756 673.693 975.462 669.575 951.43 682.895C927.399 696.214 875.519 727.095 833.764 748.974C792.009 770.853 761.952 782.793 744.614 789.356C727.277 795.919 723.572 796.743 723.516 794.491C723.305 786.058 738.395 775.195 771.858 751.632C797.468 733.599 842.38 705.834 869.611 687.698C906.072 663.416 920.163 649.587 932.191 636.735C938.654 629.83 945.042 621.413 917.761 645.376C890.479 669.338 829.129 725.748 793.818 757.689C758.508 789.631 751.096 795.395 748.102 795.895C745.107 796.394 746.754 791.453 760.573 771.202C774.391 750.952 800.331 715.541 817.812 692.976C835.293 670.411 843.528 661.765 859.299 649.487C897.038 620.107 921.884 607.501 921.473 613.091C920.844 621.629 916.507 634.477 906.787 654.977C900.616 667.991 889.244 684.947 868.7 710.12C848.157 735.293 818.099 767.821 796.439 789.313C774.778 810.805 762.426 820.275 757.298 823.301C752.169 826.326 754.64 822.621 782.882 795.183C811.124 767.746 865.063 716.689 908.908 671.035C952.753 625.381 984.869 586.677 1001.83 567.973C1018.78 549.27 1019.61 551.74 1020.24 554.043C1022.76 563.254 1022.95 571.729 1022.13 574.855C1021.48 577.308 1011.37 552.414 1000.15 518.751C995.769 505.591 993.054 500.734 982.723 486.659C972.392 472.585 954.275 449.527 943.089 435.796C923.387 411.611 914.423 408.727 909.651 407.685C907.391 407.192 905.29 407.878 903.406 410.355C892.466 424.736 895.682 448.953 899.812 478.456C903.097 501.917 916.831 525.476 926.189 540.056C928.002 542.88 921.548 517.441 907.635 488.774C898.616 470.189 886.599 456.627 869.617 438.803C859.668 428.36 845.224 416.862 807.955 394.035C770.686 371.208 710.57 337.856 673.22 318.205C623.817 292.212 594.719 284.404 595.724 283.93C610.774 276.825 660.138 299.102 693.396 308.335C726.654 317.568 743.535 324.156 713.939 324.668C684.343 325.179 607.758 319.415 566.247 316.034C524.735 312.652 520.617 311.829 519.526 310.787C518.434 309.745 520.493 308.51 524.847 307.256C529.202 306.002 535.79 304.767 611.445 306.601C687.101 308.435 831.624 313.376 859.548 316.333C887.472 319.29 794.417 320.114 793.007 318.273C791.597 316.433 884.652 311.904 938.766 310.394C1005.21 308.54 1020.02 313.463 1023.14 316.57C1024.66 318.088 1024.2 320.912 1023.79 323.214C1022.99 327.676 1013.88 335.872 994.202 348.936C982.781 356.519 966.703 363.235 940.937 371.376C915.172 379.518 879.761 388.164 851.844 393.648C804.873 402.874 778.459 403.312 769.307 402.282C766.178 401.93 766.743 399.194 768.396 395.869C772.434 387.748 788.665 374.29 827.769 353.977C853.187 340.773 893.636 329.546 925.94 320.494C958.243 311.442 982.124 306.913 999.368 304.374C1016.61 301.834 1026.49 301.423 1032 302.446C1037.5 303.469 1038.32 305.939 1038.75 308.859C1040.78 322.872 1026.78 350.72 1009.15 385.588C993.382 416.772 973.54 438.16 959.828 452.085C952.431 459.596 947.687 461.53 943.751 462.16C941.482 462.524 938.579 460.732 936.477 458.654C932.224 454.452 929.396 439.608 925.653 415.764C921.503 389.331 926.027 366.379 929.963 350.402C937.434 320.081 961.712 299.426 983.353 286.687C1005.5 273.651 1034.88 283.081 1055.53 295.115C1068.06 302.421 1073.66 318.404 1080.3 332.497C1088.23 349.334 1091.97 370.347 1094.68 391.302C1097.2 410.915 1095.33 429.426 1092.22 446.233C1086.76 475.787 1072.09 493.896 1059.18 503.728C1053.6 507.985 1044.62 506.049 1035.29 503.36C1013.61 497.113 1001.39 470.389 992.406 441.068C987.918 426.419 989.261 409.226 990.497 386.031C992.267 352.794 999.218 326.851 1004.61 314.193C1009.7 302.229 1017.51 294.373 1023.74 289.388C1026.55 287.134 1029.14 286.051 1032.47 286.444C1040.26 287.363 1055.69 312.839 1077.69 359.903C1089.26 384.659 1097.21 413.144 1103.12 433.949C1109.02 454.755 1111.49 467.519 1113.17 485.418C1116.98 525.861 1114.88 557.942 1111.15 574.337C1105.16 600.659 1094.92 609.585 1090.78 612.08C1088.52 613.44 1084.99 612.929 1082.05 611.488C1067.91 604.537 1062.5 574.823 1055.23 541.235C1051.38 523.43 1050.03 503.529 1049.38 484.083C1048.11 446.129 1052.46 420.842 1056.81 409.425C1060.56 399.613 1066.18 393.355 1070.13 389.2C1071.87 387.367 1073.66 386.692 1075.74 389.562C1077.82 392.431 1080.3 399.019 1083.01 412.089C1085.72 425.159 1088.6 444.511 1090.09 484.332C1091.57 524.153 1091.57 583.857 1090.34 620.789C1088.69 670.186 1082.85 685.272 1079.95 686.956C1078.36 687.881 1076.23 682.052 1071.67 665.52C1067.11 648.988 1060.11 620.166 1055.06 586.789C1050.01 553.412 1047.13 516.355 1045.85 491.501C1043.98 455.155 1047.06 433.768 1050.37 416.949C1051.83 409.555 1053.69 404.659 1055.37 400.879C1057.04 397.098 1058.68 394.627 1073.53 436.588C1088.38 478.549 1116.38 565.016 1135.95 621.912C1155.52 678.808 1165.81 703.513 1170.09 713.77C1172.3 719.085 1162.77 685.584 1150.1 639.243C1145.17 621.22 1141.96 614.725 1140.06 612.567C1138.25 610.51 1134.43 635.6 1131.73 684.492C1130.14 713.171 1131.9 749.854 1132.12 770.379C1132.34 790.904 1131.93 794.198 1126.98 789.101C1122.03 784.004 1112.56 770.416 1102.8 756.417" stroke="#1E1E1E" stroke-width="71" stroke-linecap="round"/>
<path d="M355.419 252.266C349.63 251.031 328.942 248.523 313.452 251.836C304.936 253.657 298.473 258.48 292.016 263.683C284.901 269.416 276.863 279.666 271.834 287.589C266.328 296.266 262.289 307.116 254.173 326.225C249.951 336.165 248.964 345.796 246.874 357.031C244.429 370.172 244.796 385.298 243.336 399.435C241.367 418.509 241.877 430.216 240.841 447.635C239.299 473.567 240.217 493.463 239.593 504.007C237.538 538.745 240.629 570.161 241.664 592.433C242.323 606.593 243.124 615.728 244.16 624.88C245.705 638.538 245.62 665.062 246.655 688.052C248.099 720.11 248.115 746.564 249.151 766.072C249.936 780.856 250.611 791.631 251.852 801.438C253.142 811.628 253.929 821.602 255.595 829.93C257.279 838.347 259.345 846.556 260.586 855.92C261.881 865.691 262.664 877.325 266.4 889.184C267.258 891.906 267.654 893.969 269.719 895.853C279.83 905.078 292.16 903.153 299.453 905.854C307.265 908.748 315.866 910.215 325.436 912.305C335.335 914.466 360.21 918.924 378.664 921.457C392.442 923.348 403.182 924.364 415.89 925.824C428.52 927.274 446.852 928.531 460.596 929.567C470.178 930.289 486.729 931.027 501.153 932.062C512.172 932.853 526.282 933.522 539.826 934.558C551.68 935.464 561.667 936.018 569.996 937.053C574.118 937.566 581.207 938.089 644.073 940.983C701.974 943.65 812.759 946.349 871.052 947.84C929.346 949.331 931.816 948.919 942.971 948.707C973.885 948.119 997.134 948.083 1008.5 947.459C1047.42 945.323 1057.41 943.928 1082.33 936.673C1095.02 932.978 1103.58 928.955 1118.14 924.807C1132.19 920.804 1146.85 917.302 1155.38 915.025C1164.32 912.641 1175.1 907.769 1183.67 900.071C1191.27 893.252 1195.93 874.156 1198.67 862.227C1200.76 853.073 1200.13 833.031 1198.47 818.557C1193.08 803.422 1188.07 781.774 1187.44 768.455C1187.24 765.516 1186.83 763.458 1186.4 761.337" stroke="#1E1E1E" stroke-width="71" stroke-linecap="round"/>
<path d="M1116.53 247.276C1120.25 247.687 1132.67 250.994 1150.15 261.169C1165.05 269.837 1180.96 279.691 1191.14 290.272C1202.41 301.982 1207.56 317.872 1216.73 353.413C1221.56 372.133 1226.33 391.961 1227.36 404.426C1229.23 426.854 1228.82 446.761 1229.86 464.329C1230.62 477.236 1231.32 513.564 1232.35 539.192C1232.62 545.828 1232.98 552.93 1233.6 574.191C1234.12 591.74 1233.81 623.039 1234.02 640.395C1234.23 657.751 1234.64 660.221 1234.85 676.111C1235.45 721.231 1234.65 754.649 1234.03 761.698C1232.67 777.06 1231.74 789.56 1231.11 804.951C1230.7 815.06 1228 824.92 1227.37 835.95C1226.78 846.243 1224.26 856.113 1222.8 866.108C1222.17 876.514 1220.51 886.483 1219.05 898.112C1218.84 902.678 1218.84 909.266 1218.84 916.054" stroke="#1E1E1E" stroke-width="71" stroke-linecap="round"/>
<path d="M261.84 259.753C256.063 258.518 234.515 254.363 197.102 254.962C169.701 255.4 153.338 263.072 134.435 271.569C123.801 276.349 117.554 284.258 108.626 294.633C88.1106 318.474 74.3325 341.978 67.0084 358.273C64.0039 364.958 58.499 378.598 51.649 399.547C44.7847 420.54 42.6654 438.938 41.4177 461.073C39.268 499.207 41.4052 526.316 46.1465 547.983C50.1817 566.422 58.7111 599.707 64.1886 620.182C74.2877 657.933 82.1433 671.426 88.7936 687.234C94.067 699.77 99.1871 719.625 104.796 738.747C112.834 766.154 130.405 799.143 134.76 808.713C139.596 819.341 145.777 827.84 152.016 841.347C156.89 851.9 163.245 859.457 168.242 866.12C173.301 872.865 176.97 882.316 182.591 895.211C184.672 899.985 185.305 904.388 185.935 905.86C189.96 915.265 181.162 888.629 176.621 865.534C172.577 844.97 166.315 806.205 162.921 761.149C159.527 716.094 159.527 665.861 158.703 629.278C157.88 592.695 156.233 571.284 157.443 543.166C158.654 515.049 162.771 480.874 164.892 442.269C167.013 403.665 167.013 361.667 157.131 398.911C147.249 436.156 127.485 553.916 116.892 616.021C106.299 678.126 105.476 681.008 111.845 621.554C118.215 562.101 131.803 440.223 132.832 417.377C133.861 394.532 121.921 474.411 118.24 486.326C114.559 498.242 119.5 439.774 123.075 404.713C126.649 369.652 128.708 359.77 130.798 351.591C132.888 343.412 134.947 337.236 129.419 358.759C123.892 380.283 110.716 429.692 103.311 456.587C95.0801 486.48 92.5742 491.392 91.5324 492.453C87.9448 496.105 99.1497 457.978 112.02 414.364C117.513 395.751 122.42 384.749 130.723 366.052C150.617 321.258 164.094 292.219 164.93 290.328C165.164 289.797 164.119 294.614 153.606 322.463C143.094 350.312 122.919 402.193 112.114 429.948C101.308 457.704 100.485 459.762 101.09 456.706C101.695 453.649 103.754 445.414 110.373 423.466C116.992 401.519 128.109 366.109 133.63 351.161C139.152 336.213 138.74 342.801 129.469 387.576C120.199 432.35 102.082 515.111 91.1019 568.657C80.122 622.203 76.828 644.026 74.9252 656.709C71.8343 677.312 70.9387 697.129 74.0393 718.215C77.6337 742.66 80.9205 752.977 85.6806 777.657C90.0399 800.259 95.4689 812.443 98.1703 820.16C101.902 830.821 108.77 844.06 123.075 862.539C130.86 872.596 138.69 877.35 145.777 882.347C155.75 889.379 169.06 897.737 175.722 901.275C183.696 905.508 190.271 912.71 195.492 916.453C197.983 918.238 190.745 922.28 185.767 924.358C177.266 927.905 169.134 922.717 160.812 919.192C144.04 912.088 134.597 896.14 130.43 884.087C123.33 863.553 123.368 839.694 119.612 824.59C116.849 813.475 110.891 800.515 106.1 786.553C100.685 770.775 102.968 762.198 99.0499 712.538C95.3606 665.775 88.9558 575.177 85.3562 527.483C81.7565 479.788 81.3447 477.73 79.8974 479.757C69.223 494.711 70.5395 507.987 65.7794 533.403C62.1916 552.56 58.1371 584.759 55.8039 602.539C52.3905 628.55 52.2229 645.199 51.1873 661.457C49.9428 680.995 53.8699 693.486 55.9536 711.116C58.7713 734.957 64.2634 757.107 70.0591 774.3C83.702 814.774 91.2766 828.214 96.9163 837.423C100.963 844.03 109.144 853.194 119.151 866.513C126.941 876.883 139.513 886.059 178.093 914.076C191.115 923.533 201.051 928.506 211.27 933.503C225.144 940.288 246.768 942.231 258.066 943.916C270.311 945.741 286.745 948.495 307.051 949.53C334.248 950.917 354.558 950.154 361.396 950.778C370.258 951.587 381.559 951.814 417.68 953.885C447.603 955.601 501.153 956.78 534.904 958.657C568.655 960.535 581.007 962.594 609.605 963.449C638.203 964.303 682.671 963.892 707.021 963.885C731.37 963.879 734.252 964.291 756.118 963.885C777.985 963.48 818.748 962.245 842.629 962.02C866.511 961.795 872.275 962.619 895.214 963.043C918.154 963.467 958.093 963.467 981.139 963.056C1017.56 962.405 1029.96 960.148 1043.07 959.518C1064.44 958.491 1090.28 957.653 1113.73 957.023C1126.56 956.678 1137.27 954.733 1147.68 953.698C1162.2 952.253 1173.03 951.414 1183.66 950.784C1185.96 950.578 1188.02 950.167 1190.52 949.749C1193.03 949.331 1195.91 948.919 1201.37 945.999" stroke="#1E1E1E" stroke-width="71" stroke-linecap="round"/>
<path d="M1195.14 258.505C1198.44 259.329 1205.92 264.295 1214.86 275.512C1224.07 287.072 1230.87 300.054 1240.85 314.384C1250.14 327.737 1255.82 339.133 1261.25 350.169C1268.75 365.452 1272.89 382.803 1276.02 391.15C1279.19 399.617 1280.8 408.182 1282.47 418.176C1284.07 427.77 1285.79 437.703 1286.42 451.64C1286.98 463.974 1288.29 474.71 1288.92 485.347C1289.53 495.57 1290.79 507.176 1291.42 528.967C1291.62 535.898 1292.46 550.347 1292.66 570.916C1292.78 582.853 1293.71 610.949 1293.09 650.639C1292.76 671.879 1287.08 695.856 1282.3 724.541C1278.51 747.316 1273.34 766.278 1268.98 788.493C1266.75 799.797 1260.07 817.759 1255.87 831.384C1252.9 841.029 1249.64 848.228 1246.51 858.203C1243.83 866.746 1242.97 875.254 1241.31 883.788C1239.48 893.129 1237.98 901.456 1236.32 909.784C1234.65 918.113 1230.52 929.704 1225.1 940.141C1222.37 945.405 1220.1 950.553 1219.88 953.467C1218.24 974.692 1267.05 924.414 1271.65 916.709C1277.56 906.789 1281.2 891.624 1284.75 879.901C1287.26 871.634 1290.36 859.158 1293.49 849.332C1299.32 830.984 1304.09 804.633 1305.35 795.892C1305.71 793.383 1306.58 790.508 1310.3 768.23C1314.02 745.952 1320.61 704.366 1324 681.707C1328.5 651.658 1328.64 640.782 1330.71 625.185C1331.51 619.184 1331.55 614.13 1332.17 591.859C1332.73 572.064 1332.38 535 1332.18 514.881C1331.91 488.503 1328.67 471.99 1327.19 459.419C1326.16 450.677 1325.32 439.075 1324.69 423.26C1324.27 412.743 1321.58 400.396 1318.26 389.765C1313.76 375.335 1306.63 364.212 1300.17 352.54C1295.52 344.12 1290.41 336.737 1284.99 329.65C1279.42 322.374 1271.7 314.278 1265.24 305.95C1259.29 298.276 1244.74 283.16 1233.84 273.702C1227.72 268.392 1217.64 265.592 1208.69 262.055C1195.95 257.027 1181.86 251.867 1172.92 248.536C1152.05 240.759 1114.91 246.851 1094.98 247.481C1080.78 247.931 1066.67 249.347 1057.71 250.807C1048.34 251.431 1036.75 253.09 1023.62 254.756C1020.89 255.174 1018.83 255.585 1015.46 256.01" stroke="#1E1E1E" stroke-width="71" stroke-linecap="round"/>
<path d="M1185.15 229.808C1192.6 232.29 1204.24 235.622 1211.33 238.529C1218.41 241.434 1227.53 244.755 1237.11 249.546C1244.53 253.256 1252.9 257.232 1261.85 261.812C1273.94 268.001 1279.53 273.877 1289.51 282.798C1298.63 290.962 1305.33 299.231 1309.91 306.099C1315 313.744 1319.88 320.442 1324.67 328.752C1337.08 350.315 1350.25 369.103 1354.82 378.873C1356.81 383.105 1365.17 400.171 1375.57 425.731C1380.99 439.055 1382.69 447.697 1386.84 464.647C1400.27 519.633 1396.84 529.635 1397.47 545.419C1398.24 564.549 1400.58 590.349 1400.8 611.735C1400.97 628.212 1395.64 666.26 1391.45 685.194C1389.37 694.611 1386.88 705.563 1382.52 723.213C1377.13 744.979 1360.73 787.788 1355.48 803.304C1350.65 817.577 1346.13 830.735 1332.02 872.845C1326.89 888.173 1319.93 897.713 1312.04 908.106C1301.21 922.371 1293.33 932.649 1286.04 939.942C1277.92 948.058 1269.62 955.532 1262.54 960.953C1260.87 962.207 1259.22 963.442 1255.9 966.549C1252.58 969.656 1247.64 974.597 1241.3 980.936" stroke="#1E1E1E" stroke-width="71" stroke-linecap="round"/>
<path d="M1201.37 239.789C1189.01 239.789 1162.73 240.201 1129.32 240.825C1099.63 241.379 1044.04 241.037 1013.75 241.243C980.173 241.471 959.079 242.285 931.018 242.491C911.09 242.637 892.862 245.179 876.829 246.646C851.945 248.921 841.257 250.595 825.261 251.431C819.639 251.724 812.235 252.666 738.008 254.737C663.781 256.808 522.963 260.102 448.774 262.005C374.584 263.908 371.29 264.319 366.711 264.532C347.556 265.419 334.283 265.991 312.248 268.063C297.677 269.432 286.021 269.735 276.226 270.976C270.216 271.738 263.949 272.642 260.817 271.413C247.251 266.089 294.955 251.069 340.908 244.381C353.173 242.596 359.137 243.121 378.939 242.497C396.262 241.951 428.386 242.285 446.578 242.491C468.071 242.734 496.574 245.591 535.659 248.916C556.31 250.673 567.469 251.842 621.914 255.766C670.156 259.243 760.354 264.22 808.042 266.771C855.73 269.323 858.201 268.911 876.355 268.699C894.509 268.487 928.273 268.487 946.901 268.693C968.008 268.926 978.369 269.735 991.869 269.94C1000.86 270.078 1030.17 272.629 1070.51 275.331C1086.99 276.434 1108.43 277.221 1138.99 277.015C1158.12 276.886 1168.06 275.15 1176.18 272.242C1178.12 271.548 1179.71 270.583 1179.12 269.747C1176.89 266.606 1170.21 267.239 1162.96 266.827C1158.18 266.556 1151.19 265.592 1038.27 265.58C925.341 265.567 706.702 266.391 592.63 267.021C478.557 267.651 475.674 268.063 452.779 268.275C429.883 268.487 387.061 268.487 363.149 268.693C339.236 268.899 335.53 269.31 307.475 269.728C279.42 270.146 227.128 270.558 198.749 271.182C161.956 271.991 150.444 278.019 139.601 283.647C127.607 289.871 110.566 312.432 100.903 327.504C90.8717 343.15 83.4409 366.982 80.9268 378.86C76.9812 397.501 75.5304 407.782 70.134 425.388C58.6688 462.792 57.2388 474.311 52.6534 486.994C44.7025 508.986 41.8419 537.545 38.7164 550.004C35.0571 564.59 36.4268 580.791 35.7967 589.12C34.7926 602.392 36.4018 625.659 37.4562 653.103C38.3023 675.127 39.3215 705.963 39.9516 723.212C40.4634 737.223 41.8169 747.961 43.2768 761.493C44.8193 775.791 44.7366 789.959 45.9781 800.191C47.1661 809.981 48.0555 820.753 49.7213 829.93C51.5168 839.822 51.7987 852.37 53.6703 863.194C55.3863 873.119 62.579 888.504 71.9369 902.073C83.1444 918.324 101.608 923.49 114.366 928.313C122.265 931.299 130.779 933.098 146.357 938.488C164.247 944.678 175.273 946.399 185.898 948.694C203.466 952.491 224.795 955.557 244.809 959.069C261.889 962.067 293.233 966.287 310.794 968.621C331.192 971.331 358.089 973.424 395.92 977.167C413.127 978.87 419.44 978.852 427.924 979.476C441.726 980.491 453.952 980.099 490.036 981.341C522.406 982.455 583.353 983.406 617.01 984.454C655.224 985.644 667.686 987.174 680.775 987.38C688.534 987.502 719.055 988.422 762.713 988.628C780.852 988.713 797.387 989.67 820.451 989.875C833.236 989.99 853.921 990.917 880.529 991.123C913.39 991.377 955.947 992.988 967.794 993.619C996.223 995.131 1039.54 1000.47 1056.13 1001.93C1091.42 1005.04 1122.92 1003.39 1146.61 1002.36C1174.73 1001.13 1186.33 998.828 1196.35 996.126C1204.98 993.801 1221.64 988.472 1236.89 982.202C1246.38 978.3 1254.98 969.756 1265.59 958.932C1273.36 951.02 1282 939.836 1291.6 920.084C1299.56 903.699 1300.74 877.574 1302.03 848.346C1299.53 834.977 1297.05 824.197 1292.48 813.154C1291.22 810.846 1289.99 809.199 1288.71 807.502" stroke="#1E1E1E" stroke-width="71" stroke-linecap="round"/>
<path d="M1079.13 522.49C1078.3 522.49 1072.53 521.667 1063.39 521.242C1057.2 520.955 1040.18 545.985 1015.87 578.831C1006.98 590.829 1004.31 592.737 1002.01 592.356C999.708 591.976 997.649 589.094 996.795 585.962C995.099 579.748 999.246 566.26 1004.02 548.611C1007.63 535.265 1016.27 520.095 1032.62 495.858C1042.59 481.071 1058.44 462.974 1071.64 448.9C1094.4 424.636 1113.16 412.728 1124.17 407.113C1128.47 404.925 1130.66 405.204 1132.33 407.263C1144.41 422.081 1133.23 463.223 1126.98 487.074C1124.91 494.969 1122.4 502.901 1119.7 507.287C1110.92 521.529 1133.93 449.099 1146.88 425.23C1156.87 406.813 1179.67 396.121 1192.01 392.721C1200.58 390.363 1196.84 422.498 1188.34 458.725C1186.3 467.432 1181.51 474.104 1178.78 478.327C1176.05 482.551 1174.4 483.786 1172.52 474.952C1162.02 425.521 1165.64 413.165 1161.72 402.322C1160.45 398.816 1151.22 401.861 1133.2 401.873C1115.18 401.886 1086.36 401.062 1017.78 389.726C949.2 378.391 841.734 356.568 779.785 342.856C717.835 329.143 704.66 324.202 697.049 321.039C683.107 315.246 659.667 308.331 640.184 306.429C623.009 304.751 599.651 304.563 571.397 304.139C567.124 304.075 569.182 304.139 588.771 302.904C608.361 301.669 645.418 299.198 669.449 297.102C693.48 295.006 703.362 293.359 706.806 292.922C710.249 292.485 706.955 293.309 642.673 296.821C578.39 300.334 453.219 306.51 389.972 309.074C326.725 311.638 329.195 310.403 334.586 308.531C348.095 303.84 376.047 297.938 407.016 292.323C421.807 289.641 427.79 290.002 431.533 290.614C440.744 292.118 415.064 332.163 397.714 358.764C385.961 376.784 359.765 388.485 345.491 392.946C329.014 398.095 361.599 341.745 374.7 316.984C378.766 309.299 379.154 312.399 371.537 340.236C363.919 368.072 348.685 420.776 336.513 456.367C318.247 509.782 307.198 523.763 308.645 519.608C309.296 517.741 311.328 517.1 314.029 517.911C316.731 518.722 320.436 521.193 341.08 540.376C361.724 559.56 399.193 595.382 421.377 617.747C462.889 659.598 464.823 685.468 464.835 694.439C464.838 696.367 463.6 697.97 461.94 698.612C460.281 699.255 457.81 698.843 455.508 696.778C435.095 678.467 442.788 631.104 443.611 622.57C443.858 620.011 459.719 651.554 482.958 703.859C493.841 728.353 504.55 747.928 508.618 756.875C512.685 765.821 510.215 763.35 507.501 758.989C493.691 736.799 485.235 717.609 478.573 704.695C477.762 703.124 479.77 703.809 481.648 705.057C493.03 712.619 521.594 742.314 539.243 756.207C549.322 764.142 555.482 767.867 555.095 767.674C537.24 758.746 526.41 754.155 522.049 754.972C516.973 755.923 517.651 764.523 518.269 769.502C520.251 785.477 541.657 815.542 564.684 844.814C584.669 870.219 602.459 880.561 606.015 883.687C609.249 886.53 590.506 876.893 565.901 856.642C547.886 841.816 520.296 815.804 502.373 800.389C484.449 784.973 477.45 780.444 473.02 778.523C468.591 776.601 466.944 777.425 466.507 779.496C464.235 790.271 472.708 798.611 483.701 809.422C491.275 816.872 505.923 821.906 547.84 834.314C581.197 844.189 640.402 856.605 694.41 864.428C748.417 872.251 795.768 873.898 848.16 871.453C900.552 869.007 956.55 862.419 986.632 858.614C1016.71 854.808 1019.19 853.985 1019.43 853.149C1021.64 845.54 998.498 853.536 954.141 876.531C940.929 883.381 928.401 887.973 917.508 891.753C906.616 895.534 897.557 898.004 850.275 901.953C802.992 905.902 717.761 911.255 651.207 910.924C584.654 910.594 539.362 904.418 514.794 901.236C490.226 898.054 487.756 898.054 485.454 897.848C483.152 897.642 481.093 897.231 540.971 901.548C600.849 905.865 722.727 914.923 693.898 914.443C665.069 913.963 481.842 903.669 382.099 896.719C282.356 889.769 271.651 886.475 262.43 882.72C235.255 871.651 229.053 859.849 224.038 849.855C219.585 840.983 213.681 823.715 198.565 797.613C177.749 761.667 159.593 735.089 153.154 723.249C149.083 715.761 144.608 710.921 140.864 708.413C133.515 703.489 138.344 733.679 135.443 778.248C132.744 819.709 136.672 848.931 139.155 858.264C140.462 863.176 143.285 868.009 145.587 869.113C147.889 870.218 149.948 867.335 151.42 864.409C154.227 858.83 157.035 839.162 160.778 799.179C162.973 775.733 162.051 745.608 160.198 694.301C158.345 642.995 154.639 571.351 154.171 526.003C153.703 480.654 156.586 463.772 159.717 451.576C164.752 431.969 176.537 414.874 188.172 397.013C202.34 370.368 214.854 346.187 220.257 337.029C221.517 334.933 222.341 333.286 223.189 330.341" stroke="#1E1E1E" stroke-width="71" stroke-linecap="round"/>
</svg>
